<svg id="svg-added-image" viewBox="0 -1.5 36 36" fill="none" xmlns="http://www.w3.org/2000/svg">
<path fill-rule="evenodd" clip-rule="evenodd" d="M5.88237 3.57143L6.65658 1.22102C6.89679 0.491839 7.57118 0 8.33076 0H21.6692C22.4288 0 23.1032 0.491839 23.3434 1.22102L24.1176 3.57143H26.4706C28.4198 3.57143 30 5.17041 30 7.14286V21.4286C30 23.401 28.4198 25 26.4706 25H3.52941C1.58017 25 0 23.401 0 21.4286V7.14286C0 5.17041 1.58017 3.57143 3.52941 3.57143H5.88237ZM15 20.9821C19.1421 20.9821 22.5 17.5843 22.5 13.3929C22.5 9.20141 19.1421 5.80357 15 5.80357C10.8579 5.80357 7.5 9.20141 7.5 13.3929C7.5 17.5843 10.8579 20.9821 15 20.9821ZM15 18.3036C12.3198 18.3036 10.1471 16.105 10.1471 13.3929C10.1471 10.6807 12.3198 8.48214 15 8.48214C17.6802 8.48214 19.8529 10.6807 19.8529 13.3929C19.8529 16.105 17.6802 18.3036 15 18.3036ZM24.7059 8.92857V10.7143H26.4706V8.92857H24.7059Z" fill="#808093"/>
<circle cx="28" cy="25" r="8" fill="#CF0A2C"/>
<path d="M24 25.6531V24.3469H32V25.6531H24ZM27.299 21H28.701V29H27.299V21Z" fill="white"/>
</svg>
