<svg id="svg-arrow-down-right" viewBox="0 0 11 11" fill="currentColor" xmlns="http://www.w3.org/2000/svg">
<path d="M10.6735 10.9574C10.6025 10.9858 10.5386 11 10.4677 11H3.17809C2.88708 11 2.64575 10.7587 2.64575 10.4677C2.64575 10.1766 2.88708 9.93531 3.17809 9.93531H9.18293L0.154379 0.906759C-0.0514603 0.70092 -0.0514603 0.360219 0.154379 0.15438C0.360219 -0.0514599 0.70092 -0.0514599 0.906759 0.15438L9.93531 9.18293V3.17809C9.93531 2.88708 10.1766 2.64575 10.4677 2.64575C10.7587 2.64575 11 2.88708 11 3.17809V10.4677C11 10.5386 10.9858 10.6025 10.9574 10.6735C10.9077 10.8013 10.8013 10.9077 10.6735 10.9574Z"/>
</svg>
