<svg id="svg-calendar" viewBox="0 0 20 20" fill="none" xmlns="http://www.w3.org/2000/svg">
<path fill-rule="evenodd" clip-rule="evenodd" d="M6.86864 0.90909C6.86864 0.406969 6.46167 0 5.95955 0C5.45758 0 5.05045 0.406969 5.05045 0.90909V2.035C2.22667 2.24167 0 4.59818 0 7.4747V14.5455C0 17.5579 2.44212 20 5.45455 20H14.5455C17.5579 20 20 17.5579 20 14.5455V7.4747C20 4.59818 17.7733 2.24167 14.9495 2.035V0.90909C14.9495 0.406969 14.5424 0 14.0405 0C13.5383 0 13.1314 0.406969 13.1314 0.90909V2.02015H6.86864V0.90909ZM13.1314 4.94955V3.83833H6.86864V4.94955C6.86864 5.45152 6.46167 5.85864 5.95955 5.85864C5.45758 5.85864 5.05045 5.45152 5.05045 4.94955V3.86061C3.365 4.04697 2.02667 5.38515 1.84045 7.07076H18.1597C17.9733 5.38515 16.635 4.04697 14.9495 3.86061V4.94955C14.9495 5.45152 14.5424 5.85864 14.0405 5.85864C13.5383 5.85864 13.1314 5.45152 13.1314 4.94955ZM18.1818 8.88894H1.81818V14.5455C1.81818 16.5538 3.44621 18.1818 5.45455 18.1818H14.5455C16.5538 18.1818 18.1818 16.5538 18.1818 14.5455V8.88894ZM5.45455 11.0102C5.17561 11.0102 4.94955 11.2362 4.94955 11.5152C4.94955 11.7941 5.17561 12.0202 5.45455 12.0202C5.73348 12.0202 5.95955 11.7941 5.95955 11.5152C5.95955 11.2362 5.73348 11.0102 5.45455 11.0102ZM5.45455 12.5253C6.01242 12.5253 6.4647 12.073 6.4647 11.5152C6.4647 10.9573 6.01242 10.505 5.45455 10.505C4.89667 10.505 4.44439 10.9573 4.44439 11.5152C4.44439 12.073 4.89667 12.5253 5.45455 12.5253ZM9.495 11.5152C9.495 11.2362 9.72106 11.0102 10 11.0102C10.2789 11.0102 10.505 11.2362 10.505 11.5152C10.505 11.7941 10.2789 12.0202 10 12.0202C9.72106 12.0202 9.495 11.7941 9.495 11.5152ZM11.0102 11.5152C11.0102 12.073 10.5579 12.5253 10 12.5253C9.44212 12.5253 8.98985 12.073 8.98985 11.5152C8.98985 10.9573 9.44212 10.505 10 10.505C10.5579 10.505 11.0102 10.9573 11.0102 11.5152ZM14.5455 11.0102C14.2665 11.0102 14.0405 11.2362 14.0405 11.5152C14.0405 11.7941 14.2665 12.0202 14.5455 12.0202C14.8244 12.0202 15.0505 11.7941 15.0505 11.5152C15.0505 11.2362 14.8244 11.0102 14.5455 11.0102ZM14.5455 12.5253C15.1033 12.5253 15.5556 12.073 15.5556 11.5152C15.5556 10.9573 15.1033 10.505 14.5455 10.505C13.9876 10.505 13.5353 10.9573 13.5353 11.5152C13.5353 12.073 13.9876 12.5253 14.5455 12.5253ZM4.94955 15.0505C4.94955 14.7715 5.17561 14.5455 5.45455 14.5455C5.73348 14.5455 5.95955 14.7715 5.95955 15.0505C5.95955 15.3294 5.73348 15.5556 5.45455 15.5556C5.17561 15.5556 4.94955 15.3294 4.94955 15.0505ZM6.4647 15.0505C6.4647 15.6083 6.01242 16.0606 5.45455 16.0606C4.89667 16.0606 4.44439 15.6083 4.44439 15.0505C4.44439 14.4926 4.89667 14.0405 5.45455 14.0405C6.01242 14.0405 6.4647 14.4926 6.4647 15.0505ZM10 14.5455C9.72106 14.5455 9.495 14.7715 9.495 15.0505C9.495 15.3294 9.72106 15.5556 10 15.5556C10.2789 15.5556 10.505 15.3294 10.505 15.0505C10.505 14.7715 10.2789 14.5455 10 14.5455ZM10 16.0606C10.5579 16.0606 11.0102 15.6083 11.0102 15.0505C11.0102 14.4926 10.5579 14.0405 10 14.0405C9.44212 14.0405 8.98985 14.4926 8.98985 15.0505C8.98985 15.6083 9.44212 16.0606 10 16.0606ZM14.0405 15.0505C14.0405 14.7715 14.2665 14.5455 14.5455 14.5455C14.8244 14.5455 15.0505 14.7715 15.0505 15.0505C15.0505 15.3294 14.8244 15.5556 14.5455 15.5556C14.2665 15.5556 14.0405 15.3294 14.0405 15.0505ZM15.5556 15.0505C15.5556 15.6083 15.1033 16.0606 14.5455 16.0606C13.9876 16.0606 13.5353 15.6083 13.5353 15.0505C13.5353 14.4926 13.9876 14.0405 14.5455 14.0405C15.1033 14.0405 15.5556 14.4926 15.5556 15.0505Z" fill="currentColor"/>
</svg>
