<svg id="svg-favorite" viewBox="0 0 22 20" fill="currentColor" xmlns="http://www.w3.org/2000/svg">
<path d="M6.5189 0.000347707C5.65999 -0.00862484 4.80796 0.156137 4.01275 0.485C3.21755 0.813864 2.49519 1.30021 1.88805 1.91548C1.28093 2.53073 0.801202 3.26254 0.477048 4.06806C0.152914 4.87353 -0.0091412 5.73644 0.000397922 6.60618C0.00993711 7.4759 0.190883 8.33498 0.532605 9.13298C0.872511 9.92669 1.36469 10.6441 1.9805 11.2436L2.61977 11.897L3.48335 12.7653L3.48585 12.7678L10.3351 19.7034C10.5226 19.8933 10.777 20 11.0422 20C11.3074 20 11.5618 19.8933 11.7493 19.7034L18.5985 12.7678L18.6011 12.7653L19.4588 11.9029L20.1094 11.238L20.1113 11.236C20.7098 10.6297 21.1846 9.91004 21.5086 9.11804C21.833 8.32519 22 7.47541 22 6.61724C22 5.75904 21.833 4.90926 21.5086 4.11642C21.1843 3.32358 20.7085 2.60289 20.1091 1.99617C18.8993 0.772613 17.2593 0.0853805 15.5495 0.0853805C13.8647 0.0853805 12.2477 0.752604 11.0433 1.94268C10.4625 1.34711 9.77383 0.869897 9.01466 0.537266C8.22632 0.191849 7.37781 0.0093202 6.5189 0.000347707Z"/>
</svg>
