<svg width="16" height="16" viewBox="0 0 16 16" fill="none" xmlns="http://www.w3.org/2000/svg">
<path d="M12.36 2.74689L8.69337 1.37355C8.31337 1.23355 7.69337 1.23355 7.31337 1.37355L3.6467 2.74689C2.94003 3.01355 2.3667 3.84022 2.3667 4.59355V9.99355C2.3667 10.5336 2.72003 11.2469 3.15337 11.5669L6.82003 14.3069C7.4667 14.7936 8.5267 14.7936 9.17337 14.3069L12.84 11.5669C13.2734 11.2402 13.6267 10.5336 13.6267 9.99355V4.59355C13.6334 3.84022 13.06 3.01355 12.36 2.74689ZM10.32 6.48022L7.45337 9.34689C7.35337 9.44689 7.2267 9.49355 7.10003 9.49355C6.97337 9.49355 6.8467 9.44689 6.7467 9.34689L5.68003 8.26689C5.4867 8.07355 5.4867 7.75355 5.68003 7.56022C5.87337 7.36689 6.19337 7.36689 6.3867 7.56022L7.1067 8.28022L9.62003 5.76689C9.81337 5.57355 10.1334 5.57355 10.3267 5.76689C10.52 5.96022 10.52 6.28689 10.32 6.48022Z" fill="#6A6E71"/>
</svg>
