<svg id="svg-location" viewBox="-3 0 20 20" fill="currentColor" xmlns="http://www.w3.org/2000/svg">
<path fill-rule="evenodd" clip-rule="evenodd" d="M7 1.48594C3.5206 1.48594 0.7 4.28806 0.7 7.74465C0.7 10.2827 2.29068 12.8193 3.94217 14.7578C4.76124 15.7192 5.58129 16.5174 6.19682 17.0752C6.50435 17.354 6.76025 17.5722 6.93863 17.7202C6.95751 17.7359 6.97552 17.7508 6.99263 17.7648C7.01169 17.7481 7.0319 17.7304 7.0532 17.7116C7.2321 17.5536 7.48853 17.3217 7.79662 17.0277C8.41328 16.4394 9.2347 15.6046 10.0552 14.618C11.7127 12.625 13.3 10.09 13.3 7.74465C13.3 4.28806 10.4794 1.48594 7 1.48594ZM7 18.2182C6.78515 18.4927 6.78505 18.4926 6.78494 18.4925L6.78456 18.4923L6.78337 18.4913L6.77922 18.4881L6.76384 18.4761C6.7505 18.4656 6.73106 18.4502 6.70591 18.4301C6.65562 18.39 6.58252 18.3308 6.48986 18.2539C6.3046 18.1002 6.04095 17.8753 5.72504 17.589C5.09371 17.0168 4.25126 16.197 3.40783 15.2071C1.73432 13.2427 0 10.5425 0 7.74465C0 3.904 3.13402 0.790527 7 0.790527C10.866 0.790527 14 3.904 14 7.74465C14 10.3541 12.2623 13.0559 10.5948 15.061C9.7528 16.0735 8.91172 16.928 8.28149 17.5293C7.96616 17.8301 7.70306 18.0681 7.51828 18.2313C7.42588 18.3129 7.35301 18.3758 7.30296 18.4186C7.27792 18.44 7.25858 18.4564 7.24535 18.4675L7.23014 18.4803L7.22605 18.4837L7.22493 18.4846L7.22458 18.4849C7.22447 18.485 7.2244 18.4851 7 18.2182ZM7 18.2182L7.2244 18.4851L7.00786 18.6648L6.78515 18.4927L7 18.2182ZM7.16226 5.35317C5.74315 5.35317 4.59275 6.49604 4.59275 7.90585C4.59275 9.31563 5.74315 10.4585 7.16226 10.4585C8.58135 10.4585 9.73177 9.31563 9.73177 7.90585C9.73177 6.49604 8.58135 5.35317 7.16226 5.35317ZM3.89275 7.90585C3.89275 6.11196 5.35654 4.65776 7.16226 4.65776C8.96796 4.65776 10.4318 6.11196 10.4318 7.90585C10.4318 9.69971 8.96796 11.1539 7.16226 11.1539C5.35654 11.1539 3.89275 9.69971 3.89275 7.90585Z"/>
</svg>
