<svg width="27" height="17" viewBox="0 0 27 17" fill="none" xmlns="http://www.w3.org/2000/svg">
<path d="M16.8932 2.7994L9.81934 2.81445L10.1078 15.2078L17.1817 15.1927L16.8932 2.7994Z" fill="#FF5F00"/>
<path d="M10.266 9.04196C10.207 6.5205 11.3772 4.28149 13.2224 2.83043C11.8167 1.7809 10.0586 1.14873 8.15679 1.15274C3.65141 1.16224 0.0889856 4.69997 0.191128 9.06321C0.293271 13.4264 4.02097 16.9488 8.52635 16.9393C10.4281 16.9353 12.1565 16.2958 13.5129 15.2404C11.6004 13.8192 10.325 11.5634 10.266 9.04196Z" fill="#EB001B"/>
<path d="M26.811 8.93386C26.9132 13.2971 23.3508 16.8348 18.8454 16.8443C16.9436 16.8483 15.1854 16.2162 13.7797 15.1666C15.6476 13.7155 16.7952 11.4766 16.7362 8.9551C16.6772 6.43364 15.4022 4.19979 13.4892 2.75665C14.8456 1.7013 16.574 1.06177 18.4758 1.05776C22.9812 1.04826 26.7094 4.59255 26.811 8.93386Z" fill="#F79E1B"/>
</svg>
