<svg width="53" height="16" viewBox="0 0 53 16" fill="none" xmlns="http://www.w3.org/2000/svg">
<path fill-rule="evenodd" clip-rule="evenodd" d="M0 0.00999249C1.62356 0.0149886 3.24556 0.0116579 4.87067 0.00999249C5.63424 2.28928e-07 6.40092 0.42134 6.8177 1.11081C7.20648 1.70035 7.35422 2.4148 7.5455 3.09594C8.13334 5.21596 8.71185 7.33932 9.30124 9.45934C9.31057 9.65086 9.5765 9.72414 9.62782 9.52096C10.2297 7.38095 10.8097 5.23428 11.4069 3.09261C11.6122 2.33819 11.7879 1.53548 12.2653 0.915957C12.5717 0.514602 13.0009 0.228157 13.469 0.0949264C13.8671 -0.0233153 14.2823 0.0216499 14.6898 0.0149884C16.1143 0.0199846 17.5403 0.00166563 18.9664 0.0249809C18.9571 5.34919 18.9711 10.6751 18.9586 15.9993C17.4175 15.9893 15.8748 16.0143 14.3321 15.986C14.3321 12.8617 14.3383 9.73913 14.329 6.61488C14.3197 6.33676 13.8904 6.36008 13.8609 6.62154C12.9434 9.74246 12.0181 12.86 11.1145 15.9843C10.0259 16.0109 8.93579 15.9893 7.84564 15.9943C6.92967 12.8734 6.01992 9.75078 5.09306 6.63486C5.05418 6.37673 4.76959 6.3684 4.61719 6.51829C4.6203 9.67418 4.61408 12.8301 4.6203 15.986C3.08072 16.0059 1.54114 15.986 0.00155487 15.9959C0.00155487 10.6667 0.00155487 5.3392 0.00155487 0.00999249H0ZM21.0689 0.019985C22.607 -0.00499568 24.1481 0.0333075 25.6861 0C25.711 3.16089 25.6892 6.32344 25.697 9.48432C25.8292 9.61089 26.0702 9.6492 26.1511 9.44102C27.1759 7.14114 28.1961 4.83792 29.2194 2.53803C29.5444 1.82359 29.8072 1.04919 30.336 0.471302C30.5723 0.231488 30.8678 2.48161e-08 31.2099 0.0149884C32.7791 0.0149884 34.3482 0.00499659 35.9173 0.019985C35.9189 5.34253 35.9189 10.6651 35.9173 15.9876C34.3777 16.0009 32.8382 15.9993 31.297 15.9876C31.297 12.8351 31.3033 9.68084 31.2939 6.52828C31.2908 6.25682 30.8616 6.28014 30.8181 6.52328C29.8523 8.80485 28.8912 11.0881 27.9271 13.368C27.63 14.0608 27.3486 14.7736 26.9053 15.3764C26.6581 15.7128 26.2988 16.0143 25.879 15.9943C24.2756 15.9943 22.6707 15.9959 21.0674 15.9943C21.0674 10.6701 21.0689 5.34586 21.0674 0.0216501L21.0689 0.019985ZM38.1707 7.31434C43.0072 7.27936 47.8436 7.31434 52.6801 7.29768C52.5168 8.01046 52.086 8.62499 51.6304 9.16124C50.73 10.2071 49.4376 10.8449 48.108 10.8832C46.3414 10.8932 44.5747 10.8832 42.8081 10.8882C42.7972 12.5919 42.8081 14.2939 42.8035 15.9976C41.2623 15.991 39.7212 16.0026 38.1785 15.991C38.1707 13.0999 38.1863 10.2088 38.1707 7.316V7.31434Z" fill="#3DA536"/>
<path fill-rule="evenodd" clip-rule="evenodd" d="M37.585 0.0136148C41.1975 0.00861863 44.8117 0.0052878 48.4242 0.0102839C49.3713 0.0835605 50.2873 0.494909 51.0384 1.11276C52.1286 2.02206 52.8641 3.41765 52.9854 4.89483C53.0134 5.42776 53.0041 5.96401 52.9295 6.49193C50.7149 6.50526 48.502 6.49193 46.2875 6.49526C45.527 6.4886 44.7634 6.52857 44.0092 6.40866C42.3095 6.17718 40.633 5.41943 39.4278 4.09046C38.4123 2.99964 37.7871 1.53077 37.585 0.0152805V0.0136148Z" fill="#008CD2"/>
</svg>
