<svg width="144" height="144" viewBox="0 0 144 144" fill="none" xmlns="http://www.w3.org/2000/svg">
<rect x="0.5" y="-0.5" width="69" height="45" rx="11.5" transform="matrix(1 0 0 -1 0 45)" stroke="#F5F7F9"/>
<rect x="0.5" y="-0.5" width="69" height="45" rx="11.5" transform="matrix(1 0 0 -1 0 143)" stroke="#F5F7F9"/>
<rect x="0.5" y="-0.5" width="69" height="45" rx="11.5" transform="matrix(1 0 0 -1 74 45)" stroke="#F5F7F9"/>
<rect x="0.5" y="-0.5" width="69" height="45" rx="11.5" transform="matrix(1 0 0 -1 74 143)" stroke="#F5F7F9"/>
<path d="M42.4398 15.2734V30.3318H39.885V17.3101H35.3243V30.3318H32.7695V15.2734H42.4398Z" fill="black"/>
<path d="M46.7179 30.5484C45.5918 30.5484 44.7262 30.3245 44.1209 29.8768V27.7751C44.4446 28.0062 44.7965 28.1868 45.1766 28.3168C45.5707 28.4468 46.0352 28.5118 46.5701 28.5118C47.3725 28.5118 47.9777 28.2734 48.3859 27.7968C48.7942 27.3057 49.0475 26.634 49.1461 25.7818H45.4511V23.7451H49.1249C48.8856 22.084 48.0552 21.2534 46.6335 21.2534C46.1971 21.2534 45.7607 21.3257 45.3244 21.4701C44.9021 21.6145 44.5643 21.7662 44.3109 21.9251V19.7368C44.5784 19.5923 44.9373 19.4695 45.3877 19.3684C45.8382 19.2673 46.3801 19.2168 47.0135 19.2168C47.8018 19.2168 48.4915 19.3612 49.0827 19.6501C49.688 19.9245 50.1877 20.3145 50.5818 20.8201C50.99 21.3112 51.2927 21.9107 51.4897 22.6184C51.7009 23.3118 51.8064 24.0701 51.8064 24.8934C51.8064 26.7279 51.3842 28.129 50.5396 29.0968C49.7091 30.0645 48.4352 30.5484 46.7179 30.5484Z" fill="black"/>
<path d="M57.7781 18.0034C56.7647 18.0034 55.9975 17.7434 55.4767 17.2234C54.9699 16.7034 54.7166 16.0534 54.7166 15.2734H56.828C56.828 15.649 56.9125 15.9234 57.0814 16.0968C57.2644 16.2701 57.4966 16.3568 57.7781 16.3568C58.0456 16.3568 58.2567 16.2701 58.4116 16.0968C58.5664 15.909 58.6438 15.6345 58.6438 15.2734H60.7552C60.7552 15.649 60.6919 16.0029 60.5652 16.3351C60.4385 16.6673 60.2485 16.9562 59.9951 17.2018C59.7558 17.4473 59.4462 17.6423 59.0661 17.7868C58.7001 17.9312 58.2708 18.0034 57.7781 18.0034ZM55.9201 19.4334V26.1934L59.7629 19.4334H62.001V30.3318H59.5728V23.5934L55.7301 30.3318H53.492V19.4334H55.9201Z" fill="black"/>
<rect x="8" y="13" width="19.5181" height="20" rx="9.75904" fill="#FC3F1D"/>
<path d="M19.1346 29.0117H21.1734V17.0117H18.2078C15.2253 17.0117 13.6583 18.5829 13.6583 20.8966C13.6583 22.7441 14.5176 23.8319 16.051 24.9542L13.3887 29.0117H15.596L18.5617 24.4707L17.5338 23.7628C16.2869 22.8995 15.6803 22.2261 15.6803 20.7757C15.6803 19.4981 16.5565 18.6347 18.2247 18.6347H19.1346V29.0117Z" fill="white"/>
<path d="M58.3008 63.8711H54.8432C53.7979 63.8711 52.9938 64.1927 52.5114 65.238L45.918 80.2743H50.5816C50.5816 80.2743 51.3857 78.2641 51.5465 77.7816C52.029 77.7816 56.6122 77.7816 57.2555 77.7816C57.4163 78.3445 57.8183 80.1939 57.8183 80.1939H61.9995L58.3008 63.8711ZM52.833 74.4045C53.2351 73.4396 54.602 69.8213 54.602 69.8213C54.602 69.9017 55.004 68.8564 55.1649 68.2935L55.4865 69.7409C55.4865 69.7409 56.371 73.6808 56.5318 74.4849H52.833V74.4045Z" fill="#3362AB"/>
<path d="M46.2399 74.886C46.2399 78.2631 43.1844 80.5145 38.4404 80.5145C36.4302 80.5145 34.5004 80.1125 33.4551 79.63L34.0983 75.9313L34.6612 76.1725C36.1085 76.8158 37.0734 77.057 38.8424 77.057C40.1289 77.057 41.4959 76.5746 41.4959 75.4488C41.4959 74.7252 40.933 74.2427 39.164 73.4387C37.4755 72.6346 35.224 71.3481 35.224 69.0162C35.224 65.7999 38.36 63.6289 42.7824 63.6289C44.4709 63.6289 45.9183 63.9505 46.8028 64.3526L46.1595 67.8905L45.8379 67.5689C45.0338 67.2473 43.9885 66.9256 42.4607 66.9256C40.7722 67.006 39.9681 67.7297 39.9681 68.373C39.9681 69.0966 40.933 69.6595 42.4607 70.3832C45.0338 71.5893 46.2399 72.9562 46.2399 74.886Z" fill="#3362AB"/>
<path d="M7 64.0326L7.08041 63.7109H13.9955C14.9604 63.7109 15.684 64.0326 15.9253 65.0779L17.453 72.3146C15.9253 68.455 12.3873 65.3191 7 64.0326Z" fill="#3362AB"/>
<path d="M27.1818 63.8695L20.1863 80.1922H15.4423L11.4219 66.5229C14.3166 68.3723 16.7288 71.267 17.6133 73.2772L18.0957 74.9657L22.4377 63.7891H27.1818V63.8695Z" fill="#3362AB"/>
<path d="M29.0311 63.7891H33.4535L30.6392 80.1922H26.2168L29.0311 63.7891Z" fill="#3362AB"/>
<path d="M40.4852 106.509L29.4375 106.547L29.7723 126.772L40.8199 126.734L40.4852 106.509Z" fill="#FF5F00"/>
<path d="M30.1653 116.699C30.097 112.585 31.9398 108.93 34.8262 106.559C32.6475 104.849 29.9161 103.821 26.9552 103.832C19.9407 103.856 14.3613 109.634 14.4796 116.753C14.5979 123.871 20.3687 129.611 27.3832 129.587C30.3441 129.577 33.041 128.53 35.1626 126.806C32.1984 124.491 30.2337 120.813 30.1653 116.699Z" fill="#EB001B"/>
<path d="M55.7776 116.526C55.8959 123.645 50.3166 129.423 43.3021 129.447C40.3412 129.457 37.6098 128.429 35.4311 126.72C38.3527 124.349 40.1603 120.694 40.0919 116.58C40.0236 112.466 38.0595 108.824 35.0946 106.473C37.2162 104.749 39.9132 103.702 42.8741 103.692C49.8886 103.668 55.6599 109.443 55.7776 116.526Z" fill="#F79E1B"/>
<path d="M20.1149 136.918V134.717C20.1149 133.874 19.5532 133.323 18.5957 133.323C18.1106 133.323 17.6 133.475 17.2298 133.944C16.9489 133.546 16.5532 133.323 15.9532 133.323C15.5574 133.323 15.1489 133.429 14.8298 133.838V133.393H14V136.918H14.8426V134.974C14.8426 134.354 15.2 134.061 15.7617 134.061C16.3234 134.061 16.6043 134.389 16.6043 134.974V136.918H17.4468V134.974C17.4468 134.354 17.8426 134.061 18.366 134.061C18.9277 134.061 19.2085 134.389 19.2085 134.974V136.918H20.1149ZM32.5617 133.393H31.1957V132.328H30.3532V133.393H29.5872V134.096H30.3532V135.712C30.3532 136.52 30.7106 137 31.6681 137C32.0255 137 32.434 136.895 32.7021 136.742L32.4596 136.087C32.217 136.239 31.9362 136.274 31.7447 136.274C31.3489 136.274 31.183 136.052 31.183 135.689V134.108H32.5489V133.393H32.5617ZM39.6723 133.323C39.1872 133.323 38.8681 133.546 38.6766 133.838V133.393H37.834V136.918H38.6766V134.939C38.6766 134.354 38.9574 134.026 39.4809 134.026C39.6468 134.026 39.8383 134.061 40.0043 134.096L40.2468 133.358C40.0809 133.323 39.8383 133.323 39.6723 133.323ZM28.9106 133.686C28.5149 133.429 27.9532 133.323 27.3532 133.323C26.3957 133.323 25.7574 133.768 25.7574 134.459C25.7574 135.044 26.2426 135.372 27.0723 135.489L27.4681 135.525C27.9021 135.595 28.1447 135.712 28.1447 135.888C28.1447 136.145 27.8255 136.333 27.2638 136.333C26.7021 136.333 26.2681 136.145 25.9872 135.97L25.5915 136.555C26.0255 136.848 26.6255 137 27.2255 137C28.3489 137 28.9872 136.52 28.9872 135.864C28.9872 135.244 28.4638 134.916 27.6723 134.799L27.2766 134.763C26.9191 134.728 26.6383 134.658 26.6383 134.436C26.6383 134.178 26.9191 134.037 27.3532 134.037C27.8383 134.037 28.3106 134.225 28.5532 134.33L28.9106 133.686ZM51.2383 133.323C50.7532 133.323 50.434 133.546 50.2425 133.838V133.393H49.4V136.918H50.2425V134.939C50.2425 134.354 50.5234 134.026 51.0468 134.026C51.2128 134.026 51.4043 134.061 51.5702 134.096L51.8128 133.358C51.634 133.323 51.3915 133.323 51.2383 133.323ZM40.5149 135.15C40.5149 136.215 41.3191 136.988 42.5574 136.988C43.1192 136.988 43.5149 136.883 43.9234 136.59L43.5277 135.97C43.2085 136.192 42.8894 136.297 42.5319 136.297C41.8553 136.297 41.3702 135.852 41.3702 135.162C41.3702 134.506 41.8553 134.061 42.5319 134.026C42.8894 134.026 43.2085 134.131 43.5277 134.354L43.9234 133.733C43.5277 133.44 43.1192 133.335 42.5574 133.335C41.3191 133.323 40.5149 134.096 40.5149 135.15ZM48.2766 133.393H47.434V133.838C47.1532 133.511 46.7574 133.323 46.234 133.323C45.1489 133.323 44.3191 134.096 44.3191 135.162C44.3191 136.227 45.1617 137 46.234 137C46.7957 137 47.1915 136.813 47.434 136.485V136.93H48.2766V133.393ZM45.2 135.15C45.2 134.529 45.634 134.014 46.3617 134.014C47.0383 134.014 47.5234 134.494 47.5234 135.15C47.5234 135.77 47.0383 136.286 46.3617 136.286C45.634 136.251 45.2 135.782 45.2 135.15ZM35.1532 133.323C34.0298 133.323 33.2383 134.061 33.2383 135.162C33.2383 136.262 34.0426 137 35.2043 137C35.766 137 36.3277 136.848 36.7617 136.52L36.366 135.97C36.0468 136.192 35.6511 136.333 35.2425 136.333C34.7191 136.333 34.2085 136.11 34.0808 135.489H36.9149V135.197C36.9532 134.049 36.2383 133.323 35.1532 133.323ZM35.1532 133.979C35.6766 133.979 36.034 134.272 36.1106 134.822H34.1064C34.1957 134.354 34.5532 133.979 35.1532 133.979ZM56 132H55.1574V133.838C54.8766 133.511 54.4809 133.323 53.9574 133.323C52.8723 133.323 52.0426 134.096 52.0426 135.162C52.0426 136.227 52.8851 137 53.9574 137C54.5191 137 54.9149 136.813 55.1574 136.485V136.93H56V132ZM52.9106 135.15C52.9106 134.529 53.3447 134.014 54.0723 134.014C54.7489 134.014 55.234 134.494 55.234 135.15C55.234 135.77 54.7489 136.286 54.0723 136.286C53.3574 136.251 52.9106 135.782 52.9106 135.15ZM24.8383 133.393H23.9957V133.838C23.7149 133.511 23.3191 133.323 22.7957 133.323C21.7106 133.323 20.8808 134.096 20.8808 135.162C20.8808 136.227 21.7234 137 22.7957 137C23.3574 137 23.7532 136.813 23.9957 136.485V136.93H24.8383V133.393ZM21.7234 135.15C21.7234 134.529 22.1574 134.014 22.8851 134.014C23.5617 134.014 24.0468 134.494 24.0468 135.15C24.0468 135.77 23.5617 136.286 22.8851 136.286C22.1574 136.251 21.7234 135.782 21.7234 135.15Z" fill="#000008"/>
<g clip-path="url(#clip0_2286_43730)">
<path fill-rule="evenodd" clip-rule="evenodd" d="M92.3804 24.9453L96.0853 27.28V31.6116L92.3633 38.0007L92.3804 24.9453Z" fill="#62B22F"/>
<path fill-rule="evenodd" clip-rule="evenodd" d="M89.3069 23.0977L93.0044 25.152L82.0293 31.54L85.6115 25.2911L89.3069 23.0977Z" fill="#974995"/>
<path fill-rule="evenodd" clip-rule="evenodd" d="M106.547 17.1958L99.4841 17.1621L96.0823 15.2019L92.3848 9L106.547 17.1958Z" fill="#EE7024"/>
<path fill-rule="evenodd" clip-rule="evenodd" d="M92.3857 9L96.0832 15.2019L96.0907 23.7476L92.3633 22.656L92.3857 9Z" fill="#FBB61B"/>
<path fill-rule="evenodd" clip-rule="evenodd" d="M82 15.2383L85.6238 21.5527L85.6121 25.291L82.0299 31.5399L82 15.2383Z" fill="#5A58A3"/>
<path fill-rule="evenodd" clip-rule="evenodd" d="M82 15.2383L106.492 29.6012L99.4734 29.6483L85.6238 21.5527L82 15.2383Z" fill="#2188CB"/>
<path fill-rule="evenodd" clip-rule="evenodd" d="M99.4839 17.1602L106.547 17.1939L96.0927 23.3538L96.082 19.147L99.4839 17.1602Z" fill="#DA0954"/>
<path fill-rule="evenodd" clip-rule="evenodd" d="M119.853 18.1804C120.712 17.4295 121.889 17.051 123.046 17.0858C124.255 17.0622 125.473 17.141 126.676 17.0039C126.415 17.7692 125.887 18.4321 125.535 19.1646C124.668 19.18 123.8 19.1493 122.935 19.1779C121.821 19.2649 120.76 20.1294 120.651 21.2169C121.664 20.2491 123.249 20.1836 124.562 20.5018C125.442 20.7882 126.225 21.4205 126.545 22.2717C126.839 23.0196 126.887 23.8411 126.695 24.6176C126.404 25.6826 125.51 26.5072 124.457 26.897C123.214 27.3451 121.785 27.3686 120.548 26.8939C119.374 26.4356 118.543 25.3716 118.259 24.2043C117.949 23.1659 117.99 21.6282 118.308 20.5724C118.584 19.6618 119.125 18.8209 119.853 18.1804ZM122.859 22.2359C122.198 22.1101 121.454 22.3689 121.111 22.9254C120.489 23.9362 121.344 25.4453 122.739 25.255C124.261 25.0483 124.657 22.6963 122.859 22.2359ZM113.024 19.6219C114.392 19.2997 115.957 19.3938 117.126 20.2112C116.739 20.8087 116.39 21.4266 116.036 22.0415C115.465 21.8594 114.91 21.5699 114.292 21.5842C113.636 21.5648 112.927 21.8103 112.554 22.3505C112.157 22.9224 112.138 23.7081 112.524 24.2912C112.868 24.8417 113.544 25.0964 114.185 25.1537C114.686 25.0995 115.195 25.032 115.658 24.8284C115.769 24.7619 115.897 24.7649 116.023 24.7731C116.249 25.3931 116.745 25.9057 116.94 26.5328C115.679 27.1784 114.177 27.3103 112.796 26.9891C111.845 26.721 110.939 26.1993 110.395 25.387C109.533 24.1204 109.566 22.329 110.556 21.1361C111.153 20.3647 112.065 19.8624 113.024 19.6219ZM128.024 19.6547C130.683 19.6363 133.343 19.6352 136.001 19.6547C135.977 22.0753 135.992 24.4979 135.994 26.9185C135.1 26.9226 134.204 26.9246 133.31 26.9185C133.351 25.3297 133.268 23.7429 133.32 22.1592C133.325 22.0354 133.295 21.9208 133.232 21.8144C132.415 21.8318 131.597 21.8328 130.78 21.8144C130.729 23.5127 130.77 25.2151 130.76 26.9154C129.849 26.9308 128.939 26.9226 128.029 26.9195C128.03 24.4979 128.041 22.0773 128.024 19.6567V19.6547Z" fill="#1B1537"/>
<path fill-rule="evenodd" clip-rule="evenodd" d="M96.0853 31.6099L99.4733 29.6486L106.491 29.6016L92.3633 37.9989L96.0853 31.6099Z" fill="#037F37"/>
</g>
<path fill-rule="evenodd" clip-rule="evenodd" d="M82 65.0095C83.6542 65.0143 85.3068 65.0111 86.9626 65.0095C87.7406 65 88.5217 65.4009 88.9464 66.0569C89.3425 66.6178 89.493 67.2975 89.6879 67.9456C90.2869 69.9626 90.8763 71.9828 91.4768 73.9999C91.4863 74.1821 91.7573 74.2518 91.8096 74.0585C92.4227 72.0224 93.0138 69.98 93.6222 67.9424C93.8314 67.2246 94.0104 66.4609 94.4968 65.8715C94.809 65.4896 95.2463 65.2171 95.7232 65.0903C96.1289 64.9778 96.5519 65.0206 96.9671 65.0143C98.4184 65.019 99.8714 65.0016 101.324 65.0238C101.315 70.0894 101.329 75.1566 101.316 80.2222C99.7462 80.2127 98.1744 80.2364 96.6026 80.2095C96.6026 77.237 96.609 74.2661 96.5995 71.2936C96.5899 71.029 96.1526 71.0512 96.1225 71.2999C95.1877 74.2692 94.2449 77.2354 93.3243 80.2079C92.2152 80.2332 91.1045 80.2127 89.9937 80.2174C89.0605 77.2481 88.1335 74.2772 87.1892 71.3126C87.1496 71.067 86.8596 71.0591 86.7043 71.2017C86.7075 74.2043 86.7012 77.2069 86.7075 80.2095C85.1389 80.2285 83.5702 80.2095 82.0016 80.219C82.0016 75.1486 82.0016 70.0799 82.0016 65.0095H82ZM103.467 65.019C105.034 64.9952 106.604 65.0317 108.171 65C108.196 68.0074 108.174 71.0163 108.182 74.0236C108.317 74.1441 108.562 74.1805 108.645 73.9825C109.689 71.7943 110.728 69.6029 111.771 67.4148C112.102 66.735 112.37 65.9982 112.909 65.4484C113.149 65.2202 113.45 65 113.799 65.0143C115.398 65.0143 116.997 65.0048 118.595 65.019C118.597 70.083 118.597 75.147 118.595 80.2111C117.027 80.2237 115.458 80.2222 113.888 80.2111C113.888 77.2116 113.894 74.2106 113.885 71.2112C113.881 70.9529 113.444 70.9751 113.4 71.2064C112.416 73.3772 111.437 75.5495 110.454 77.7187C110.152 78.3778 109.865 79.056 109.413 79.6296C109.161 79.9496 108.795 80.2364 108.367 80.2174C106.734 80.2174 105.099 80.219 103.465 80.2174C103.465 75.1518 103.467 70.0862 103.465 65.0206L103.467 65.019ZM120.891 71.9591C125.819 71.9258 130.747 71.9591 135.674 71.9432C135.508 72.6214 135.069 73.2061 134.605 73.7163C133.688 74.7113 132.371 75.3182 131.016 75.3546C129.216 75.3641 127.416 75.3546 125.616 75.3594C125.605 76.9803 125.616 78.5996 125.611 80.2206C124.041 80.2142 122.471 80.2253 120.899 80.2142C120.891 77.4636 120.907 74.7129 120.891 71.9606V71.9591Z" fill="#3DA536"/>
<path fill-rule="evenodd" clip-rule="evenodd" d="M120.295 65.0172C123.976 65.0125 127.658 65.0093 131.339 65.0141C132.304 65.0838 133.237 65.4752 134.002 66.063C135.113 66.9281 135.862 68.2559 135.986 69.6614C136.015 70.1684 136.005 70.6786 135.929 71.1809C133.673 71.1936 131.418 71.1809 129.162 71.1841C128.387 71.1777 127.609 71.2157 126.84 71.1017C125.109 70.8814 123.401 70.1605 122.173 68.8961C121.138 67.8582 120.501 66.4607 120.295 65.0188V65.0172Z" fill="#008CD2"/>
<path d="M117.002 124.687C117.478 124.891 117.681 125.57 117.681 125.909C117.749 126.452 117.614 126.724 117.41 126.724C117.206 126.724 116.934 126.52 116.663 126.045C116.391 125.57 116.255 125.094 116.391 124.823C116.595 124.687 116.799 124.619 117.002 124.687Z" fill="#F28A1A"/>
<path d="M114.217 126.793C114.488 126.793 114.828 126.929 115.167 127.2C115.711 127.676 115.914 128.219 115.643 128.626C115.507 128.83 115.167 128.966 114.896 128.966C114.556 128.966 114.217 128.83 114.013 128.626C113.47 128.151 113.334 127.472 113.673 127.065C113.741 126.929 113.945 126.793 114.217 126.793Z" fill="#F28A1A"/>
<path d="M107.767 132.157C100.704 132.157 95 126.453 95 119.458C95 112.464 100.704 106.691 107.767 106.691C114.829 106.691 120.534 112.396 120.534 119.458C120.534 121.835 119.855 124.076 118.768 125.977C118.7 126.045 118.632 126.045 118.632 125.91C118.157 122.786 116.255 121.088 113.539 120.545C113.267 120.477 113.267 120.341 113.607 120.341C114.49 120.273 115.644 120.273 116.323 120.409C116.391 120.069 116.391 119.73 116.391 119.458C116.391 114.84 112.588 111.038 107.971 111.038C103.353 111.038 99.5499 114.84 99.5499 119.458C99.5499 124.076 103.353 127.879 107.971 127.879H108.378C108.242 127.132 108.174 126.385 108.242 125.57C108.242 125.027 108.378 124.959 108.582 125.366C109.736 127.404 111.434 129.169 114.693 129.916C117.342 130.527 119.99 131.206 122.91 134.806C123.182 135.145 122.775 135.485 122.503 135.213C119.583 132.632 116.934 131.75 114.49 131.75C111.434 131.818 109.6 132.157 107.767 132.157Z" fill="#F28A1A"/>
<defs>
<clipPath id="clip0_2286_43730">
<rect width="54" height="29" fill="white" transform="translate(82 9)"/>
</clipPath>
</defs>
</svg>
