<svg width="292" height="94" viewBox="0 0 292 94" fill="none" xmlns="http://www.w3.org/2000/svg">
<rect x="0.5" y="-0.5" width="69" height="45" rx="11.5" transform="matrix(1 0 0 -1 74 93)" stroke="#F5F7F9"/>
<path d="M116.44 63.2734V78.3318H113.885V65.3101H109.324V78.3318H106.77V63.2734H116.44Z" fill="black"/>
<path d="M120.718 78.5484C119.592 78.5484 118.726 78.3245 118.121 77.8768V75.7751C118.445 76.0062 118.797 76.1868 119.177 76.3168C119.571 76.4468 120.035 76.5118 120.57 76.5118C121.372 76.5118 121.978 76.2734 122.386 75.7968C122.794 75.3057 123.048 74.634 123.146 73.7818H119.451V71.7451H123.125C122.886 70.084 122.055 69.2534 120.633 69.2534C120.197 69.2534 119.761 69.3257 119.324 69.4701C118.902 69.6145 118.564 69.7662 118.311 69.9251V67.7368C118.578 67.5923 118.937 67.4695 119.388 67.3684C119.838 67.2673 120.38 67.2168 121.014 67.2168C121.802 67.2168 122.492 67.3612 123.083 67.6501C123.688 67.9245 124.188 68.3145 124.582 68.8201C124.99 69.3112 125.293 69.9107 125.49 70.6184C125.701 71.3118 125.806 72.0701 125.806 72.8934C125.806 74.7279 125.384 76.129 124.54 77.0968C123.709 78.0645 122.435 78.5484 120.718 78.5484Z" fill="black"/>
<path d="M131.778 66.0034C130.765 66.0034 129.998 65.7434 129.477 65.2234C128.97 64.7034 128.717 64.0534 128.717 63.2734H130.828C130.828 63.649 130.912 63.9234 131.081 64.0968C131.264 64.2701 131.497 64.3568 131.778 64.3568C132.046 64.3568 132.257 64.2701 132.412 64.0968C132.566 63.909 132.644 63.6345 132.644 63.2734H134.755C134.755 63.649 134.692 64.0029 134.565 64.3351C134.439 64.6673 134.248 64.9562 133.995 65.2018C133.756 65.4473 133.446 65.6423 133.066 65.7868C132.7 65.9312 132.271 66.0034 131.778 66.0034ZM129.92 67.4334V74.1934L133.763 67.4334H136.001V78.3318H133.573V71.5934L129.73 78.3318H127.492V67.4334H129.92Z" fill="black"/>
<rect x="82" y="61" width="19.5181" height="20" rx="9.75904" fill="#FC3F1D"/>
<path d="M93.1346 77.0117H95.1734V65.0117H92.2078C89.2253 65.0117 87.6583 66.5829 87.6583 68.8966C87.6583 70.7441 88.5176 71.8319 90.051 72.9542L87.3887 77.0117H89.596L92.5617 72.4707L91.5338 71.7628C90.2869 70.8995 89.6803 70.2261 89.6803 68.7757C89.6803 67.4981 90.5565 66.6347 92.2247 66.6347H93.1346V77.0117Z" fill="white"/>
<rect x="0.5" y="-0.5" width="69" height="43" rx="11.5" transform="matrix(1 0 0 -1 0 43)" stroke="#F5F7F9"/>
<path d="M58.3008 13.8711H54.8432C53.7979 13.8711 52.9938 14.1927 52.5114 15.238L45.918 30.2743H50.5816C50.5816 30.2743 51.3857 28.2641 51.5465 27.7816C52.029 27.7816 56.6122 27.7816 57.2555 27.7816C57.4163 28.3445 57.8183 30.1939 57.8183 30.1939H61.9995L58.3008 13.8711ZM52.833 24.4045C53.2351 23.4396 54.602 19.8213 54.602 19.8213C54.602 19.9017 55.004 18.8564 55.1649 18.2935L55.4865 19.7409C55.4865 19.7409 56.371 23.6808 56.5318 24.4849H52.833V24.4045Z" fill="#3362AB"/>
<path d="M46.2399 24.886C46.2399 28.2631 43.1844 30.5145 38.4404 30.5145C36.4302 30.5145 34.5004 30.1125 33.4551 29.63L34.0983 25.9313L34.6612 26.1725C36.1085 26.8158 37.0734 27.057 38.8424 27.057C40.1289 27.057 41.4959 26.5746 41.4959 25.4488C41.4959 24.7252 40.933 24.2427 39.164 23.4387C37.4755 22.6346 35.224 21.3481 35.224 19.0162C35.224 15.7999 38.36 13.6289 42.7824 13.6289C44.4709 13.6289 45.9183 13.9505 46.8028 14.3526L46.1595 17.8905L45.8379 17.5689C45.0338 17.2473 43.9885 16.9256 42.4607 16.9256C40.7722 17.006 39.9681 17.7297 39.9681 18.373C39.9681 19.0966 40.933 19.6595 42.4607 20.3832C45.0338 21.5893 46.2399 22.9562 46.2399 24.886Z" fill="#3362AB"/>
<path d="M7 14.0326L7.08041 13.7109H13.9955C14.9604 13.7109 15.684 14.0326 15.9253 15.0779L17.453 22.3146C15.9253 18.455 12.3873 15.3191 7 14.0326Z" fill="#3362AB"/>
<path d="M27.1818 13.8695L20.1863 30.1922H15.4423L11.4219 16.5229C14.3166 18.3723 16.7288 21.267 17.6133 23.2772L18.0957 24.9657L22.4377 13.7891H27.1818V13.8695Z" fill="#3362AB"/>
<path d="M29.0311 13.7891H33.4535L30.6392 30.1922H26.2168L29.0311 13.7891Z" fill="#3362AB"/>
<rect x="0.5" y="-0.5" width="69" height="43" rx="11.5" transform="matrix(1 0 0 -1 148 43)" stroke="#F5F7F9"/>
<path d="M188.446 8.13713L177.438 8.16797L177.811 27.5196L188.82 27.4887L188.446 8.13713Z" fill="#FF5F00"/>
<path d="M178.152 17.8848C178.076 13.9483 179.907 10.4515 182.781 8.1842C180.605 6.54712 177.878 5.56199 174.924 5.57021C167.927 5.5897 162.373 11.1165 162.505 17.9283C162.637 24.7401 168.405 30.2354 175.402 30.216C178.356 30.2077 181.044 29.2075 183.157 27.5585C180.196 25.3417 178.228 21.8212 178.152 17.8848Z" fill="#EB001B"/>
<path d="M203.753 17.7229C203.885 24.5347 198.33 30.0615 191.333 30.081C188.379 30.0893 185.653 29.1041 183.476 27.4671C186.386 25.1996 188.182 21.703 188.105 17.7665C188.029 13.83 186.062 10.3438 183.1 8.09276C185.213 6.44374 187.901 5.44352 190.855 5.43529C197.852 5.4158 203.621 10.9453 203.753 17.7229Z" fill="#F79E1B"/>
<path d="M168.115 37.918V35.7166C168.115 34.8735 167.553 34.3232 166.596 34.3232C166.111 34.3232 165.6 34.4754 165.23 34.9438C164.949 34.5457 164.553 34.3232 163.953 34.3232C163.557 34.3232 163.149 34.4286 162.83 34.8384V34.3934H162V37.918H162.843V35.9742C162.843 35.3536 163.2 35.0609 163.762 35.0609C164.323 35.0609 164.604 35.3888 164.604 35.9742V37.918H165.447V35.9742C165.447 35.3536 165.843 35.0609 166.366 35.0609C166.928 35.0609 167.209 35.3888 167.209 35.9742V37.918H168.115ZM180.562 34.3934H179.196V33.3279H178.353V34.3934H177.587V35.096H178.353V36.7119C178.353 37.5199 178.711 38 179.668 38C180.026 38 180.434 37.8946 180.702 37.7424L180.46 37.0866C180.217 37.2389 179.936 37.274 179.745 37.274C179.349 37.274 179.183 37.0515 179.183 36.6885V35.1077H180.549V34.3934H180.562ZM187.672 34.3232C187.187 34.3232 186.868 34.5457 186.677 34.8384V34.3934H185.834V37.918H186.677V35.9391C186.677 35.3536 186.957 35.0258 187.481 35.0258C187.647 35.0258 187.838 35.0609 188.004 35.096L188.247 34.3583C188.081 34.3232 187.838 34.3232 187.672 34.3232ZM176.911 34.6862C176.515 34.4286 175.953 34.3232 175.353 34.3232C174.396 34.3232 173.757 34.7681 173.757 35.459C173.757 36.0445 174.243 36.3724 175.072 36.4895L175.468 36.5246C175.902 36.5948 176.145 36.7119 176.145 36.8876C176.145 37.1452 175.826 37.3326 175.264 37.3326C174.702 37.3326 174.268 37.1452 173.987 36.9696L173.591 37.555C174.026 37.8478 174.626 38 175.226 38C176.349 38 176.987 37.5199 176.987 36.8642C176.987 36.2436 176.464 35.9157 175.672 35.7986L175.277 35.7635C174.919 35.7283 174.638 35.6581 174.638 35.4356C174.638 35.178 174.919 35.0375 175.353 35.0375C175.838 35.0375 176.311 35.2248 176.553 35.3302L176.911 34.6862ZM199.238 34.3232C198.753 34.3232 198.434 34.5457 198.243 34.8384V34.3934H197.4V37.918H198.243V35.9391C198.243 35.3536 198.523 35.0258 199.047 35.0258C199.213 35.0258 199.404 35.0609 199.57 35.096L199.813 34.3583C199.634 34.3232 199.391 34.3232 199.238 34.3232ZM188.515 36.1499C188.515 37.2155 189.319 37.9883 190.557 37.9883C191.119 37.9883 191.515 37.8829 191.923 37.5902L191.528 36.9696C191.209 37.192 190.889 37.2974 190.532 37.2974C189.855 37.2974 189.37 36.8525 189.37 36.1616C189.37 35.5059 189.855 35.0609 190.532 35.0258C190.889 35.0258 191.209 35.1311 191.528 35.3536L191.923 34.733C191.528 34.4403 191.119 34.3349 190.557 34.3349C189.319 34.3232 188.515 35.096 188.515 36.1499ZM196.277 34.3934H195.434V34.8384C195.153 34.5105 194.757 34.3232 194.234 34.3232C193.149 34.3232 192.319 35.096 192.319 36.1616C192.319 37.2272 193.162 38 194.234 38C194.796 38 195.191 37.8126 195.434 37.4848V37.9297H196.277V34.3934ZM193.2 36.1499C193.2 35.5293 193.634 35.0141 194.362 35.0141C195.038 35.0141 195.523 35.4941 195.523 36.1499C195.523 36.7705 195.038 37.2857 194.362 37.2857C193.634 37.2506 193.2 36.7822 193.2 36.1499ZM183.153 34.3232C182.03 34.3232 181.238 35.0609 181.238 36.1616C181.238 37.2623 182.043 38 183.204 38C183.766 38 184.328 37.8478 184.762 37.5199L184.366 36.9696C184.047 37.192 183.651 37.3326 183.243 37.3326C182.719 37.3326 182.209 37.1101 182.081 36.4895H184.915V36.1967C184.953 35.0492 184.238 34.3232 183.153 34.3232ZM183.153 34.9789C183.677 34.9789 184.034 35.2717 184.111 35.822H182.106C182.196 35.3536 182.553 34.9789 183.153 34.9789ZM204 33H203.157V34.8384C202.877 34.5105 202.481 34.3232 201.957 34.3232C200.872 34.3232 200.043 35.096 200.043 36.1616C200.043 37.2272 200.885 38 201.957 38C202.519 38 202.915 37.8126 203.157 37.4848V37.9297H204V33ZM200.911 36.1499C200.911 35.5293 201.345 35.0141 202.072 35.0141C202.749 35.0141 203.234 35.4941 203.234 36.1499C203.234 36.7705 202.749 37.2857 202.072 37.2857C201.357 37.2506 200.911 36.7822 200.911 36.1499ZM172.838 34.3934H171.996V34.8384C171.715 34.5105 171.319 34.3232 170.796 34.3232C169.711 34.3232 168.881 35.096 168.881 36.1616C168.881 37.2272 169.723 38 170.796 38C171.357 38 171.753 37.8126 171.996 37.4848V37.9297H172.838V34.3934ZM169.723 36.1499C169.723 35.5293 170.157 35.0141 170.885 35.0141C171.562 35.0141 172.047 35.4941 172.047 36.1499C172.047 36.7705 171.562 37.2857 170.885 37.2857C170.157 37.2506 169.723 36.7822 169.723 36.1499Z" fill="#000008"/>
<rect x="0.5" y="-0.5" width="69" height="45" rx="11.5" transform="matrix(1 0 0 -1 148 93)" stroke="#F5F7F9"/>
<g clip-path="url(#clip0_2286_43731)">
<path fill-rule="evenodd" clip-rule="evenodd" d="M166.38 72.9453L170.085 75.28V79.6116L166.363 86.0007L166.38 72.9453Z" fill="#62B22F"/>
<path fill-rule="evenodd" clip-rule="evenodd" d="M163.307 71.0977L167.004 73.152L156.029 79.54L159.612 73.2911L163.307 71.0977Z" fill="#974995"/>
<path fill-rule="evenodd" clip-rule="evenodd" d="M180.547 65.1958L173.484 65.1621L170.082 63.2019L166.385 57L180.547 65.1958Z" fill="#EE7024"/>
<path fill-rule="evenodd" clip-rule="evenodd" d="M166.386 57L170.083 63.2019L170.091 71.7476L166.363 70.656L166.386 57Z" fill="#FBB61B"/>
<path fill-rule="evenodd" clip-rule="evenodd" d="M156 63.2383L159.624 69.5527L159.612 73.291L156.03 79.5399L156 63.2383Z" fill="#5A58A3"/>
<path fill-rule="evenodd" clip-rule="evenodd" d="M156 63.2383L180.492 77.6012L173.473 77.6483L159.624 69.5527L156 63.2383Z" fill="#2188CB"/>
<path fill-rule="evenodd" clip-rule="evenodd" d="M173.484 65.1602L180.547 65.1939L170.093 71.3538L170.082 67.147L173.484 65.1602Z" fill="#DA0954"/>
<path fill-rule="evenodd" clip-rule="evenodd" d="M193.853 66.1804C194.712 65.4295 195.889 65.051 197.046 65.0858C198.255 65.0622 199.473 65.141 200.676 65.0039C200.415 65.7692 199.887 66.4321 199.535 67.1646C198.668 67.18 197.8 67.1493 196.935 67.1779C195.821 67.2649 194.76 68.1294 194.651 69.2169C195.664 68.2491 197.249 68.1836 198.562 68.5018C199.442 68.7882 200.225 69.4205 200.545 70.2717C200.839 71.0196 200.887 71.8411 200.695 72.6176C200.404 73.6826 199.51 74.5072 198.457 74.897C197.214 75.3451 195.785 75.3686 194.548 74.8939C193.374 74.4356 192.543 73.3716 192.259 72.2043C191.949 71.1659 191.99 69.6282 192.308 68.5724C192.584 67.6618 193.125 66.8209 193.853 66.1804ZM196.859 70.2359C196.198 70.1101 195.454 70.3689 195.111 70.9254C194.489 71.9362 195.344 73.4453 196.739 73.255C198.261 73.0483 198.657 70.6963 196.859 70.2359ZM187.024 67.6219C188.392 67.2997 189.957 67.3938 191.126 68.2112C190.739 68.8087 190.39 69.4266 190.036 70.0415C189.465 69.8594 188.91 69.5699 188.292 69.5842C187.636 69.5648 186.927 69.8103 186.554 70.3505C186.157 70.9224 186.138 71.7081 186.524 72.2912C186.868 72.8417 187.544 73.0964 188.185 73.1537C188.686 73.0995 189.195 73.032 189.658 72.8284C189.769 72.7619 189.897 72.7649 190.023 72.7731C190.249 73.3931 190.745 73.9057 190.94 74.5328C189.679 75.1784 188.177 75.3103 186.796 74.9891C185.845 74.721 184.939 74.1993 184.395 73.387C183.533 72.1204 183.566 70.329 184.556 69.1361C185.153 68.3647 186.065 67.8624 187.024 67.6219ZM202.024 67.6547C204.683 67.6363 207.343 67.6352 210.001 67.6547C209.977 70.0753 209.992 72.4979 209.994 74.9185C209.1 74.9226 208.204 74.9246 207.31 74.9185C207.351 73.3297 207.268 71.7429 207.32 70.1592C207.325 70.0354 207.295 69.9208 207.232 69.8144C206.415 69.8318 205.597 69.8328 204.78 69.8144C204.729 71.5127 204.77 73.2151 204.76 74.9154C203.849 74.9308 202.939 74.9226 202.029 74.9195C202.03 72.4979 202.041 70.0773 202.024 67.6567V67.6547Z" fill="#1B1537"/>
<path fill-rule="evenodd" clip-rule="evenodd" d="M170.085 79.6099L173.473 77.6486L180.491 77.6016L166.363 85.9989L170.085 79.6099Z" fill="#037F37"/>
</g>
<rect x="0.5" y="-0.5" width="69" height="43" rx="11.5" transform="matrix(1 0 0 -1 74 43)" stroke="#F5F7F9"/>
<path fill-rule="evenodd" clip-rule="evenodd" d="M82 15.0095C83.6542 15.0143 85.3068 15.0111 86.9626 15.0095C87.7406 15 88.5217 15.4009 88.9464 16.0569C89.3425 16.6178 89.493 17.2975 89.6879 17.9456C90.2869 19.9626 90.8763 21.9828 91.4768 23.9999C91.4863 24.1821 91.7573 24.2518 91.8096 24.0585C92.4227 22.0224 93.0138 19.98 93.6222 17.9424C93.8314 17.2246 94.0104 16.4609 94.4968 15.8715C94.809 15.4896 95.2463 15.2171 95.7232 15.0903C96.1289 14.9778 96.5519 15.0206 96.9671 15.0143C98.4184 15.019 99.8714 15.0016 101.324 15.0238C101.315 20.0894 101.329 25.1566 101.316 30.2222C99.7462 30.2127 98.1744 30.2364 96.6026 30.2095C96.6026 27.237 96.609 24.2661 96.5995 21.2936C96.5899 21.029 96.1526 21.0512 96.1225 21.2999C95.1877 24.2692 94.2449 27.2354 93.3243 30.2079C92.2152 30.2332 91.1045 30.2127 89.9937 30.2174C89.0605 27.2481 88.1335 24.2772 87.1892 21.3126C87.1496 21.067 86.8596 21.0591 86.7043 21.2017C86.7075 24.2043 86.7012 27.2069 86.7075 30.2095C85.1389 30.2285 83.5702 30.2095 82.0016 30.219C82.0016 25.1486 82.0016 20.0799 82.0016 15.0095H82ZM103.467 15.019C105.034 14.9952 106.604 15.0317 108.171 15C108.196 18.0074 108.174 21.0163 108.182 24.0236C108.317 24.1441 108.562 24.1805 108.645 23.9825C109.689 21.7943 110.728 19.6029 111.771 17.4148C112.102 16.735 112.37 15.9982 112.909 15.4484C113.149 15.2202 113.45 15 113.799 15.0143C115.398 15.0143 116.997 15.0048 118.595 15.019C118.597 20.083 118.597 25.147 118.595 30.2111C117.027 30.2237 115.458 30.2222 113.888 30.2111C113.888 27.2116 113.894 24.2106 113.885 21.2112C113.881 20.9529 113.444 20.9751 113.4 21.2064C112.416 23.3772 111.437 25.5495 110.454 27.7187C110.152 28.3778 109.865 29.056 109.413 29.6296C109.161 29.9496 108.795 30.2364 108.367 30.2174C106.734 30.2174 105.099 30.219 103.465 30.2174C103.465 25.1518 103.467 20.0862 103.465 15.0206L103.467 15.019ZM120.891 21.9591C125.819 21.9258 130.747 21.9591 135.674 21.9432C135.508 22.6214 135.069 23.2061 134.605 23.7163C133.688 24.7113 132.371 25.3182 131.016 25.3546C129.216 25.3641 127.416 25.3546 125.616 25.3594C125.605 26.9803 125.616 28.5996 125.611 30.2206C124.041 30.2142 122.471 30.2253 120.899 30.2142C120.891 27.4636 120.907 24.7129 120.891 21.9606V21.9591Z" fill="#3DA536"/>
<path fill-rule="evenodd" clip-rule="evenodd" d="M120.295 15.0172C123.976 15.0125 127.658 15.0093 131.339 15.0141C132.304 15.0838 133.237 15.4752 134.002 16.063C135.113 16.9281 135.862 18.2559 135.986 19.6614C136.015 20.1684 136.005 20.6786 135.929 21.1809C133.673 21.1936 131.418 21.1809 129.162 21.1841C128.387 21.1777 127.609 21.2157 126.84 21.1017C125.109 20.8814 123.401 20.1605 122.173 18.8961C121.138 17.8582 120.501 16.4607 120.295 15.0188V15.0172Z" fill="#008CD2"/>
<rect x="0.5" y="-0.5" width="69" height="43" rx="11.5" transform="matrix(1 0 0 -1 222 43)" stroke="#F5F7F9"/>
<path d="M265.002 25.5255C265.478 25.7204 265.681 26.3699 265.681 26.6947C265.749 27.2143 265.614 27.4742 265.41 27.4742C265.206 27.4742 264.934 27.2793 264.663 26.8246C264.391 26.3699 264.255 25.9152 264.391 25.6554C264.595 25.5255 264.799 25.4605 265.002 25.5255Z" fill="#F28A1A"/>
<path d="M262.217 27.5391C262.488 27.5391 262.828 27.669 263.167 27.9288C263.711 28.3835 263.914 28.9031 263.643 29.2929C263.507 29.4877 263.167 29.6177 262.896 29.6177C262.556 29.6177 262.217 29.4877 262.013 29.2929C261.47 28.8382 261.334 28.1886 261.673 27.7989C261.741 27.669 261.945 27.5391 262.217 27.5391Z" fill="#F28A1A"/>
<path d="M255.767 32.671C248.704 32.671 243 27.2147 243 20.5242C243 13.8338 248.704 8.3125 255.767 8.3125C262.829 8.3125 268.534 13.7688 268.534 20.5242C268.534 22.7977 267.855 24.9412 266.768 26.76C266.7 26.825 266.632 26.825 266.632 26.6951C266.157 23.7071 264.255 22.0832 261.539 21.5635C261.267 21.4986 261.267 21.3687 261.607 21.3687C262.49 21.3037 263.644 21.3037 264.323 21.4336C264.391 21.1088 264.391 20.7841 264.391 20.5242C264.391 16.1072 260.588 12.4697 255.971 12.4697C251.353 12.4697 247.55 16.1072 247.55 20.5242C247.55 24.9412 251.353 28.5788 255.971 28.5788H256.378C256.242 27.8643 256.174 27.1497 256.242 26.3703C256.242 25.8506 256.378 25.7857 256.582 26.1754C257.736 28.1241 259.434 29.8129 262.693 30.5275C265.342 31.1121 267.99 31.7616 270.91 35.2043C271.182 35.5291 270.775 35.8539 270.503 35.594C267.583 33.1257 264.934 32.2813 262.49 32.2813C259.434 32.3462 257.6 32.671 255.767 32.671Z" fill="#F28A1A"/>
<defs>
<clipPath id="clip0_2286_43731">
<rect width="54" height="29" fill="white" transform="translate(156 57)"/>
</clipPath>
</defs>
</svg>
