<svg id="svg-repeat" viewBox="0 -1 18 18" fill="currentColor" xmlns="http://www.w3.org/2000/svg">
<path d="M14.142 9.33265H16.7132H17.9997L15.4286 5.33203L12.8574 9.33265H14.142Z"/>
<path d="M3.85767 6.66016H1.28652H0L2.57115 10.6608L5.1423 6.66016H3.85767Z"/>
<path d="M8.99972 14.0009C7.7132 14.0009 5.77868 13.3329 5.14205 12.3327L3.85742 13.6669C5.14205 15.0011 7.07846 15.9993 8.99972 15.9993C13.4997 15.9993 16.7132 12.3327 16.7132 8H14.7862C14.7892 8.78893 14.6416 9.57067 14.3519 10.3001C14.0621 11.0296 13.636 11.6924 13.0981 12.2503C12.5602 12.8081 11.9211 13.25 11.2177 13.5505C10.5143 13.851 9.76046 14.004 8.99972 14.0009Z"/>
<path d="M8.99958 1.99834C10.2861 1.99834 12.2206 2.66642 12.8572 3.66658L14.1419 2.33239C12.8572 1.00015 10.9284 0 8.99958 0C4.49959 0 1.28613 3.6764 1.28613 7.99927H3.21307C3.21007 7.21035 3.35769 6.42861 3.64742 5.69913C3.93715 4.96966 4.36327 4.30688 4.9012 3.74902C5.43912 3.19116 6.07822 2.74926 6.78163 2.44879C7.48503 2.14832 8.23884 1.99523 8.99958 1.99834Z"/>
</svg>
