<svg id="svg-self-delivery" viewBox="0 -0.5 22 22" fill="none" xmlns="http://www.w3.org/2000/svg">
<path d="M11.209 16.6542L21.1131 14.0004M1 1.19219L1.16355 1.1483C2.63605 0.753714 4.14968 1.62764 4.54413 3.10014L7.62094 14.5827M15.0992 8.53496L14.0883 4.762M14.0883 4.762L13.0525 6.55594M14.0883 4.762L15.8822 5.79768M19.4632 4.06998L20.1001 6.44691C20.692 8.65573 19.3812 10.9261 17.1724 11.5179L14.7953 12.1549C12.5865 12.7467 10.3161 11.4359 9.72432 9.22712L9.08737 6.85005C8.49556 4.64123 9.8063 2.37086 12.0151 1.77904L14.3922 1.14209C16.601 0.550276 18.8714 1.86116 19.4632 4.06998Z" stroke="currentColor" stroke-width="1.2" stroke-linecap="round" stroke-linejoin="round"/>
<path d="M9.13724 20.2411C10.7001 19.8224 11.6275 18.216 11.2088 16.6531C10.79 15.0903 9.18361 14.1629 7.62078 14.5816C6.05794 15.0004 5.13049 16.6068 5.54925 18.1696C5.96801 19.7324 7.57441 20.6599 9.13724 20.2411Z" stroke="currentColor" stroke-width="1.2"/>
</svg>
