<svg width="54" height="29" viewBox="0 0 54 29" fill="none" xmlns="http://www.w3.org/2000/svg">
<g clip-path="url(#clip0_101_16643)">
<path fill-rule="evenodd" clip-rule="evenodd" d="M10.3804 15.9453L14.0853 18.28V22.6116L10.3633 29.0007L10.3804 15.9453Z" fill="#62B22F"/>
<path fill-rule="evenodd" clip-rule="evenodd" d="M7.30735 14.0996L11.0048 16.1539L0.0297852 22.542L3.612 16.2931L7.30735 14.0996Z" fill="#974995"/>
<path fill-rule="evenodd" clip-rule="evenodd" d="M24.5471 8.19583L17.4841 8.16207L14.0823 6.20186L10.3848 0L24.5471 8.19583Z" fill="#EE7024"/>
<path fill-rule="evenodd" clip-rule="evenodd" d="M10.3847 0L14.0822 6.20186L14.0897 14.7476L10.3623 13.656L10.3847 0Z" fill="#FBB61B"/>
<path fill-rule="evenodd" clip-rule="evenodd" d="M0 6.24023L3.62384 12.5546L3.6121 16.2929L0.0298873 22.5419L0 6.24023Z" fill="#5A58A3"/>
<path fill-rule="evenodd" clip-rule="evenodd" d="M0 6.24023L24.4916 20.6031L17.4734 20.6502L3.62384 12.5546L0 6.24023Z" fill="#2188CB"/>
<path fill-rule="evenodd" clip-rule="evenodd" d="M17.4839 8.16211L24.5469 8.19587L14.0927 14.3558L14.082 10.1489L17.4839 8.16211Z" fill="#DA0954"/>
<path fill-rule="evenodd" clip-rule="evenodd" d="M37.8525 9.18044C38.7117 8.4295 39.888 8.05097 41.0451 8.08575C42.2545 8.06222 43.4724 8.141 44.6753 8.00391C44.4149 8.76916 43.8865 9.43211 43.5343 10.1646C42.6675 10.18 41.7997 10.1493 40.9341 10.1779C39.8208 10.2649 38.7598 11.1294 38.6509 12.2169C39.6639 11.2491 41.249 11.1836 42.5619 11.5018C43.4414 11.7882 44.2249 12.4205 44.544 13.2717C44.8386 14.0196 44.8867 14.8411 44.6945 15.6176C44.4031 16.6826 43.5097 17.5072 42.4562 17.897C41.2137 18.3451 39.7845 18.3686 38.5474 17.8939C37.3732 17.4356 36.5428 16.3716 36.2589 15.2043C35.9482 14.1659 35.9899 12.6282 36.3079 11.5724C36.5833 10.6618 37.1245 9.82088 37.8525 9.18044ZM40.8583 13.2359C40.1976 13.1101 39.4536 13.3689 39.111 13.9254C38.4887 14.9362 39.3436 16.4453 40.7387 16.255C42.2609 16.0483 42.6569 13.6963 40.8583 13.2359ZM31.0232 10.6219C32.3916 10.2997 33.9565 10.3938 35.1253 11.2112C34.7389 11.8087 34.3898 12.4266 34.0354 13.0415C33.4644 12.8594 32.9093 12.5699 32.2913 12.5842C31.6359 12.5648 30.9261 12.8103 30.5536 13.3505C30.1565 13.9224 30.1373 14.7081 30.5237 15.2912C30.8674 15.8417 31.5431 16.0964 32.1846 16.1537C32.6852 16.0995 33.1943 16.032 33.6576 15.8284C33.7686 15.7619 33.8967 15.7649 34.0226 15.7731C34.2489 16.3931 34.7442 16.9057 34.9395 17.5328C33.6789 18.1784 32.176 18.3103 30.7959 17.9891C29.8448 17.721 28.9386 17.1993 28.3942 16.387C27.5328 15.1204 27.5659 13.329 28.5554 12.1361C29.1521 11.3647 30.0647 10.8624 31.0232 10.6219ZM46.0235 10.6547C48.6824 10.6363 51.3423 10.6352 54.0002 10.6547C53.9767 13.0753 53.9916 15.4979 53.9938 17.9185C53.0993 17.9226 52.2037 17.9246 51.3093 17.9185C51.3509 16.3297 51.2676 14.7429 51.3199 13.1592C51.3242 13.0354 51.2943 12.9208 51.2313 12.8144C50.4148 12.8318 49.5961 12.8328 48.7795 12.8144C48.7283 14.5127 48.7699 16.2151 48.7592 17.9154C47.8487 17.9308 46.9382 17.9226 46.0288 17.9195C46.0299 15.4979 46.0405 13.0773 46.0235 10.6567V10.6547Z" fill="#1B1537"/>
<path fill-rule="evenodd" clip-rule="evenodd" d="M14.0853 22.6118L17.4733 20.6506L24.4914 20.6035L10.3633 29.0009L14.0853 22.6118Z" fill="#037F37"/>
</g>
<defs>
<clipPath id="clip0_101_16643">
<rect width="54" height="29" fill="white"/>
</clipPath>
</defs>
</svg>
