<svg id="svg-split" viewBox="0 0 14 14" fill="none" xmlns="http://www.w3.org/2000/svg">
<path d="M9.01803 5.4025L8.9527 5.31358C12.2844 2.6238 11.9142 2.22367 11.9142 2.22367C11.5876 1.868 11.2392 1.55678 10.869 1.29003C10.3464 0.912127 9.78018 0.600913 9.17046 0.400847C6.64445 -0.532795 3.63938 0.200781 1.83198 2.22367C-0.585145 4.86899 -0.628697 9.07038 1.8102 11.7602C4.37976 14.5833 8.75672 14.7611 11.5223 12.1603L11.5658 12.1158L11.6094 12.0714L11.6311 12.0491C11.6747 12.0047 11.7182 11.9602 11.74 11.9158C12.5239 10.8932 11.348 8.11451 9.01803 5.4025ZM11.1521 11.4045C10.9779 11.5823 10.2375 11.6045 9.0398 10.9599C7.92923 10.3597 6.68801 9.33713 5.51211 8.09228C5.31612 8.24788 8.58251 5.6248 8.43008 5.75817C9.45354 6.95857 10.3246 8.27011 10.7819 9.35936C11.3263 10.6264 11.3045 11.2489 11.1521 11.4045Z" fill="white" fill-opacity="0.98"/>
</svg>
