<svg width="70" height="19" viewBox="0 0 70 19" fill="none" xmlns="http://www.w3.org/2000/svg">
<path d="M26.6604 16.8304C24.8955 16.8304 23.5029 16.1923 22.4826 14.9162C21.4623 13.6263 20.9521 11.8149 20.9521 9.48214C20.9521 7.20425 21.4554 5.40663 22.4619 4.08929C23.4822 2.77195 24.9438 2.11328 26.8465 2.11328C27.5083 2.11328 28.1012 2.20934 28.6251 2.40145C29.1491 2.57984 29.5765 2.78567 29.9074 3.01895V5.01554C29.5351 4.78226 29.0939 4.56271 28.5838 4.35687C28.0736 4.15104 27.5359 4.04812 26.9706 4.04812C25.7572 4.04812 24.8748 4.4941 24.3233 5.38604C23.7718 6.27799 23.496 7.64336 23.496 9.48214C23.496 11.266 23.7718 12.6177 24.3233 13.5371C24.8748 14.4427 25.7159 14.8956 26.8465 14.8956C27.5083 14.8956 28.0805 14.7995 28.5631 14.6074C29.0457 14.4016 29.4938 14.1477 29.9074 13.8458V15.8424C29.5903 16.062 29.1629 16.2815 28.6251 16.5011C28.0874 16.7206 27.4325 16.8304 26.6604 16.8304Z" fill="black"/>
<path d="M31.4644 6.27113H39.5717V16.6246H37.1105V8.20597H33.9255V16.6246H31.4644V6.27113Z" fill="black"/>
<path d="M40.8165 14.5045C40.8165 14.5045 40.8647 14.5388 40.9612 14.6074C41.0578 14.6623 41.1956 14.6897 41.3749 14.6897C41.7747 14.6897 42.0367 14.4839 42.1608 14.0722C42.2849 13.6606 42.3676 12.9059 42.409 11.8081L42.6158 6.27113H49.6683V16.6246H47.2072V8.20597H44.7047L44.5599 11.911C44.5047 13.6263 44.291 14.875 43.9188 15.6572C43.5465 16.4393 42.8364 16.8304 41.7885 16.8304C41.499 16.8304 41.2646 16.7961 41.0853 16.7275C40.9061 16.6589 40.8165 16.6246 40.8165 16.6246V14.5045Z" fill="black"/>
<path d="M51.7423 6.27113H54.1414V12.6726L57.9469 6.27113H60.0771V16.6246H57.678V10.2231L53.8726 16.6246H51.7423V6.27113Z" fill="black"/>
<path d="M69.7755 8.20597H66.88V16.6246H64.4189V8.20597H61.5234V6.27113H69.7755V8.20597Z" fill="black"/>
<g clip-path="url(#clip0_101_16676)">
<path d="M9.57556 9.54594L16.2814 16.3802L16.1446 16.5042L16.0868 16.5586C14.2091 18.2256 11.7487 19.0919 9.23552 18.971C6.7223 18.8501 4.35731 17.7518 2.64986 15.9124C0.942406 14.0731 0.029095 11.6399 0.106611 9.13694C0.184127 6.63397 1.24627 4.26141 3.0643 2.53021C4.9335 0.827787 7.40137 -0.0731602 9.93331 0.0225385C12.4652 0.118237 14.8574 1.20288 16.5914 3.04149L9.57556 9.54594Z" fill="#01B94F"/>
<path d="M3.07043 2.52706C4.93936 0.826127 7.4063 -0.0736369 9.93701 0.0226246C12.4677 0.118886 14.8584 1.20342 16.5915 3.04136C16.5915 3.04136 11.0134 8.23888 10.901 8.32964C10.901 8.32964 9.65161 9.50044 9.66073 9.51859C9.66985 9.53675 16.2693 16.3528 16.2693 16.3528L16.1355 16.4799L16.0777 16.5343C12.1382 19.9832 6.10112 19.8259 2.53543 15.9898C0.823069 14.1289 -0.0814489 11.6702 0.0187495 9.14882C0.118948 6.62746 1.21575 4.24754 3.07043 2.52706Z" fill="url(#paint0_radial_101_16676)"/>
<path d="M3.07326 2.51987C4.94368 0.821184 7.41075 -0.0765346 9.94099 0.0208414C12.4712 0.118217 14.8613 1.20286 16.5943 3.04023C16.5943 3.04023 11.1652 8.12278 10.9433 8.30127C10.9433 8.30127 9.72739 9.45695 9.74867 9.49325C9.79427 9.60216 16.2599 16.3214 16.2599 16.3214L16.1262 16.4485L16.0684 16.5029C12.138 19.9458 6.09787 19.7763 2.54434 15.9523C0.834542 14.0966 -0.0692431 11.6436 0.0298247 9.12771C0.128893 6.61181 1.22279 4.23677 3.07326 2.51987Z" fill="url(#paint1_radial_101_16676)"/>
<path d="M3.07937 2.51745C4.94988 0.820998 7.41585 -0.0750447 9.94462 0.0228845C12.4734 0.120814 14.8619 1.20485 16.5943 3.04084C16.5943 3.04084 11.3203 8.0054 10.9798 8.27466C10.9798 8.27466 9.80646 9.41218 9.82774 9.46664C9.89765 9.63 16.2478 16.2948 16.2478 16.2948L16.111 16.4219L16.0533 16.4733C12.1349 19.907 6.0979 19.7316 2.55045 15.9166C0.843413 14.0661 -0.058997 11.6188 0.0400918 9.10855C0.139181 6.59835 1.23173 4.22902 3.07937 2.51745Z" fill="url(#paint2_radial_101_16676)"/>
<path d="M3.08292 2.51458C4.95366 0.819424 7.41921 -0.0755171 9.94724 0.0229719C12.4753 0.121461 14.863 1.20548 16.5949 3.04098C16.5949 3.04098 11.4728 7.88151 11.0199 8.24758C11.0199 8.24758 9.88297 9.36998 9.91337 9.44258C10.0046 9.66041 16.2362 16.2677 16.2362 16.2677L16.1024 16.3918C16.1024 16.3918 16.0447 16.4432 16.0447 16.4462C12.1355 19.8679 6.09841 19.6803 2.56008 15.8805C0.855786 14.0356 -0.0458152 11.5945 0.0521456 9.09023C0.150106 6.58599 1.23967 4.22204 3.08292 2.51458Z" fill="url(#paint3_radial_101_16676)"/>
<path d="M3.08886 2.50882C4.96007 0.816278 7.42475 -0.0764599 9.95132 0.0231483C12.4779 0.122756 14.8639 1.20673 16.5947 3.04128C16.5947 3.04128 11.6277 7.77289 11.0592 8.22064C11.0592 8.22064 9.95882 9.32488 9.9953 9.41564C10.1108 9.68792 16.2269 16.2378 16.2239 16.2408L16.0901 16.3648L16.0323 16.4193C12.1323 19.8258 6.09827 19.6352 2.56906 15.8445C0.86771 14.0043 -0.0326282 11.5687 0.0647714 9.06992C0.162171 6.57113 1.24939 4.21229 3.08886 2.50882Z" fill="url(#paint4_radial_101_16676)"/>
<path d="M3.09161 2.50594C4.96305 0.814707 7.42729 -0.0769304 9.95313 0.0232373C12.479 0.123405 14.8641 1.20736 16.5944 3.04143C16.5944 3.04143 11.7794 7.65808 11.0985 8.18448C11.0985 8.18448 10.0345 9.27058 10.0801 9.37949C10.2169 9.70623 16.2144 16.1986 16.2144 16.1986L16.0807 16.3529L16.0229 16.4043C12.1289 19.7866 6.09798 19.59 2.57484 15.8083C0.876625 13.9734 -0.0223724 11.5438 0.0744686 9.05097C0.17131 6.55814 1.25611 4.2049 3.09161 2.50594Z" fill="url(#paint5_radial_101_16676)"/>
<path d="M3.09756 2.50307C4.96924 0.813137 7.43305 -0.0774002 9.95816 0.0233269C12.4833 0.124054 14.8676 1.20798 16.5973 3.04157C16.5973 3.04157 11.9343 7.54326 11.1409 8.18463C11.1409 8.18463 10.1104 9.25257 10.1621 9.37963C10.3353 9.7457 16.2052 16.1836 16.2022 16.1836L16.0684 16.3076L16.0107 16.3621C12.1288 19.7474 6.09785 19.5417 2.58384 15.7722C0.887987 13.9428 -0.010175 11.5191 0.0861169 9.03197C0.182409 6.54484 1.2653 4.19709 3.09756 2.50307Z" fill="url(#paint6_radial_101_16676)"/>
<path d="M3.10056 2.49685C4.97285 0.808606 7.43645 -0.0803015 9.96084 0.0215511C12.4852 0.123404 14.8684 1.20787 16.5973 3.04141C16.5973 3.04141 12.0862 7.42511 11.1804 8.14211C11.1804 8.14211 10.1863 9.19492 10.2471 9.35224C10.4295 9.78789 16.193 16.1683 16.1899 16.1683C16.1869 16.1683 16.0653 16.2863 16.0562 16.2923L15.9984 16.3438C12.1257 19.7079 6.09476 19.4962 2.58987 15.7478C0.892454 13.923 -0.00729211 11.502 0.0884746 9.01708C0.184241 6.5322 1.26768 4.18688 3.10056 2.49685Z" fill="url(#paint7_radial_101_16676)"/>
<path d="M3.10708 2.49445C4.97945 0.808432 7.44195 -0.078806 9.96487 0.023599C12.4878 0.126004 14.8695 1.20987 16.5977 3.04204C16.5977 3.04204 12.2417 7.31077 11.2203 8.11551C11.2203 8.11551 10.2628 9.15017 10.3327 9.32564C10.5364 9.81574 16.1813 16.1387 16.1813 16.1417L16.0475 16.2657L15.9898 16.3172C12.1262 19.6813 6.0952 19.4605 2.61463 15.7121C0.919177 13.8942 0.0186068 11.4805 0.110954 9.0018C0.203301 6.52314 1.281 4.18245 3.10708 2.49445Z" fill="url(#paint8_radial_101_16676)"/>
<path d="M3.10983 2.48963C4.98243 0.804913 7.4445 -0.0812264 9.96669 0.0217378C12.4889 0.124702 14.8698 1.20855 16.5974 3.04024C16.5974 3.04024 12.3934 7.19099 11.2474 8.08649C11.2474 8.08649 10.3354 9.10602 10.4023 9.29662C10.6394 9.8321 16.1719 16.0976 16.1688 16.1006L16.0351 16.2216C16.0351 16.2216 15.9834 16.27 15.9773 16.276C12.1228 19.6281 6.09491 19.3982 2.60218 15.671C1.76582 14.7723 1.11552 13.7185 0.688394 12.5697C0.26127 11.4209 0.0656939 10.1997 0.112834 8.97566C0.159974 7.75165 0.448906 6.54886 0.963133 5.43598C1.47736 4.3231 2.20681 3.32193 3.10983 2.48963Z" fill="url(#paint9_radial_101_16676)"/>
<path d="M3.116 2.4839C4.98907 0.801784 7.45027 -0.0821592 9.971 0.0219232C12.4917 0.126006 14.8709 1.20981 16.5975 3.04056C16.5975 3.04056 12.5485 7.07635 11.2992 8.05958C11.2992 8.05958 10.4146 9.06399 10.4997 9.26971C10.749 9.87478 16.1598 16.0797 16.1598 16.0828L16.0261 16.2038L15.9683 16.2552C12.1199 19.5891 6.09501 19.3531 2.61444 15.629C0.929773 13.8195 0.0362166 11.4181 0.130275 8.95306C0.224333 6.48798 1.2983 4.16102 3.116 2.4839Z" fill="url(#paint10_radial_101_16676)"/>
<path d="M3.11918 2.4813C4.99298 0.800306 7.45425 -0.082623 9.97475 0.0220156C12.4953 0.126654 14.8741 1.21052 16.6007 3.04099C16.6007 3.04099 12.7006 6.97392 11.3388 8.03581C11.3388 8.03581 10.4937 9.01904 10.5819 9.24594C10.8555 9.89034 16.1508 16.0499 16.1478 16.0499L16.014 16.1739L15.9563 16.2254C12.12 19.5532 6.09515 19.3112 2.6237 15.5991C1.78997 14.7058 1.14138 13.6577 0.715018 12.5147C0.288655 11.3718 0.0928835 10.1563 0.138903 8.93799C0.184923 7.71964 0.47183 6.52227 0.983214 5.41437C1.4946 4.30648 2.22043 3.30978 3.11918 2.4813Z" fill="url(#paint11_radial_101_16676)"/>
<path d="M3.12498 2.47892C4.99885 0.80014 7.45903 -0.0811239 9.97806 0.0240666C12.4971 0.129257 14.8745 1.21253 16.6004 3.04163C16.6004 3.04163 12.8554 6.84447 11.378 8.00922C11.378 8.00922 10.5695 8.97732 10.6667 9.21935C10.9707 9.92728 16.1384 16.0233 16.1384 16.0263L16.0046 16.1504C16.0046 16.1504 15.953 16.1958 15.9499 16.2018C12.1198 19.5297 6.09791 19.2665 2.63253 15.5665C-0.832849 11.8665 -0.65958 5.89451 3.12498 2.47892Z" fill="url(#paint12_radial_101_16676)"/>
<path d="M3.12816 2.47272C5.00264 0.795623 7.46261 -0.0840154 9.98092 0.0222996C12.4992 0.128615 14.8755 1.21242 16.6006 3.04148C16.6006 3.04148 13.0075 6.7233 11.4329 7.97579C11.4329 7.97579 10.6577 8.92574 10.7641 9.18592C11.0833 9.9483 16.1385 15.9869 16.1385 15.9899L16.0048 16.1109L15.947 16.1623C12.1138 19.469 6.07981 19.2119 2.63875 15.521C-0.802305 11.8301 -0.647276 5.87924 3.12816 2.47272Z" fill="url(#paint13_radial_101_16676)"/>
<path d="M3.13435 2.46838C5.0089 0.793509 7.46778 -0.0844673 9.98463 0.0223993C12.5015 0.129266 14.8763 1.21248 16.6007 3.04017C16.6007 3.04017 13.1627 6.61006 11.4604 7.9533C11.4604 7.9533 10.7217 8.88813 10.8342 9.16343C11.1777 9.97725 16.1113 15.9583 16.1113 15.9613L15.9775 16.0824L15.9198 16.1338C12.1139 19.4284 6.07992 19.1621 2.64494 15.4833C-0.790035 11.8045 -0.635005 5.8628 3.13435 2.46838Z" fill="url(#paint14_radial_101_16676)"/>
<path d="M3.13709 2.46553C5.01187 0.791952 7.47031 -0.0849295 9.98643 0.0224957C12.5025 0.129921 14.8765 1.21312 16.6004 3.04034C16.6004 3.04034 13.3144 6.49526 11.4996 7.92624C11.4996 7.92624 10.7974 8.83384 10.919 9.13637C11.2838 9.99859 16.111 15.9313 16.111 15.9343L15.9803 16.0553L15.9225 16.1067C12.1106 19.3771 6.07962 19.1169 2.65376 15.4442C-0.772098 11.7714 -0.626187 5.85087 3.13709 2.46553Z" fill="url(#paint15_radial_101_16676)"/>
<path d="M3.14367 2.46085C5.01974 0.790411 7.47765 -0.0838843 9.99258 0.024645C12.5075 0.133174 14.8802 1.21593 16.6039 3.04171C16.6039 3.04171 13.4699 6.36957 11.5518 7.90039C11.5518 7.90039 10.886 8.80799 11.0137 9.11052C11.3906 10.0363 16.1115 15.9024 16.0932 15.9054L15.9595 16.0264C15.9417 16.0451 15.9224 16.0623 15.9017 16.0779C12.1111 19.3513 6.08012 19.076 2.66338 15.4123C-0.753358 11.7486 -0.607448 5.83712 3.14367 2.46085Z" fill="url(#paint16_radial_101_16676)"/>
<path d="M3.14662 2.4566C5.02494 0.788673 7.48433 -0.0817988 9.99905 0.0312687C12.5138 0.144336 14.8843 1.23197 16.6038 3.06167C16.6038 3.06167 13.6218 6.26246 11.579 7.88101C11.579 7.88101 10.9498 8.76441 11.0866 9.09114C11.497 10.0744 16.084 15.886 16.081 15.8891C16.0779 15.8921 15.9685 15.9949 15.9472 16.0101L15.8925 16.0615C12.108 19.3107 6.08003 19.0203 2.66937 15.3748C-0.741283 11.7292 -0.607532 5.82077 3.14662 2.4566Z" fill="url(#paint17_radial_101_16676)"/>
<path d="M3.15234 2.45486C5.02999 0.788033 7.48823 -0.0817885 10.0017 0.0312744C12.5152 0.144337 14.8846 1.23132 16.6035 3.05992C16.6035 3.05992 13.7765 6.15483 11.6182 7.85809C11.6182 7.85809 11.0254 8.72334 11.1683 9.06822C11.603 10.1059 16.0746 15.8601 16.0685 15.8631L15.9378 15.9841L15.88 16.0356C12.1046 19.2727 6.07967 18.9762 2.67813 15.3397C-0.723408 11.7033 -0.592697 5.80692 3.15234 2.45486Z" fill="url(#paint18_radial_101_16676)"/>
<path d="M3.15534 2.43657C5.03316 0.771388 7.49057 -0.0973881 10.0031 0.0156569C12.5156 0.128702 14.8842 1.21461 16.6034 3.04163C16.6034 3.04163 13.9284 6.02158 11.6607 7.81258C11.6607 7.81258 11.1014 8.65967 11.2534 9.02271C11.7093 10.1149 16.0623 15.8146 16.0593 15.8176L15.9255 15.9386L15.8678 15.987C12.1045 19.2332 6.07963 18.9276 2.68417 15.3063C-0.711292 11.685 -0.58058 5.79166 3.15534 2.43657Z" fill="url(#paint19_radial_101_16676)"/>
<path d="M3.16177 2.43678C5.03893 0.772702 7.49518 -0.0954247 10.0065 0.0176158C12.5177 0.130656 14.8852 1.21591 16.6038 3.04184C15.0925 4.74726 13.4534 6.33608 11.7006 7.79464C11.7006 7.79464 11.1777 8.6266 11.3388 9.00477C11.8161 10.1514 16.0505 15.7906 16.0475 15.7966L15.9168 15.9146L15.859 15.9661C12.1018 19.1941 6.07998 18.8825 2.69364 15.2702C-0.6927 11.658 -0.571108 5.76464 3.16177 2.43678Z" fill="url(#paint20_radial_101_16676)"/>
<path d="M3.16477 2.43558C5.04227 0.772235 7.49836 -0.0954111 10.0094 0.0176188C12.5205 0.130649 14.8878 1.21541 16.6068 3.04065C15.1167 4.7414 13.4901 6.31876 11.7431 7.75713C11.7431 7.75713 11.2598 8.57094 11.4391 8.96726C11.9407 10.1774 16.0596 15.7531 16.0535 15.7561L15.9228 15.8771L15.8651 15.9285C12.1018 19.1505 6.07994 18.8329 2.69968 15.2327C-0.680584 11.6326 -0.558992 5.76344 3.16477 2.43558Z" fill="url(#paint21_radial_101_16676)"/>
<path d="M3.17072 2.43536C5.04823 0.774572 7.50284 -0.0914676 10.0122 0.021537C12.5215 0.134542 14.8875 1.21767 16.6067 3.04043C15.14 4.7424 13.5246 6.31163 11.7794 7.72969C11.7794 7.72969 11.3326 8.52838 11.5059 8.93982C12.0287 10.2074 16.0291 15.7468 16.0261 15.7468C16.023 15.7468 15.9197 15.8467 15.8923 15.8678L15.8376 15.9162C12.0986 19.111 6.07981 18.7721 2.70867 15.1962C-0.662476 11.6203 -0.550003 5.76323 3.17072 2.43536Z" fill="url(#paint22_radial_101_16676)"/>
<path d="M3.17385 2.43585C5.0512 0.775973 7.50514 -0.0895026 10.0138 0.0234946C12.5224 0.136492 14.8877 1.21905 16.6067 3.04091C15.1638 4.74598 13.5606 6.31011 11.819 7.71202C11.819 7.71202 11.4087 8.49256 11.588 8.92215C12.1382 10.2321 16.0201 15.7049 16.014 15.708L15.8833 15.826L15.8255 15.8774C12.0957 19.0752 6.0799 18.7393 2.71788 15.1604C-0.644144 11.5814 -0.537751 5.73346 3.17385 2.43585Z" fill="url(#paint23_radial_101_16676)"/>
<path d="M3.17692 2.43634C5.05411 0.777375 7.50739 -0.0875376 10.0153 0.0254521C12.5232 0.138442 14.8879 1.22042 16.6068 3.0414C15.1885 4.74946 13.5962 6.30673 11.8556 7.68831C11.8556 7.68831 11.4817 8.45069 11.6701 8.89844C12.2416 10.2629 16.0049 15.6752 16.0019 15.6812L15.8681 15.7992L15.8104 15.8506C12.0957 19.0333 6.07994 18.6914 2.73615 15.1246C-0.607636 11.5577 -0.525561 5.71882 3.17692 2.43634Z" fill="url(#paint24_radial_101_16676)"/>
<path d="M3.18295 2.43536C5.0598 0.778227 7.51176 -0.0855606 10.0182 0.0274141C12.5246 0.140389 14.8881 1.22123 16.6067 3.04043C15.215 4.74907 13.6368 6.29847 11.9011 7.6601C11.9011 7.6601 11.5607 8.40736 11.7582 8.87023C12.3662 10.2891 16.014 15.647 15.9927 15.653L15.862 15.771L15.8042 15.8194C12.0926 18.993 6.07988 18.642 2.73609 15.0873C-0.607693 11.5325 -0.516499 5.70271 3.18295 2.43536Z" fill="url(#paint25_radial_101_16676)"/>
<path d="M3.18566 2.43662C5.06269 0.78112 7.51383 -0.0816291 10.0193 0.0313279C12.5247 0.144285 14.8875 1.22406 16.6064 3.04168C15.2427 4.75403 13.6759 6.29603 11.9403 7.63413C11.9403 7.63413 11.6363 8.36324 11.84 8.84427C12.448 10.3176 15.9863 15.618 15.9802 15.621C15.9741 15.624 15.8799 15.7148 15.8495 15.739L15.7917 15.7904C12.0923 18.9549 6.07956 18.5979 2.73577 15.0522C-0.608012 11.5066 -0.504659 5.68885 3.18566 2.43662Z" fill="url(#paint26_radial_101_16676)"/>
<path d="M3.1917 2.41715C5.07086 0.764852 7.52269 -0.0941747 10.0275 0.0221653C12.5322 0.138505 14.893 1.22107 16.6094 3.04036C16.6094 3.04036 15.1564 5.09759 11.9798 7.60558C11.9798 7.60558 11.7123 8.31956 11.925 8.81571C12.5634 10.3284 15.9741 15.5894 15.971 15.5924L15.8373 15.7104L15.7826 15.7619C12.0892 18.9143 6.07951 18.5482 2.73573 15.0146C-0.608056 11.481 -0.495583 5.6724 3.1917 2.41715Z" fill="url(#paint27_radial_101_16676)"/>
<path d="M3.1949 2.41176C5.075 0.761863 7.52647 -0.0950749 10.0303 0.0223769C12.5341 0.139829 14.8937 1.22245 16.6096 3.04103C16.6096 3.04103 15.3116 4.97119 12.0195 7.57902C11.8968 7.97317 11.8968 8.39501 12.0195 8.78916C12.6821 10.3714 15.9712 15.5568 15.9712 15.5629L15.8405 15.6809L15.7827 15.7293C12.0863 18.8756 6.07968 18.5035 2.75717 14.982C-0.565333 11.4605 -0.483258 5.66097 3.1949 2.41176Z" fill="url(#paint28_radial_101_16676)"/>
<path d="M3.20109 2.40984C5.08057 0.760699 7.53127 -0.0955405 10.0341 0.0224824C12.5369 0.140505 14.8953 1.22352 16.6097 3.04213C16.6097 3.04213 15.4637 4.85733 12.05 7.5408C11.9426 7.93882 11.9542 8.35938 12.0834 8.75093C12.7674 10.4088 15.9531 15.5398 15.947 15.5458L15.8163 15.6638L15.7616 15.7122C12.0864 18.8374 6.07979 18.4713 2.76336 14.9468C-0.553065 11.4223 -0.470991 5.64694 3.20109 2.40984Z" fill="url(#paint29_radial_101_16676)"/>
<path d="M3.20442 2.40506C5.08412 0.75721 7.53438 -0.0979429 10.0365 0.0206373C12.5386 0.139217 14.8961 1.22222 16.61 3.04038C16.61 3.04038 15.619 4.74969 12.0989 7.52694C12.0142 7.92976 12.0405 8.34787 12.1749 8.73707C12.8832 10.4282 15.9442 15.5017 15.9382 15.5077L15.8074 15.6227L15.7497 15.6741C12.0837 18.7963 6.08008 18.406 2.77277 14.9087C-0.586211 11.363 -0.461579 5.63005 3.20442 2.40506Z" fill="url(#paint30_radial_101_16676)"/>
<path d="M3.20998 2.40018C5.09044 0.755635 7.53967 -0.0968721 10.0401 0.0228116C12.5405 0.142495 14.8962 1.22499 16.6094 3.04155C16.6094 3.04155 15.7705 4.62379 12.1379 7.48878C12.0752 7.89591 12.117 8.3122 12.2595 8.69891C12.989 10.4445 15.9316 15.4635 15.9255 15.4666L15.7948 15.5846L15.737 15.633C12.0892 18.7339 6.08563 18.3558 2.77833 14.8524C-0.528981 11.3491 -0.449946 5.6161 3.20998 2.40018Z" fill="url(#paint31_radial_101_16676)"/>
<path d="M3.21326 2.39763C5.09443 0.75419 7.54373 -0.0973178 10.0439 0.0229198C12.5441 0.143157 14.8995 1.22573 16.6127 3.04203C16.6127 3.04203 15.9257 4.50628 12.1807 7.46203C12.1397 7.87263 12.1959 8.28708 12.3448 8.67216C13.0957 10.4964 15.9196 15.4459 15.9136 15.461L15.7828 15.579L15.7281 15.6274C12.0804 18.7163 6.07979 18.3139 2.78769 14.8408C-0.556095 11.3133 -0.437543 5.60145 3.21326 2.39763Z" fill="url(#paint32_radial_101_16676)"/>
<path d="M3.21936 2.39453C5.10025 0.752571 7.54861 -0.097766 10.0476 0.0230317C12.5466 0.143829 14.9006 1.22631 16.6127 3.04195C16.6127 3.04195 16.0777 4.40335 12.2202 7.44683C12.203 7.86018 12.2734 8.2725 12.4269 8.65696C13.2021 10.5236 15.9105 15.4277 15.9045 15.4458L15.7738 15.5608L15.716 15.6092C12.0774 18.6769 6.07982 18.2684 2.79379 14.8014C-0.540876 11.286 -0.428403 5.58625 3.21936 2.39453Z" fill="url(#paint33_radial_101_16676)"/>
<path d="M3.22271 2.38721C5.10452 0.747646 7.55251 -0.100609 10.0505 0.0212994C12.5486 0.143208 14.9014 1.22575 16.613 3.04069C16.613 3.04069 16.2331 4.28409 12.26 7.41833C12.2666 7.83884 12.3522 8.25442 12.5123 8.64359C13.3118 10.5526 15.8987 15.3991 15.8926 15.4052L15.7619 15.5202L15.7072 15.5686C12.0777 18.6362 6.08012 18.2187 2.80321 14.7638C-0.525371 11.2605 -0.415938 5.56986 3.22271 2.38721Z" fill="url(#paint34_radial_101_16676)"/>
<path d="M3.22839 2.38486C5.11125 0.751734 7.55707 -0.0911069 10.0515 0.0335845C12.5459 0.158276 14.8946 1.24078 16.6035 3.05346C16.6035 3.05346 16.3755 4.1698 12.29 7.39177C12.3253 7.81367 12.4279 8.22728 12.594 8.61703C13.4178 10.5835 15.8892 15.3726 15.8831 15.3786L15.7524 15.4936C15.7318 15.5081 15.7125 15.5243 15.6946 15.542C12.0742 18.5976 6.07972 18.168 2.81193 14.7282C-0.510573 11.2339 -0.40722 5.55843 3.22839 2.38486Z" fill="url(#paint35_radial_101_16676)"/>
<path d="M3.23167 2.38077C5.11459 0.747303 7.56079 -0.0954836 10.0555 0.0297839C12.5501 0.155051 14.8987 1.2386 16.6068 3.05239C16.6068 3.05239 16.5339 4.05377 12.3328 7.36348C12.3925 7.78584 12.507 8.1987 12.6733 8.59177C13.5245 10.6036 15.8773 15.3413 15.8712 15.3473L15.7405 15.4623C15.7222 15.4623 15.701 15.4986 15.6827 15.5107C12.0714 18.5572 6.07997 18.1246 2.81826 14.6908C-0.49513 11.2087 -0.394817 5.54224 3.23167 2.38077Z" fill="url(#paint36_radial_101_16676)"/>
<path d="M3.23743 2.3757C5.12176 0.744436 7.5681 -0.0963617 10.0623 0.0300122C12.5565 0.156386 14.9044 1.24009 16.6126 3.05338C16.6126 3.05338 16.6916 3.94888 12.3781 7.34027C12.4665 7.76058 12.5968 8.17104 12.7672 8.56553C13.6336 10.6409 15.8709 15.315 15.8617 15.3211C15.8526 15.3271 15.7736 15.4028 15.731 15.436L15.6763 15.4845C12.0741 18.5249 6.07965 18.0772 2.82706 14.6555C-0.483285 11.1824 -0.382971 5.5281 3.23743 2.3757Z" fill="url(#paint37_radial_101_16676)"/>
<path d="M3.24084 2.37221C5.1256 0.74098 7.57255 -0.0992371 10.067 0.0282776C12.5615 0.155792 14.909 1.2411 16.616 3.05593C16.616 3.05593 16.847 3.82134 12.421 7.31257C12.5347 7.73115 12.6769 8.14153 12.8466 8.54086C13.7373 10.6586 15.856 15.2873 15.8499 15.2934L15.7192 15.4084L15.6615 15.4568C12.0715 18.47 6.08001 18.0283 2.8335 14.6218C-0.46772 11.1547 -0.373486 5.5125 3.24084 2.37221Z" fill="url(#paint38_radial_101_16676)"/>
<path d="M3.24689 2.36889C5.13204 0.738049 7.57922 -0.101643 10.0737 0.0264365C12.5682 0.154516 14.9155 1.24038 16.622 3.05564C16.622 3.05564 16.999 3.70306 12.4636 7.27598C12.4636 7.27598 12.6308 7.78423 12.9348 8.50426C13.8467 10.6885 15.8469 15.2507 15.8408 15.2568L15.7101 15.3718L15.6554 15.4171C12.0684 18.4394 6.07999 17.9826 2.8426 14.5852C-0.45255 11.1272 -0.361356 5.49708 3.24689 2.36889Z" fill="url(#paint39_radial_101_16676)"/>
<path d="M15.8257 15.2392C12.2752 18.4158 6.13783 17.9953 2.84876 14.5374C-0.440308 11.0794 -0.352154 5.46138 3.25001 2.35134C5.13625 0.72197 7.58371 -0.116203 10.078 0.0129941C12.5722 0.142191 14.9191 1.2287 16.6251 3.04414C16.6251 3.04414 17.1632 3.5766 12.5093 7.24632C12.5001 7.25842 15.8378 15.2302 15.8257 15.2392Z" fill="url(#paint40_radial_101_16676)"/>
<path d="M12.3659 7.36133C10.9098 8.55028 9.11937 9.95101 7.03711 11.5212C8.58397 13.186 10.383 14.5998 12.3689 15.7112C14.0743 16.6188 15.4087 16.7883 16.0623 16.2134C16.7158 15.6386 16.6368 14.3135 15.8769 12.583C14.9771 10.6766 13.7934 8.91624 12.3659 7.36133Z" fill="url(#paint41_linear_101_16676)"/>
<path d="M12.4968 7.24219L11.7673 7.84725C13.1031 9.30869 14.2136 10.9593 15.0624 12.7453C15.8072 14.4515 15.789 15.3077 15.5488 15.5225C15.3087 15.7373 14.2721 15.7918 12.6154 14.9174C10.7802 13.8817 9.12039 12.5646 7.69699 11.0148L6.88232 11.6198L7.07383 11.8044C10.524 15.3531 14.2569 17.374 15.8984 16.6389C15.947 16.6147 15.9957 16.5905 16.0413 16.5632H16.0595C16.123 16.524 16.183 16.4795 16.2388 16.4301C16.298 16.3768 16.352 16.3181 16.4 16.2546C17.473 14.8539 15.8437 11.0813 12.5972 7.38438L12.4968 7.24219Z" fill="#84EEB1"/>
</g>
<defs>
<radialGradient id="paint0_radial_101_16676" cx="0" cy="0" r="1" gradientUnits="userSpaceOnUse" gradientTransform="translate(11.9979 1.0766) rotate(-2.27972) scale(43.7622 32.231)">
<stop stop-color="#03BA50"/>
<stop offset="0.8" stop-color="#01B64E"/>
</radialGradient>
<radialGradient id="paint1_radial_101_16676" cx="0" cy="0" r="1" gradientUnits="userSpaceOnUse" gradientTransform="translate(11.9933 1.07195) rotate(-2.27972) scale(43.6709 32.1638)">
<stop stop-color="#04BC50"/>
<stop offset="0.8" stop-color="#01B34D"/>
</radialGradient>
<radialGradient id="paint2_radial_101_16676" cx="0" cy="0" r="1" gradientUnits="userSpaceOnUse" gradientTransform="translate(11.9829 1.08073) rotate(-2.27971) scale(43.5797 32.0966)">
<stop stop-color="#06BD51"/>
<stop offset="0.72" stop-color="#02B24C"/>
<stop offset="0.8" stop-color="#01B04B"/>
</radialGradient>
<radialGradient id="paint3_radial_101_16676" cx="0" cy="0" r="1" gradientUnits="userSpaceOnUse" gradientTransform="translate(11.967 1.09455) rotate(-2.27971) scale(43.4884 32.0294)">
<stop stop-color="#08BF52"/>
<stop offset="0.56" stop-color="#04B44D"/>
<stop offset="0.8" stop-color="#01AD4A"/>
</radialGradient>
<radialGradient id="paint4_radial_101_16676" cx="0" cy="0" r="1" gradientUnits="userSpaceOnUse" gradientTransform="translate(11.9505 1.10797) rotate(-2.27971) scale(43.3971 31.9621)">
<stop stop-color="#0AC053"/>
<stop offset="0.48" stop-color="#05B54E"/>
<stop offset="0.8" stop-color="#01AA49"/>
</radialGradient>
<radialGradient id="paint5_radial_101_16676" cx="0" cy="0" r="1" gradientUnits="userSpaceOnUse" gradientTransform="translate(11.931 1.14082) rotate(-1.71018) scale(43.2878 31.8908)">
<stop stop-color="#0BC253"/>
<stop offset="0.42" stop-color="#07B74E"/>
<stop offset="0.8" stop-color="#01A848"/>
</radialGradient>
<radialGradient id="paint6_radial_101_16676" cx="0" cy="0" r="1" gradientUnits="userSpaceOnUse" gradientTransform="translate(11.9057 1.14923) rotate(-1.71018) scale(43.1966 31.8236)">
<stop stop-color="#0DC354"/>
<stop offset="0.37" stop-color="#08B84F"/>
<stop offset="0.8" stop-color="#01A546"/>
</radialGradient>
<radialGradient id="paint7_radial_101_16676" cx="0" cy="0" r="1" gradientUnits="userSpaceOnUse" gradientTransform="translate(12.2267 1.15751) rotate(-1.71018) scale(43.1053 31.7435)">
<stop stop-color="#0FC555"/>
<stop offset="0.33" stop-color="#0ABA50"/>
<stop offset="0.8" stop-color="#01A245"/>
</radialGradient>
<radialGradient id="paint8_radial_101_16676" cx="0" cy="0" r="1" gradientUnits="userSpaceOnUse" gradientTransform="translate(12.1951 1.17347) rotate(-1.69326) scale(43.4439 31.6764)">
<stop stop-color="#11C656"/>
<stop offset="0.3" stop-color="#0CBB51"/>
<stop offset="0.8" stop-color="#019F44"/>
</radialGradient>
<radialGradient id="paint9_radial_101_16676" cx="0" cy="0" r="1" gradientUnits="userSpaceOnUse" gradientTransform="translate(12.1842 1.1872) rotate(-1.69326) scale(43.3518 31.6092)">
<stop stop-color="#12C856"/>
<stop offset="0.28" stop-color="#0EBD51"/>
<stop offset="0.77" stop-color="#029E44"/>
<stop offset="0.8" stop-color="#019C43"/>
</radialGradient>
<radialGradient id="paint10_radial_101_16676" cx="0" cy="0" r="1" gradientUnits="userSpaceOnUse" gradientTransform="translate(12.1736 1.20848) rotate(-1.69326) scale(43.2565 31.5398)">
<stop stop-color="#14C957"/>
<stop offset="0.26" stop-color="#0FBE52"/>
<stop offset="0.72" stop-color="#049F44"/>
<stop offset="0.8" stop-color="#019941"/>
</radialGradient>
<radialGradient id="paint11_radial_101_16676" cx="0" cy="0" r="1" gradientUnits="userSpaceOnUse" gradientTransform="translate(12.154 1.23463) rotate(-1.69326) scale(43.1644 31.4726)">
<stop stop-color="#16CB58"/>
<stop offset="0.24" stop-color="#11C053"/>
<stop offset="0.66" stop-color="#06A145"/>
<stop offset="0.8" stop-color="#019640"/>
</radialGradient>
<radialGradient id="paint12_radial_101_16676" cx="0" cy="0" r="1" gradientUnits="userSpaceOnUse" gradientTransform="translate(12.1309 1.26331) rotate(-1.69326) scale(43.0723 31.4054)">
<stop stop-color="#18CC59"/>
<stop offset="0.23" stop-color="#13C154"/>
<stop offset="0.62" stop-color="#07A246"/>
<stop offset="0.8" stop-color="#01933F"/>
</radialGradient>
<radialGradient id="paint13_radial_101_16676" cx="0" cy="0" r="1" gradientUnits="userSpaceOnUse" gradientTransform="translate(12.1083 1.29665) rotate(-1.69326) scale(42.977 31.3359)">
<stop stop-color="#19CD59"/>
<stop offset="0.21" stop-color="#15C254"/>
<stop offset="0.59" stop-color="#09A347"/>
<stop offset="0.8" stop-color="#01903E"/>
</radialGradient>
<radialGradient id="paint14_radial_101_16676" cx="0" cy="0" r="1" gradientUnits="userSpaceOnUse" gradientTransform="translate(12.0796 1.33126) rotate(-1.69326) scale(42.8849 31.2688)">
<stop stop-color="#1BCF5A"/>
<stop offset="0.2" stop-color="#17C455"/>
<stop offset="0.56" stop-color="#0BA547"/>
<stop offset="0.8" stop-color="#018D3C"/>
</radialGradient>
<radialGradient id="paint15_radial_101_16676" cx="0" cy="0" r="1" gradientUnits="userSpaceOnUse" gradientTransform="translate(12.0474 1.19997) rotate(-1.12902) scale(42.7824 31.2008)">
<stop stop-color="#1DD05B"/>
<stop offset="0.19" stop-color="#18C556"/>
<stop offset="0.54" stop-color="#0CA648"/>
<stop offset="0.8" stop-color="#018B3B"/>
</radialGradient>
<radialGradient id="paint16_radial_101_16676" cx="0" cy="0" r="1" gradientUnits="userSpaceOnUse" gradientTransform="translate(12.013 1.22863) rotate(-1.12902) scale(42.6871 31.1314)">
<stop stop-color="#1ED25B"/>
<stop offset="0.18" stop-color="#1AC756"/>
<stop offset="0.51" stop-color="#0EA848"/>
<stop offset="0.8" stop-color="#01883A"/>
</radialGradient>
<radialGradient id="paint17_radial_101_16676" cx="0" cy="0" r="1" gradientUnits="userSpaceOnUse" gradientTransform="translate(11.9781 1.25397) rotate(-1.12902) scale(42.595 31.0642)">
<stop stop-color="#20D35C"/>
<stop offset="0.18" stop-color="#1BC857"/>
<stop offset="0.49" stop-color="#0FA949"/>
<stop offset="0.8" stop-color="#018539"/>
</radialGradient>
<radialGradient id="paint18_radial_101_16676" cx="0" cy="0" r="1" gradientUnits="userSpaceOnUse" gradientTransform="translate(11.9369 1.29253) rotate(-1.12902) scale(42.5029 30.997)">
<stop stop-color="#22D55D"/>
<stop offset="0.17" stop-color="#1DCA58"/>
<stop offset="0.47" stop-color="#11AB4A"/>
<stop offset="0.8" stop-color="#018237"/>
</radialGradient>
<radialGradient id="paint19_radial_101_16676" cx="0" cy="0" r="1" gradientUnits="userSpaceOnUse" gradientTransform="translate(11.8898 1.32675) rotate(-1.12902) scale(42.4077 30.9276)">
<stop stop-color="#24D65E"/>
<stop offset="0.16" stop-color="#1FCB59"/>
<stop offset="0.45" stop-color="#13AC4B"/>
<stop offset="0.8" stop-color="#017F36"/>
</radialGradient>
<radialGradient id="paint20_radial_101_16676" cx="0" cy="0" r="1" gradientUnits="userSpaceOnUse" gradientTransform="translate(11.8402 1.36896) rotate(-1.12902) scale(42.3156 30.8604)">
<stop stop-color="#25D85E"/>
<stop offset="0.15" stop-color="#20CD59"/>
<stop offset="0.43" stop-color="#14AE4B"/>
<stop offset="0.79" stop-color="#017D36"/>
<stop offset="0.8" stop-color="#007C35"/>
</radialGradient>
<radialGradient id="paint21_radial_101_16676" cx="0" cy="0" r="1" gradientUnits="userSpaceOnUse" gradientTransform="translate(12.7602 1.41514) rotate(-1.12902) scale(42.2235 30.785)">
<stop stop-color="#27D95F"/>
<stop offset="0.15" stop-color="#22CE5A"/>
<stop offset="0.42" stop-color="#16AF4C"/>
<stop offset="0.77" stop-color="#027E36"/>
<stop offset="0.8" stop-color="#007934"/>
</radialGradient>
<radialGradient id="paint22_radial_101_16676" cx="0" cy="0" r="1" gradientUnits="userSpaceOnUse" gradientTransform="translate(12.4456 1.46381) rotate(-1.11796) scale(42.5453 30.7156)">
<stop stop-color="#29DB60"/>
<stop offset="0.14" stop-color="#24D05B"/>
<stop offset="0.4" stop-color="#18B14D"/>
<stop offset="0.74" stop-color="#048037"/>
<stop offset="0.8" stop-color="#007632"/>
</radialGradient>
<radialGradient id="paint23_radial_101_16676" cx="0" cy="0" r="1" gradientUnits="userSpaceOnUse" gradientTransform="translate(12.4086 1.51863) rotate(-1.11796) scale(42.4522 30.6484)">
<stop stop-color="#2BDC61"/>
<stop offset="0.14" stop-color="#26D15C"/>
<stop offset="0.39" stop-color="#1AB24E"/>
<stop offset="0.71" stop-color="#068138"/>
<stop offset="0.8" stop-color="#007331"/>
</radialGradient>
<radialGradient id="paint24_radial_101_16676" cx="0" cy="0" r="1" gradientUnits="userSpaceOnUse" gradientTransform="translate(12.3715 1.57878) rotate(-1.11795) scale(42.3561 30.579)">
<stop stop-color="#2CDE61"/>
<stop offset="0.13" stop-color="#27D35C"/>
<stop offset="0.37" stop-color="#1BB44E"/>
<stop offset="0.69" stop-color="#088339"/>
<stop offset="0.8" stop-color="#007030"/>
</radialGradient>
<radialGradient id="paint25_radial_101_16676" cx="0" cy="0" r="1" gradientUnits="userSpaceOnUse" gradientTransform="translate(12.3311 1.2749) rotate(-0.55903) scale(42.257 30.5122)">
<stop stop-color="#2EDF62"/>
<stop offset="0.13" stop-color="#29D45D"/>
<stop offset="0.37" stop-color="#1DB54F"/>
<stop offset="0.67" stop-color="#098439"/>
<stop offset="0.8" stop-color="#006E2F"/>
</radialGradient>
<radialGradient id="paint26_radial_101_16676" cx="0" cy="0" r="1" gradientUnits="userSpaceOnUse" gradientTransform="translate(12.2843 1.32351) rotate(-0.559031) scale(42.164 30.445)">
<stop stop-color="#30E163"/>
<stop offset="0.13" stop-color="#2BD65E"/>
<stop offset="0.35" stop-color="#1FB750"/>
<stop offset="0.65" stop-color="#0B8639"/>
<stop offset="0.8" stop-color="#006B2D"/>
</radialGradient>
<radialGradient id="paint27_radial_101_16676" cx="0" cy="0" r="1" gradientUnits="userSpaceOnUse" gradientTransform="translate(12.2378 1.37483) rotate(-0.559031) scale(42.0678 30.3756)">
<stop stop-color="#31E263"/>
<stop offset="0.12" stop-color="#2CD75E"/>
<stop offset="0.34" stop-color="#20B850"/>
<stop offset="0.63" stop-color="#0D873A"/>
<stop offset="0.8" stop-color="#00682C"/>
</radialGradient>
<radialGradient id="paint28_radial_101_16676" cx="0" cy="0" r="1" gradientUnits="userSpaceOnUse" gradientTransform="translate(12.1852 1.43044) rotate(-0.559031) scale(41.9748 30.3084)">
<stop stop-color="#33E364"/>
<stop offset="0.12" stop-color="#2ED85F"/>
<stop offset="0.34" stop-color="#22B951"/>
<stop offset="0.62" stop-color="#0E883B"/>
<stop offset="0.8" stop-color="#00652B"/>
</radialGradient>
<radialGradient id="paint29_radial_101_16676" cx="0" cy="0" r="1" gradientUnits="userSpaceOnUse" gradientTransform="translate(12.1296 1.49102) rotate(-0.559031) scale(41.8787 30.239)">
<stop stop-color="#35E565"/>
<stop offset="0.12" stop-color="#30DA60"/>
<stop offset="0.33" stop-color="#24BB52"/>
<stop offset="0.6" stop-color="#108A3C"/>
<stop offset="0.8" stop-color="#00622A"/>
</radialGradient>
<radialGradient id="paint30_radial_101_16676" cx="0" cy="0" r="1" gradientUnits="userSpaceOnUse" gradientTransform="translate(12.0741 1.55101) rotate(-0.559031) scale(41.7857 30.1718)">
<stop stop-color="#37E666"/>
<stop offset="0.11" stop-color="#32DB61"/>
<stop offset="0.32" stop-color="#26BC53"/>
<stop offset="0.59" stop-color="#128B3C"/>
<stop offset="0.8" stop-color="#005F28"/>
</radialGradient>
<radialGradient id="paint31_radial_101_16676" cx="0" cy="0" r="1" gradientUnits="userSpaceOnUse" gradientTransform="translate(12.0115 1.61928) rotate(-0.55903) scale(41.6896 30.1025)">
<stop stop-color="#38E866"/>
<stop offset="0.11" stop-color="#33DD61"/>
<stop offset="0.31" stop-color="#27BE53"/>
<stop offset="0.57" stop-color="#148D3D"/>
<stop offset="0.8" stop-color="#005C27"/>
</radialGradient>
<radialGradient id="paint32_radial_101_16676" cx="0" cy="0" r="1" gradientUnits="userSpaceOnUse" gradientTransform="translate(11.9466 1.69137) rotate(-0.559031) scale(41.5965 30.0353)">
<stop stop-color="#3AE967"/>
<stop offset="0.11" stop-color="#35DE62"/>
<stop offset="0.3" stop-color="#29BF54"/>
<stop offset="0.56" stop-color="#158E3E"/>
<stop offset="0.8" stop-color="#005926"/>
</radialGradient>
<radialGradient id="paint33_radial_101_16676" cx="0" cy="0" r="1" gradientUnits="userSpaceOnUse" gradientTransform="translate(11.8815 1.7652) rotate(-0.559031) scale(41.5035 29.9681)">
<stop stop-color="#3CEB68"/>
<stop offset="0.11" stop-color="#37E063"/>
<stop offset="0.29" stop-color="#2BC155"/>
<stop offset="0.54" stop-color="#17903F"/>
<stop offset="0.8" stop-color="#005625"/>
</radialGradient>
<radialGradient id="paint34_radial_101_16676" cx="0" cy="0" r="1" gradientUnits="userSpaceOnUse" gradientTransform="translate(11.8074 1.8432) rotate(-0.55903) scale(41.4074 29.8987)">
<stop stop-color="#3EEC69"/>
<stop offset="0.1" stop-color="#39E164"/>
<stop offset="0.29" stop-color="#2DC256"/>
<stop offset="0.53" stop-color="#19913F"/>
<stop offset="0.8" stop-color="#005323"/>
</radialGradient>
<radialGradient id="paint35_radial_101_16676" cx="0" cy="0" r="1" gradientUnits="userSpaceOnUse" gradientTransform="translate(11.7326 1.37313) scale(41.3124 29.829)">
<stop stop-color="#3FEE69"/>
<stop offset="0.1" stop-color="#3AE364"/>
<stop offset="0.28" stop-color="#2EC456"/>
<stop offset="0.52" stop-color="#1A9340"/>
<stop offset="0.8" stop-color="#005122"/>
</radialGradient>
<radialGradient id="paint36_radial_101_16676" cx="0" cy="0" r="1" gradientUnits="userSpaceOnUse" gradientTransform="translate(12.7081 1.43826) scale(41.6204 29.7596)">
<stop stop-color="#41EF6A"/>
<stop offset="0.1" stop-color="#3CE465"/>
<stop offset="0.28" stop-color="#30C557"/>
<stop offset="0.51" stop-color="#1C9441"/>
<stop offset="0.79" stop-color="#015022"/>
<stop offset="0.8" stop-color="#004E21"/>
</radialGradient>
<radialGradient id="paint37_radial_101_16676" cx="0" cy="0" r="1" gradientUnits="userSpaceOnUse" gradientTransform="translate(12.6477 1.5107) scale(41.5295 29.6947)">
<stop stop-color="#43F16B"/>
<stop offset="0.1" stop-color="#3EE666"/>
<stop offset="0.27" stop-color="#32C758"/>
<stop offset="0.5" stop-color="#1E9642"/>
<stop offset="0.77" stop-color="#035223"/>
<stop offset="0.8" stop-color="#004B20"/>
</radialGradient>
<radialGradient id="paint38_radial_101_16676" cx="0" cy="0" r="1" gradientUnits="userSpaceOnUse" gradientTransform="translate(12.591 1.58616) scale(41.4356 29.6275)">
<stop stop-color="#45F26C"/>
<stop offset="0.1" stop-color="#40E767"/>
<stop offset="0.27" stop-color="#34C859"/>
<stop offset="0.49" stop-color="#209742"/>
<stop offset="0.76" stop-color="#055323"/>
<stop offset="0.8" stop-color="#00481E"/>
</radialGradient>
<radialGradient id="paint39_radial_101_16676" cx="0" cy="0" r="1" gradientUnits="userSpaceOnUse" gradientTransform="translate(12.5307 1.66708) scale(41.3386 29.5581)">
<stop stop-color="#46F46C"/>
<stop offset="0.09" stop-color="#41E967"/>
<stop offset="0.26" stop-color="#35CA59"/>
<stop offset="0.48" stop-color="#229943"/>
<stop offset="0.74" stop-color="#065524"/>
<stop offset="0.8" stop-color="#00451D"/>
</radialGradient>
<radialGradient id="paint40_radial_101_16676" cx="0" cy="0" r="1" gradientUnits="userSpaceOnUse" gradientTransform="translate(12.4735 1.75335) scale(41.2415 29.4887)">
<stop stop-color="#48F56D"/>
<stop offset="0.09" stop-color="#43EA68"/>
<stop offset="0.25" stop-color="#37CB5A"/>
<stop offset="0.47" stop-color="#239A44"/>
<stop offset="0.73" stop-color="#085625"/>
<stop offset="0.8" stop-color="#00421C"/>
</radialGradient>
<linearGradient id="paint41_linear_101_16676" x1="13.1441" y1="22.9569" x2="9.62066" y2="-2.43021" gradientUnits="userSpaceOnUse">
<stop offset="0.1" stop-color="#FF8475"/>
<stop offset="0.37" stop-color="#E84E43"/>
<stop offset="0.6" stop-color="#D6261F"/>
<stop offset="0.79" stop-color="#CC0E08"/>
<stop offset="0.9" stop-color="#C80500"/>
</linearGradient>
<clipPath id="clip0_101_16676">
<rect width="19.0909" height="19" fill="white"/>
</clipPath>
</defs>
</svg>
