<svg id="svg-truck-2" viewBox="0 -6 24 24" fill="none" xmlns="http://www.w3.org/2000/svg">
<path fill-rule="evenodd" clip-rule="evenodd" d="M0 1.05503C0 0.472362 0.48925 0 1.09277 0H12.243C12.8465 0 13.3357 0.472362 13.3357 1.05503V12.1178H8.74032C8.74155 12.0859 8.74217 12.0539 8.74217 12.0218C8.74217 10.638 7.5802 9.51613 6.14684 9.51613C4.71348 9.51613 3.55151 10.638 3.55151 12.0218C3.55151 12.0539 3.55214 12.0859 3.55337 12.1178H1.09277C0.48925 12.1178 0 11.6454 0 11.0627V1.05503ZM15.0256 2.27232H18.3662V6.65634C18.3662 7.239 18.8554 7.71137 19.459 7.71137H23.986C23.9953 7.79028 24 7.86996 24 7.95004V11.063C24 11.6456 23.5107 12.118 22.9072 12.118H21.6309C21.6322 12.0861 21.6328 12.054 21.6328 12.0218C21.6328 10.638 20.4708 9.51613 19.0375 9.51613C17.6041 9.51613 16.4421 10.638 16.4421 12.0218C16.4421 12.054 16.4428 12.0861 16.444 12.118H13.9328V3.32735C13.9328 2.74468 14.4221 2.27232 15.0256 2.27232ZM23.504 6.6116C23.6512 6.78479 23.7678 6.97815 23.8508 7.18385H19.459C19.1572 7.18385 18.9126 6.94766 18.9126 6.65634V2.27607C19.5185 2.31094 20.0845 2.58799 20.472 3.04394L23.504 6.6116ZM6.14684 14C5.01525 14 4.09789 13.1143 4.09789 12.0218C4.09789 10.9293 5.01525 10.0436 6.14684 10.0436C7.27843 10.0436 8.19579 10.9293 8.19579 12.0218C8.19579 13.1143 7.27843 14 6.14684 14ZM19.0375 14C17.9059 14 16.9885 13.1143 16.9885 12.0218C16.9885 10.9293 17.9059 10.0436 19.0375 10.0436C20.1691 10.0436 21.0864 10.9293 21.0864 12.0218C21.0864 13.1143 20.1691 14 19.0375 14Z" fill="#CF0A2C"/>
</svg>
