<svg width="16" height="16" viewBox="0 0 16 16" fill="none" xmlns="http://www.w3.org/2000/svg">
<path d="M14.3335 10.333C14.5202 10.333 14.6668 10.4797 14.6668 10.6663V11.333C14.6668 12.4397 13.7735 13.333 12.6668 13.333C12.6668 12.233 11.7668 11.333 10.6668 11.333C9.56683 11.333 8.66683 12.233 8.66683 13.333H7.3335C7.3335 12.233 6.4335 11.333 5.3335 11.333C4.2335 11.333 3.3335 12.233 3.3335 13.333C2.22683 13.333 1.3335 12.4397 1.3335 11.333V9.99967C1.3335 9.63301 1.6335 9.33301 2.00016 9.33301H8.3335C9.2535 9.33301 10.0002 8.58634 10.0002 7.66634V3.99967C10.0002 3.63301 10.3002 3.33301 10.6668 3.33301H11.2268C11.7068 3.33301 12.1468 3.59301 12.3868 4.00634L12.8135 4.75301C12.8735 4.85967 12.7935 4.99967 12.6668 4.99967C11.7468 4.99967 11.0002 5.74634 11.0002 6.66634V8.66634C11.0002 9.58634 11.7468 10.333 12.6668 10.333H14.3335Z" fill="#6A6E71"/>
<path d="M5.33333 14.6667C6.06971 14.6667 6.66667 14.0697 6.66667 13.3333C6.66667 12.597 6.06971 12 5.33333 12C4.59695 12 4 12.597 4 13.3333C4 14.0697 4.59695 14.6667 5.33333 14.6667Z" fill="#6A6E71"/>
<path d="M10.6668 14.6667C11.4032 14.6667 12.0002 14.0697 12.0002 13.3333C12.0002 12.597 11.4032 12 10.6668 12C9.93045 12 9.3335 12.597 9.3335 13.3333C9.3335 14.0697 9.93045 14.6667 10.6668 14.6667Z" fill="#6A6E71"/>
<path d="M14.6667 8.35333V9.33333H12.6667C12.3 9.33333 12 9.03333 12 8.66667V6.66667C12 6.3 12.3 6 12.6667 6H13.5267L14.4933 7.69333C14.6067 7.89333 14.6667 8.12 14.6667 8.35333Z" fill="#6A6E71"/>
<path d="M8.72016 1.33301H3.7935C2.4335 1.33301 1.3335 2.43301 1.3335 3.79301V8.04634C1.3335 8.41301 1.6335 8.71301 2.00016 8.71301H8.10016C8.78016 8.71301 9.3335 8.15967 9.3335 7.47967V1.94634C9.3335 1.60634 9.06016 1.33301 8.72016 1.33301ZM6.7135 4.71301L5.32016 6.05967C5.22016 6.15301 5.0935 6.19967 4.9735 6.19967C4.84683 6.19967 4.72016 6.15301 4.62683 6.05967L3.9535 5.41967C3.7535 5.22634 3.74683 4.90634 3.94016 4.70634C4.12683 4.50634 4.44683 4.50634 4.64683 4.69301L4.9735 5.00634L6.02016 3.99301C6.22016 3.79967 6.5335 3.80634 6.72683 4.00634C6.92016 4.20634 6.9135 4.51967 6.7135 4.71301Z" fill="#6A6E71"/>
</svg>
