<svg id="svg-arrow-top-right-2" viewBox="0 0 10 10" fill="currentColor" xmlns="http://www.w3.org/2000/svg">
<path d="M9.70318 0.0387154C9.63865 0.0129051 9.58058 0 9.51605 0H2.88918C2.62462 0 2.40523 0.21939 2.40523 0.483949C2.40523 0.748507 2.62462 0.967898 2.88918 0.967898H8.34812L0.140346 9.17567C-0.0467815 9.3628 -0.0467815 9.67253 0.140346 9.85965C0.327472 10.0468 0.6372 10.0468 0.824327 9.85965L9.0321 1.65188V7.11082C9.0321 7.37538 9.25149 7.59477 9.51605 7.59477C9.78061 7.59477 10 7.37538 10 7.11082V0.483949C10 0.419422 9.98709 0.361348 9.96128 0.296822C9.91612 0.180674 9.81933 0.0838842 9.70318 0.0387154Z"/>
</svg>
