<svg id="svg-arrow-down-left" viewBox="0 0 12 12" fill="none" xmlns="http://www.w3.org/2000/svg">
<path d="M0.356186 11.9535C0.433618 11.9845 0.503307 12 0.580739 12H8.53299C8.85046 12 9.11373 11.7367 9.11373 11.4193C9.11373 11.1018 8.85046 10.8385 8.53299 10.8385H1.98226L11.8316 0.989192C12.0561 0.76464 12.0561 0.392967 11.8316 0.168414C11.607 -0.0561381 11.2354 -0.0561381 11.0108 0.168414L1.16148 10.0177V3.46701C1.16148 3.14954 0.898209 2.88627 0.580739 2.88627C0.263268 2.88627 0 3.14954 0 3.46701V11.4193C0 11.4967 0.0154863 11.5664 0.0464591 11.6438C0.100661 11.7832 0.216809 11.8993 0.356186 11.9535Z" fill="currentColor"/>
</svg>
