<svg id="svg-cart" viewBox="0 0 21 20" fill="currentColor" xmlns="http://www.w3.org/2000/svg">
<path d="M20.8614 3.90476C20.6981 3.64286 20.418 3.45238 20.1147 3.45238L5.36703 2.7619L4.85366 0.714286C4.73698 0.285714 4.38696 0 3.9436 0H0.933396C0.420028 0 0 0.428571 0 0.952381C0 1.47619 0.420028 1.90476 0.933396 1.90476H3.22022L5.78705 12.0952L5.15701 14.7619C5.08701 15.0476 5.15701 15.3571 5.32036 15.5714C5.50704 15.8095 5.76372 15.9286 6.04374 15.9286H17.4778C17.9912 15.9286 18.4112 15.5 18.4112 14.9762C18.4112 14.4524 17.9912 14.0238 17.4778 14.0238H7.25715L7.51384 12.9286L16.8478 12.4762C17.1978 12.4524 17.5012 12.2381 17.6412 11.9286L20.9081 4.78571C21.0481 4.52381 21.0247 4.19048 20.8614 3.90476Z" />
<path d="M6.65051 19.9999C7.61707 19.9999 8.40063 19.2004 8.40063 18.2142C8.40063 17.228 7.61707 16.4285 6.65051 16.4285C5.68394 16.4285 4.90039 17.228 4.90039 18.2142C4.90039 19.2004 5.68394 19.9999 6.65051 19.9999Z" />
<path d="M17.1525 19.9999C18.119 19.9999 18.9026 19.2004 18.9026 18.2142C18.9026 17.228 18.119 16.4285 17.1525 16.4285C16.1859 16.4285 15.4023 17.228 15.4023 18.2142C15.4023 19.2004 16.1859 19.9999 17.1525 19.9999Z" />
</svg>
