<svg id="svg-hide" viewBox="0 0 14 14" fill="currentColor" xmlns="http://www.w3.org/2000/svg">
<path d="M13.4837 5.02093C13.2808 4.69893 13.0638 4.39793 12.8399 4.11793C12.581 3.78893 12.0912 3.76093 11.7973 4.05493L9.69815 6.15492C9.85209 6.61692 9.88008 7.14892 9.74013 7.70191C9.49523 8.68891 8.69753 9.48691 7.71092 9.7319C7.15813 9.8719 6.62633 9.8439 6.16451 9.68991C6.16451 9.68991 5.1639 10.6909 4.44318 11.4119C4.09331 11.7619 4.20527 12.3779 4.67409 12.5599C5.4228 12.8469 6.1995 12.9939 6.99719 12.9939C8.24271 12.9939 9.45324 12.6299 10.5588 11.9509C11.6854 11.2509 12.7 10.2219 13.5187 8.91291C14.1834 7.85591 14.1484 6.07792 13.4837 5.02093Z"/>
<path d="M8.4098 5.58409L5.58289 8.41208C5.22603 8.04808 4.99512 7.54408 4.99512 6.99808C4.99512 5.89909 5.89077 4.99609 6.99634 4.99609C7.54213 4.99609 8.04594 5.22709 8.4098 5.58409Z"/>
<path d="M11.3706 2.62399L8.99853 4.99698C8.48772 4.47898 7.781 4.17098 6.9973 4.17098C5.4299 4.17098 4.17039 5.43798 4.17039 6.99897C4.17039 7.78297 4.48527 8.48996 4.99607 9.00096L2.63098 11.374H2.62399C1.84729 10.744 1.13356 9.93896 0.524797 8.98696C-0.174932 7.88797 -0.174932 6.10298 0.524797 5.00398C1.33648 3.72999 2.3301 2.72899 3.43567 2.04299C4.54125 1.371 5.75178 1 6.9973 1C8.5577 1 10.0691 1.574 11.3706 2.62399Z"/>
<path d="M8.99648 6.994C8.99648 8.09299 8.10048 8.99599 6.99449 8.99599C6.95249 8.99599 6.91749 8.99599 6.87549 8.98199L8.98248 6.875C8.99648 6.917 8.99648 6.952 8.99648 6.994Z"/>
<path d="M13.8331 0.157499C13.6232 -0.0524998 13.2803 -0.0524998 13.0704 0.157499L0.160369 13.0794C-0.0495501 13.2894 -0.0495501 13.6324 0.160369 13.8424C0.265328 13.9404 0.398277 13.9964 0.538223 13.9964C0.678169 13.9964 0.811118 13.9404 0.916077 13.8354L13.8331 0.913496C14.05 0.703497 14.05 0.367498 13.8331 0.157499Z"/>
</svg>
