<svg id="svg-location-solid" viewBox="-1.5 0 14 14" fill="currentColor" xmlns="http://www.w3.org/2000/svg">
<path fill-rule="evenodd" clip-rule="evenodd" d="M5.5 0C4.04131 0 2.64236 0.546526 1.61091 1.51935C0.579463 2.49217 0 3.8116 0 5.18738C0 8.05226 2.98391 11.1518 5.5 14C8.01609 11.1518 11 8.05226 11 5.18738C11 3.8116 10.4205 2.49217 9.38909 1.51935C8.35764 0.546526 6.95869 0 5.5 0ZM5.5 7.6592C4.98166 7.6592 4.47495 7.51423 4.04396 7.24263C3.61298 6.97102 3.27706 6.58497 3.0787 6.1333C2.88034 5.68164 2.82844 5.18463 2.92956 4.70515C3.03069 4.22566 3.28029 3.78522 3.64682 3.43953C4.01334 3.09384 4.48032 2.85842 4.98871 2.76304C5.49709 2.66767 6.02405 2.71662 6.50293 2.90371C6.98182 3.09079 7.39114 3.40761 7.67911 3.8141C7.96709 4.22059 8.1208 4.69849 8.1208 5.18738C8.11949 5.84257 7.84295 6.47057 7.35174 6.93386C6.86053 7.39715 6.19468 7.65797 5.5 7.6592Z"/>
</svg>
