<svg width="146" height="18" viewBox="0 0 146 18" fill="none" xmlns="http://www.w3.org/2000/svg">
<path d="M137.248 15.7583H134.659L127.434 1.71007L129.247 1.68597V17.6137H125.881V0.384766H129.92L136.679 13.5896H135.254L142.013 0.384766H146V17.6137H142.582V1.68597L144.473 1.71007L137.248 15.7583Z" fill="#CF0A2C"/>
<path d="M112.462 18C111.029 18 109.708 17.7751 108.5 17.3253C107.309 16.8755 106.264 16.249 105.367 15.4458C104.469 14.6426 103.779 13.6948 103.295 12.6024C102.812 11.494 102.57 10.2892 102.57 8.98795C102.57 7.68675 102.812 6.48996 103.295 5.39759C103.779 4.30522 104.469 3.35743 105.367 2.55422C106.264 1.751 107.309 1.1245 108.5 0.674699C109.708 0.2249 111.029 0 112.462 0C113.894 0 115.206 0.2249 116.398 0.674699C117.606 1.1245 118.659 1.751 119.557 2.55422C120.454 3.35743 121.145 4.30522 121.628 5.39759C122.111 6.48996 122.353 7.68675 122.353 8.98795C122.353 10.2892 122.111 11.494 121.628 12.6024C121.145 13.6948 120.454 14.6426 119.557 15.4458C118.659 16.249 117.606 16.8755 116.398 17.3253C115.206 17.7751 113.894 18 112.462 18ZM112.462 15.1325C113.687 15.1325 114.766 14.8675 115.698 14.3373C116.631 13.8072 117.356 13.0843 117.873 12.1687C118.409 11.2369 118.676 10.1767 118.676 8.98795C118.676 7.7992 118.409 6.74699 117.873 5.83133C117.356 4.91566 116.631 4.19277 115.698 3.66265C114.766 3.13253 113.687 2.86747 112.462 2.86747C111.253 2.86747 110.174 3.13253 109.225 3.66265C108.293 4.19277 107.559 4.91566 107.024 5.83133C106.506 6.74699 106.247 7.7992 106.247 8.98795C106.247 10.1767 106.506 11.2369 107.024 12.1687C107.559 13.0843 108.293 13.8072 109.225 14.3373C110.174 14.8675 111.253 15.1325 112.462 15.1325Z" fill="#CF0A2C"/>
<path d="M89.6753 17.6137H86.1797V0.384766H89.6753V17.6137ZM103.114 17.6137H98.3756L89.028 8.67392H89.4423L97.7024 0.384766H102.027L93.1969 9.01127V8.33657L103.114 17.6137Z" fill="#CF0A2C"/>
<path d="M82.8135 15.5415C82.8135 16.184 82.5632 16.7302 82.0626 17.18C81.562 17.6298 80.9492 17.8547 80.2241 17.8547C79.4991 17.8547 78.8863 17.6298 78.3857 17.18C77.8851 16.7302 77.6348 16.184 77.6348 15.5415C77.6348 14.8828 77.8851 14.3286 78.3857 13.8788C78.8863 13.429 79.4991 13.2041 80.2241 13.2041C80.9492 13.2041 81.562 13.429 82.0626 13.8788C82.5632 14.3286 82.8135 14.8828 82.8135 15.5415Z" fill="black"/>
<path d="M72.8766 12.0723L75.7249 14.7952C74.8964 15.743 73.8088 16.5141 72.4623 17.1084C71.1331 17.7028 69.6658 18 68.0604 18C66.5586 18 65.1948 17.7831 63.9692 17.3494C62.7436 16.8996 61.6819 16.2731 60.7843 15.4699C59.9039 14.6667 59.222 13.7189 58.7387 12.6265C58.2553 11.5181 58.0137 10.3052 58.0137 8.98795C58.0137 7.68675 58.264 6.48996 58.7646 5.39759C59.2652 4.28916 59.9643 3.33333 60.862 2.53012C61.7769 1.72691 62.8472 1.10843 64.0728 0.674699C65.3157 0.2249 66.6794 0 68.164 0C69.7694 0 71.2194 0.297189 72.5141 0.891566C73.8261 1.48594 74.8964 2.25703 75.7249 3.20482L72.8766 5.92771C72.3415 5.22088 71.6596 4.66667 70.831 4.26506C70.0197 3.84739 69.1307 3.63855 68.164 3.63855C67.1282 3.63855 66.1961 3.87149 65.3675 4.33735C64.5561 4.78715 63.9174 5.41365 63.4513 6.21687C62.9853 7.02008 62.7522 7.94378 62.7522 8.98795C62.7522 10.0321 62.9853 10.9639 63.4513 11.7831C63.9174 12.5863 64.5561 13.2209 65.3675 13.6867C66.1961 14.1365 67.1282 14.3614 68.164 14.3614C69.1307 14.3614 70.0197 14.1526 70.831 13.7349C71.6596 13.3173 72.3415 12.7631 72.8766 12.0723Z" fill="black"/>
<path d="M41.8666 17.6137V14.1438H44.4818C45.1033 14.1438 45.6384 14.0474 46.0872 13.8546C46.5361 13.6619 46.9417 13.3406 47.3042 12.8908C47.684 12.4249 48.0638 11.7904 48.4436 10.9872L53.5446 0.384766H58.076L51.0847 13.8546C50.6359 14.7061 50.1094 15.4129 49.5052 15.9751C48.9183 16.5213 48.2364 16.931 47.4596 17.204C46.6828 17.4771 45.7938 17.6137 44.7926 17.6137H41.8666ZM47.5373 13.7824L40.3906 0.384766H44.922L50.7999 11.9269L47.5373 13.7824Z" fill="black"/>
<path d="M29.4635 17.6137H25.0098V0.384766H32.752C34.133 0.384766 35.35 0.617697 36.403 1.08356C37.456 1.54942 38.276 2.20003 38.8629 3.03537C39.4498 3.85465 39.7433 4.8185 39.7433 5.92694C39.7433 7.0193 39.4498 7.98316 38.8629 8.8185C38.276 9.65384 37.456 10.3044 36.403 10.7703C35.35 11.2362 34.133 11.4691 32.752 11.4691H29.2045V8.02332H32.752C33.5115 8.02332 34.1157 7.83858 34.5645 7.4691C35.0134 7.08356 35.2378 6.56951 35.2378 5.92694C35.2378 5.28436 35.0134 4.77834 34.5645 4.40886C34.1157 4.02332 33.5115 3.83055 32.752 3.83055H29.4635V17.6137Z" fill="black"/>
<path d="M12.0924 15.493H8.82974L1.73488 1.75801L4.29835 1.68573V17.6134H0V0.384521H4.97159L11.2638 12.6496H9.71013L16.0023 0.384521H20.8703V17.6134H16.5202V1.68573L19.1872 1.75801L12.0924 15.493Z" fill="black"/>
</svg>
