<svg width="132" height="36" viewBox="0 0 132 36" fill="none" xmlns="http://www.w3.org/2000/svg">
<path d="M50.2758 31.889C46.9477 31.889 44.3217 30.68 42.3977 28.262C40.4737 25.818 39.5117 22.386 39.5117 17.966C39.5117 13.6499 40.4607 10.2439 42.3587 7.74792C44.2827 5.25191 47.0387 4.00391 50.6268 4.00391C51.8748 4.00391 52.9928 4.18591 53.9808 4.54991C54.9688 4.88791 55.7748 5.27791 56.3988 5.71991V9.50293C55.6968 9.06093 54.8648 8.64492 53.9028 8.25492C52.9408 7.86492 51.9268 7.66992 50.8608 7.66992C48.5728 7.66992 46.9087 8.51493 45.8687 10.2049C44.8287 11.8949 44.3087 14.4819 44.3087 17.966C44.3087 21.346 44.8287 23.907 45.8687 25.649C46.9087 27.365 48.4948 28.223 50.6268 28.223C51.8748 28.223 52.9538 28.041 53.8638 27.677C54.7738 27.287 55.6188 26.806 56.3988 26.234V30.017C55.8008 30.433 54.9948 30.849 53.9808 31.265C52.9668 31.681 51.7318 31.889 50.2758 31.889Z" fill="black"/>
<path d="M59.3348 11.8819H74.6228V31.499H69.9818V15.548H63.9758V31.499H59.3348V11.8819Z" fill="black"/>
<path d="M76.9701 27.482C76.9701 27.482 77.0611 27.547 77.2431 27.677C77.4252 27.781 77.6852 27.833 78.0232 27.833C78.7772 27.833 79.2712 27.443 79.5052 26.663C79.7392 25.883 79.8952 24.453 79.9732 22.373L80.3632 11.8819H93.6622V31.499H89.0212V15.548H84.3022L84.0292 22.568C83.9252 25.818 83.5222 28.184 82.8202 29.666C82.1182 31.148 80.7792 31.889 78.8032 31.889C78.2572 31.889 77.8152 31.824 77.4771 31.694C77.1391 31.564 76.9701 31.499 76.9701 31.499V27.482Z" fill="black"/>
<path d="M97.5732 11.8819H102.097V24.011L109.273 11.8819H113.29V31.499H108.766V19.37L101.59 31.499H97.5732V11.8819Z" fill="black"/>
<path d="M131.579 15.548H126.119V31.499H121.478V15.548H116.018V11.8819H131.579V15.548Z" fill="black"/>
<g clip-path="url(#clip0_101_25617)">
<path d="M18.0577 18.0848L30.7029 31.0338L30.445 31.2688L30.3361 31.372C26.7953 34.5304 22.1557 36.1718 17.4165 35.9428C12.6773 35.7138 8.21756 33.6327 4.99779 30.1476C1.77803 26.6625 0.0557857 22.0523 0.201958 17.3098C0.348131 12.5674 2.35103 8.07198 5.77931 4.79182C9.30408 1.56618 13.9578 -0.140881 18.7323 0.0404431C23.5068 0.221767 28.0176 2.27687 31.2876 5.76056L18.0577 18.0848Z" fill="#01B94F"/>
<path d="M5.79027 4.78585C9.31453 1.56303 13.9665 -0.141784 18.7387 0.0406061C23.5108 0.222996 28.0191 2.27791 31.2871 5.76032C31.2871 5.76032 20.7685 15.6082 20.5564 15.7802C20.5564 15.7802 18.2005 17.9986 18.2177 18.033C18.2349 18.0674 30.6795 30.982 30.6795 30.982L30.4273 31.2228L30.3183 31.3259C22.8894 37.8607 11.5053 37.5626 4.7814 30.2941C1.55238 26.7683 -0.153282 22.1097 0.0356631 17.3324C0.224609 12.555 2.29287 8.0457 5.79027 4.78585Z" fill="url(#paint0_radial_101_25617)"/>
<path d="M5.79591 4.77593C9.32298 1.55737 13.9752 -0.143574 18.7465 0.0409281C23.5178 0.22543 28.0247 2.28055 31.2927 5.76187C31.2927 5.76187 21.055 15.392 20.6366 15.7302C20.6366 15.7302 18.3437 17.9199 18.3838 17.9887C18.4698 18.195 30.6622 30.9262 30.6622 30.9262L30.41 31.167L30.3011 31.2702C22.8893 37.7934 11.4994 37.4724 4.79851 30.2269C1.57432 26.7107 -0.129959 22.063 0.0568547 17.2961C0.243668 12.5291 2.30644 8.02901 5.79591 4.77593Z" fill="url(#paint1_radial_101_25617)"/>
<path d="M5.80763 4.77156C9.33486 1.55722 13.985 -0.140545 18.7535 0.0450049C23.5221 0.230555 28.0262 2.28453 31.293 5.76323C31.293 5.76323 21.3476 15.1698 20.7056 15.6799C20.7056 15.6799 18.493 17.8352 18.5331 17.9384C18.665 18.248 30.6395 30.876 30.6395 30.876L30.3816 31.1168L30.2727 31.2142C22.8839 37.7203 11.4997 37.3878 4.81023 30.1595C1.59125 26.6532 -0.110442 22.0161 0.0764108 17.26C0.263264 12.5038 2.32349 8.01452 5.80763 4.77156Z" fill="url(#paint2_radial_101_25617)"/>
<path d="M5.81279 4.7661C9.34046 1.55424 13.9898 -0.14144 18.7569 0.0451704C23.5241 0.231781 28.0266 2.28571 31.2924 5.76351C31.2924 5.76351 21.6337 14.935 20.7796 15.6286C20.7796 15.6286 18.6357 17.7553 18.693 17.8929C18.865 18.3056 30.616 30.8247 30.616 30.8247L30.3638 31.0597C30.3638 31.0597 30.2549 31.1572 30.2549 31.1629C22.8833 37.646 11.4991 37.2906 4.82685 30.091C1.61304 26.5954 -0.0871197 21.9701 0.0976063 17.2252C0.282332 12.4804 2.33694 8.0013 5.81279 4.7661Z" fill="url(#paint3_radial_101_25617)"/>
<path d="M5.82544 4.75519C9.354 1.54828 14.0017 -0.143227 18.7661 0.0455046C23.5305 0.234236 28.0298 2.28808 31.2936 5.76406C31.2936 5.76406 21.9272 14.7292 20.8553 15.5776C20.8553 15.5776 18.7802 17.6698 18.849 17.8418C19.0668 18.3577 30.6 30.7679 30.5943 30.7737L30.3421 31.0087L30.2331 31.1119C22.8787 37.5663 11.5003 37.2052 4.84523 30.0227C1.63698 26.5361 -0.0608019 21.9213 0.122866 17.1868C0.306533 12.4522 2.35672 7.98283 5.82544 4.75519Z" fill="url(#paint4_radial_101_25617)"/>
<path d="M5.82978 4.74584C9.35878 1.54139 14.0056 -0.148024 18.7687 0.041767C23.5317 0.231558 28.0294 2.28536 31.2922 5.76044C31.2922 5.76044 22.2124 14.5078 20.9284 15.5052C20.9284 15.5052 18.9221 17.563 19.0081 17.7694C19.2661 18.3885 30.5757 30.6898 30.5757 30.6898L30.3235 30.9821L30.2146 31.0796C22.8716 37.4882 11.4989 37.1156 4.85531 29.9503C1.65295 26.4736 -0.0422996 21.8702 0.140315 17.147C0.322929 12.4237 2.36855 7.96492 5.82978 4.74584Z" fill="url(#paint5_radial_101_25617)"/>
<path d="M5.84235 4.74039C9.37179 1.53842 14.0178 -0.148915 18.7795 0.0419368C23.5411 0.232788 28.0372 2.28655 31.2991 5.76072C31.2991 5.76072 22.5059 14.2902 21.0098 15.5055C21.0098 15.5055 19.0665 17.5289 19.164 17.7697C19.4907 18.4633 30.5596 30.6614 30.5539 30.6614L30.3017 30.8964L30.1927 30.9996C22.8727 37.4139 11.5 37.0241 4.87361 29.8818C1.67572 26.4157 -0.0179595 21.8234 0.16362 17.111C0.345199 12.3985 2.38723 7.95013 5.84235 4.74039Z" fill="url(#paint6_radial_101_25617)"/>
<path d="M5.8473 4.73231C9.3779 1.53353 14.0236 -0.150711 18.7838 0.0422728C23.5441 0.235257 28.0382 2.29003 31.2982 5.76411C31.2982 5.76411 22.7917 14.0701 21.0835 15.4286C21.0835 15.4286 19.209 17.4234 19.3237 17.7215C19.6676 18.5469 30.5359 30.6361 30.5301 30.6361C30.5244 30.6361 30.2951 30.8597 30.2779 30.8711L30.169 30.9686C22.8662 37.3428 11.4935 36.9415 4.88429 29.8393C1.68344 26.3818 -0.0132207 21.7946 0.167368 17.0864C0.347957 12.3782 2.39101 7.93448 5.8473 4.73231Z" fill="url(#paint7_radial_101_25617)"/>
<path d="M5.85928 4.72407C9.39004 1.5295 14.0336 -0.151578 18.7911 0.0424525C23.5486 0.236483 28.0399 2.29012 31.2988 5.7616C31.2988 5.7616 23.0845 13.8497 21.1585 15.3745C21.1585 15.3745 19.3529 17.3349 19.4847 17.6674C19.8688 18.596 30.5135 30.5763 30.5135 30.582L30.2612 30.817L30.1523 30.9145C22.8667 37.2887 11.494 36.8702 4.93067 29.7681C1.73353 26.3235 0.0353103 21.7502 0.20945 17.0538C0.383591 12.3574 2.41583 7.92239 5.85928 4.72407Z" fill="url(#paint8_radial_101_25617)"/>
<path d="M5.86561 4.71864C9.3968 1.52654 14.0396 -0.152464 18.7957 0.0426265C23.5518 0.237717 28.0415 2.29132 31.2994 5.7619C31.2994 5.7619 23.3718 13.6265 21.2107 15.3232C21.2107 15.3232 19.4911 17.255 19.6172 17.6161C20.0643 18.6307 30.4969 30.5021 30.4911 30.5078L30.2389 30.7371C30.2389 30.7371 30.1415 30.8288 30.13 30.8403C22.8616 37.1916 11.4946 36.7559 4.90833 29.6938C3.33121 27.9911 2.10491 25.9944 1.29948 23.8178C0.494047 21.6411 0.125247 19.3272 0.21414 17.008C0.303032 14.6888 0.847876 12.4098 1.81756 10.3012C2.78724 8.19258 4.16278 6.29562 5.86561 4.71864Z" fill="url(#paint9_radial_101_25617)"/>
<path d="M5.87731 4.70777C9.40937 1.52061 14.0505 -0.154231 18.8039 0.0429778C23.5573 0.240186 28.0437 2.29371 31.2996 5.7625C31.2996 5.7625 23.6643 13.4093 21.3084 15.2722C21.3084 15.2722 19.6403 17.1753 19.8008 17.5651C20.2709 18.7115 30.4742 30.4683 30.4742 30.474L30.222 30.7033L30.1131 30.8008C22.8561 37.1176 11.4949 36.6705 4.9315 29.6142C1.75471 26.1857 0.0697172 21.6358 0.247084 16.9651C0.424452 12.2945 2.44965 7.88547 5.87731 4.70777Z" fill="url(#paint10_radial_101_25617)"/>
<path d="M5.88236 4.70286C9.41581 1.51781 14.0571 -0.15511 18.81 0.0431529C23.5629 0.241415 28.0488 2.29506 31.3047 5.76332C31.3047 5.76332 23.9503 13.2152 21.3822 15.2272C21.3822 15.2272 19.7887 17.0901 19.9549 17.5201C20.4708 18.741 30.4563 30.4118 30.4506 30.4118L30.1984 30.6468L30.0894 30.7443C22.8554 37.0497 11.4942 36.5911 4.94801 29.5577C3.37585 27.8651 2.1528 25.8792 1.34879 23.7136C0.544794 21.5479 0.175626 19.245 0.262406 16.9366C0.349185 14.6281 0.89021 12.3594 1.85454 10.2603C2.81886 8.16108 4.18756 6.27261 5.88236 4.70286Z" fill="url(#paint11_radial_101_25617)"/>
<path d="M5.89287 4.69464C9.42645 1.51379 14.0656 -0.15597 18.8158 0.0433383C23.566 0.242647 28.049 2.29516 31.3037 5.76083C31.3037 5.76083 24.2417 12.9662 21.4558 15.1731C21.4558 15.1731 19.931 17.0074 20.1145 17.466C20.6877 18.8073 30.4324 30.3577 30.4324 30.3634L30.1802 30.5985C30.1802 30.5985 30.0828 30.6844 30.077 30.6959C22.8545 37.0013 11.499 36.5026 4.96425 29.4921C-1.57046 22.4817 -1.24372 11.1663 5.89287 4.69464Z" fill="url(#paint12_radial_101_25617)"/>
<path d="M5.89892 4.68268C9.43366 1.50503 14.0725 -0.161654 18.8213 0.0397847C23.5701 0.241224 28.0511 2.29476 31.304 5.76034C31.304 5.76034 24.5286 12.7364 21.5593 15.1096C21.5593 15.1096 20.0976 16.9095 20.2982 17.4024C20.9001 18.8469 30.4327 30.2884 30.4327 30.2941L30.1805 30.5234L30.0716 30.6209C22.8433 36.8862 11.4649 36.3989 4.97604 29.4057C-1.51281 22.4124 -1.22047 11.1371 5.89892 4.68268Z" fill="url(#paint13_radial_101_25617)"/>
<path d="M5.90988 4.67838C9.44474 1.50493 14.0815 -0.158604 18.8275 0.0438799C23.5736 0.246364 28.0518 2.29878 31.3035 5.76177C31.3035 5.76177 24.8204 12.5258 21.6104 15.0709C21.6104 15.0709 20.2174 16.8421 20.4295 17.3637C21.0773 18.9057 30.3806 30.2383 30.3806 30.244L30.1284 30.4733L30.0195 30.5707C22.8428 36.8131 11.4644 36.3087 4.98699 29.3383C-1.49039 22.3679 -1.19805 11.1099 5.90988 4.67838Z" fill="url(#paint14_radial_101_25617)"/>
<path d="M5.91638 4.67297C9.45167 1.50198 14.0876 -0.15948 18.8323 0.0440626C23.577 0.247605 28.0536 2.29998 31.3043 5.76208C31.3043 5.76208 25.1078 12.3083 21.6857 15.0196C21.6857 15.0196 20.3615 16.7392 20.5908 17.3125C21.2787 18.9461 30.3814 30.187 30.3814 30.1927L30.1349 30.422L30.026 30.5195C22.8378 36.716 11.4652 36.223 5.00496 29.2641C-1.45523 22.3052 -1.18008 11.0873 5.91638 4.67297Z" fill="url(#paint15_radial_101_25617)"/>
<path d="M5.92769 4.6604C9.46543 1.49536 14.1003 -0.1612 18.8428 0.0444343C23.5852 0.250069 28.0594 2.3016 31.3099 5.76098C31.3099 5.76098 25.4 12.0664 21.7829 14.9669C21.7829 14.9669 20.5276 16.6866 20.7684 17.2598C21.4791 19.0138 30.3812 30.1286 30.3469 30.1343L30.0946 30.3636C30.0611 30.399 30.0247 30.4316 29.9857 30.461C22.8377 36.6633 11.465 36.1417 5.02201 29.2C-1.42098 22.2583 -1.14584 11.0575 5.92769 4.6604Z" fill="url(#paint16_radial_101_25617)"/>
<path d="M5.93394 4.65687C9.47591 1.49659 14.1136 -0.152726 18.8557 0.0615074C23.5977 0.27574 28.0678 2.33652 31.3104 5.80331C31.3104 5.80331 25.6871 11.868 21.8351 14.9347C21.8351 14.9347 20.6485 16.6085 20.9064 17.2276C21.6803 19.0906 30.3302 30.1021 30.3244 30.1078C30.3187 30.1136 30.1124 30.3085 30.0722 30.3371L29.969 30.4346C22.8325 36.591 11.4655 36.0407 5.03399 29.1334C-1.39754 22.2261 -1.14532 11.0311 5.93394 4.65687Z" fill="url(#paint17_radial_101_25617)"/>
<path d="M5.94536 4.64966C9.48607 1.49147 14.1216 -0.156612 18.8613 0.057612C23.601 0.271836 28.069 2.33138 31.3104 5.7961C31.3104 5.7961 25.9794 11.6601 21.9095 14.8874C21.9095 14.8874 20.7918 16.5268 21.0612 17.1803C21.8809 19.1464 30.313 30.049 30.3015 30.0548L30.055 30.2841L29.9461 30.3815C22.8267 36.515 11.4655 35.9532 5.05114 29.0631C-1.36319 22.173 -1.11671 11.0009 5.94536 4.64966Z" fill="url(#paint18_radial_101_25617)"/>
<path d="M5.95121 4.61727C9.49225 1.46219 14.1262 -0.183908 18.8641 0.0302825C23.602 0.244473 28.0685 2.30199 31.3104 5.76371C31.3104 5.76371 26.2661 11.4099 21.9899 14.8034C21.9899 14.8034 20.9352 16.4084 21.2218 17.0963C22.0816 19.1656 30.2901 29.9651 30.2844 29.9708L30.0322 30.2001L29.9233 30.2918C22.8268 36.4425 11.4656 35.8635 5.06272 29.0021C-1.34015 22.1406 -1.09366 10.9743 5.95121 4.61727Z" fill="url(#paint19_radial_101_25617)"/>
<path d="M5.96284 4.61397C9.50263 1.46098 14.1344 -0.183889 18.87 0.0302933C23.6055 0.244475 28.0699 2.30075 31.3106 5.76041C28.4608 8.99171 25.3699 12.0021 22.0646 14.7657C22.0646 14.7657 21.0786 16.3421 21.3825 17.0586C22.2824 19.2311 30.2674 29.9159 30.2616 29.9274L30.0151 30.1509L29.9062 30.2484C22.8212 36.3646 11.4657 35.7742 5.08008 28.93C-1.30559 22.0857 -1.0763 10.9194 5.96284 4.61397Z" fill="url(#paint20_radial_101_25617)"/>
<path d="M5.96869 4.61561C9.50912 1.464 14.1406 -0.179957 18.8757 0.0342054C23.6108 0.248367 28.075 2.30371 31.3165 5.76205C28.5066 8.98453 25.4393 11.9732 22.145 14.6985C22.145 14.6985 21.2335 16.2405 21.5717 16.9914C22.5176 19.2843 30.2847 29.8487 30.2732 29.8545L30.0267 30.0838L29.9178 30.1812C22.8214 36.286 11.4659 35.6841 5.09166 28.8628C-1.28255 22.0415 -1.05326 10.921 5.96869 4.61561Z" fill="url(#paint21_radial_101_25617)"/>
<path d="M5.98032 4.6156C9.52078 1.46884 14.1495 -0.172074 18.8814 0.0420405C23.6133 0.256155 28.0749 2.3084 31.3167 5.76204C28.5509 8.98684 25.5047 11.9601 22.2139 14.647C22.2139 14.647 21.3713 16.1603 21.698 16.9398C22.684 19.3416 30.2275 29.8373 30.2218 29.8373C30.2161 29.8373 30.0212 30.0265 29.9696 30.0666L29.8664 30.1583C22.8158 36.2115 11.466 35.5695 5.10903 28.794C-1.24799 22.0186 -1.03589 10.921 5.98032 4.6156Z" fill="url(#paint22_radial_101_25617)"/>
<path d="M5.9848 4.61673C9.52495 1.4717 14.1524 -0.168145 18.8829 0.0459551C23.6134 0.260055 28.0738 2.31121 31.3154 5.76317C28.5944 8.99382 25.5713 11.9574 22.2872 14.6137C22.2872 14.6137 21.5133 16.0926 21.8515 16.9066C22.8891 19.3886 30.2091 29.7582 30.1976 29.7639L29.9511 29.9875L29.8422 30.0849C22.8088 36.1438 11.4648 35.5076 5.12497 28.7264C-1.21484 21.9452 -1.01421 10.8648 5.9848 4.61673Z" fill="url(#paint23_radial_101_25617)"/>
<path d="M5.9911 4.61395C9.53093 1.47066 14.1571 -0.168122 18.8863 0.0459635C23.6154 0.260049 28.0746 2.31012 31.316 5.76039C28.6415 8.99671 25.639 11.9473 22.3565 14.5651C22.3565 14.5651 21.6515 16.0096 22.0069 16.8579C23.0845 19.4432 30.181 29.6981 30.1753 29.7095L29.923 29.9331L29.8141 30.0305C22.8094 36.0608 11.4654 35.4131 5.15993 28.6548C-1.14549 21.8965 -0.990723 10.8334 5.9911 4.61395Z" fill="url(#paint24_radial_101_25617)"/>
<path d="M6.0029 4.61622C9.54212 1.47638 14.1658 -0.160264 18.8922 0.0537928C23.6186 0.26785 28.0754 2.31575 31.3163 5.76266C28.6919 9.00008 25.7158 11.9358 22.4429 14.5157C22.4429 14.5157 21.8009 15.9316 22.1735 16.8086C23.3199 19.497 30.1985 29.6487 30.1584 29.6602L29.9119 29.8838L29.803 29.9755C22.804 35.9885 11.4657 35.3236 5.16027 28.5883C-1.14515 21.8529 -0.973188 10.807 6.0029 4.61622Z" fill="url(#paint25_radial_101_25617)"/>
<path d="M6.00756 4.61511C9.5471 1.47837 14.1692 -0.15631 18.8938 0.0577133C23.6184 0.271737 28.0738 2.31764 31.3152 5.76155C28.7436 9.00599 25.7892 11.9277 22.5163 14.463C22.5163 14.463 21.9431 15.8445 22.3271 16.7559C23.4736 19.5475 30.1459 29.5903 30.1344 29.5961C30.1229 29.6018 29.9452 29.7738 29.8879 29.8196L29.779 29.9171C22.8029 35.9129 11.4646 35.2365 5.15919 28.5184C-1.14623 21.8003 -0.951336 10.7772 6.00756 4.61511Z" fill="url(#paint26_radial_101_25617)"/>
<path d="M6.01938 4.58109C9.56294 1.45043 14.1864 -0.177203 18.9097 0.043231C23.6329 0.263665 28.0847 2.31483 31.3213 5.76192C31.3213 5.76192 28.5813 9.65982 22.5912 14.4118C22.5912 14.4118 22.0867 15.7646 22.488 16.7047C23.6917 19.5708 30.1233 29.5391 30.1175 29.5448L29.8653 29.7684L29.7621 29.8658C22.7975 35.8388 11.465 35.1452 5.15955 28.45C-1.14587 21.7548 -0.933774 10.7489 6.01938 4.58109Z" fill="url(#paint27_radial_101_25617)"/>
<path d="M6.02431 4.57089C9.56964 1.44476 14.1924 -0.178908 18.9139 0.043632C23.6354 0.266172 28.0849 2.31745 31.3205 5.76319C31.3205 5.76319 28.8729 9.42033 22.6649 14.3615C22.4336 15.1083 22.4336 15.9076 22.6649 16.6544C23.9145 19.6523 30.1168 29.4773 30.1168 29.4888L29.8703 29.7123L29.7614 29.804C22.791 35.7655 11.4642 35.0605 5.19888 28.3882C-1.06642 21.7159 -0.91165 10.7273 6.02431 4.57089Z" fill="url(#paint28_radial_101_25617)"/>
<path d="M6.03721 4.56334C9.58137 1.43865 14.2027 -0.183697 18.9223 0.0399256C23.6419 0.263548 28.0891 2.31558 31.322 5.76137C31.322 5.76137 29.1609 9.20069 22.7237 14.2852C22.5211 15.0393 22.543 15.8362 22.7867 16.578C24.0765 19.7193 30.0838 29.4411 30.0723 29.4526L29.8259 29.6761L29.7227 29.7678C22.7924 35.6892 11.4656 34.9956 5.21178 28.3176C-1.04206 21.6396 -0.887288 10.6968 6.03721 4.56334Z" fill="url(#paint29_radial_101_25617)"/>
<path d="M6.0426 4.55798C9.58716 1.43574 14.2077 -0.184548 18.9259 0.0401302C23.6441 0.264808 28.0898 2.31682 31.3216 5.76174C31.3216 5.76174 29.4529 9.00043 22.815 14.2626C22.6553 15.0258 22.7049 15.818 22.9583 16.5555C24.2939 19.7598 30.0662 29.3727 30.0548 29.3841L29.8083 29.6019L29.6994 29.6994C22.7864 35.615 11.4653 34.8756 5.22863 28.2491C-1.10545 21.531 -0.870434 10.6685 6.0426 4.55798Z" fill="url(#paint30_radial_101_25617)"/>
<path d="M6.05332 4.54894C9.59933 1.43296 14.2179 -0.182314 18.933 0.0444555C23.648 0.271224 28.0903 2.32227 31.3209 5.76416C31.3209 5.76416 29.7388 8.7621 22.8888 14.1905C22.7706 14.9619 22.8495 15.7507 23.1181 16.4834C24.4938 19.7909 30.0426 29.3006 30.0311 29.3063L29.7846 29.5299L29.6757 29.6216C22.7971 35.4971 11.476 34.7806 5.23935 28.1427C-0.997284 21.5048 -0.848247 10.6423 6.05332 4.54894Z" fill="url(#paint31_radial_101_25617)"/>
<path d="M6.05999 4.54021C9.60734 1.42632 14.226 -0.187064 18.9407 0.0407542C23.6553 0.268573 28.0969 2.31976 31.3275 5.76117C31.3275 5.76117 30.032 8.53555 22.97 14.1359C22.8926 14.9139 22.9986 15.6992 23.2795 16.4288C24.6954 19.8853 30.0206 29.2632 30.0091 29.2919L29.7626 29.5154L29.6595 29.6071C22.7808 35.4597 11.4655 34.6973 5.25748 28.1168C-1.04794 21.433 -0.824384 10.6106 6.05999 4.54021Z" fill="url(#paint32_radial_101_25617)"/>
<path d="M6.07077 4.53434C9.61758 1.42325 14.2345 -0.187914 18.9468 0.0409662C23.6592 0.269846 28.0982 2.32086 31.3269 5.76103C31.3269 5.76103 30.318 8.34052 23.0438 14.1071C23.0114 14.8903 23.1442 15.6715 23.4336 16.4C24.8953 19.9368 30.0027 29.2287 29.9913 29.2631L29.7448 29.4809L29.6359 29.5726C22.7744 35.3851 11.4648 34.6112 5.26826 28.0421C-1.01996 21.3813 -0.807873 10.5818 6.07077 4.53434Z" fill="url(#paint33_radial_101_25617)"/>
<path d="M6.07749 4.52417C9.62605 1.41762 14.2423 -0.189599 18.9528 0.0413847C23.6634 0.272369 28.1002 2.32351 31.3278 5.76233C31.3278 5.76233 30.6113 8.11826 23.1193 14.0568C23.1317 14.8536 23.293 15.641 23.5951 16.3784C25.1027 19.9954 29.9808 29.1784 29.9693 29.1898L29.7228 29.4076L29.6196 29.4994C22.7754 35.3118 11.4658 34.5208 5.28645 27.9746C-0.990308 21.3367 -0.783949 10.5544 6.07749 4.52417Z" fill="url(#paint34_radial_101_25617)"/>
<path d="M6.08748 4.51704C9.63801 1.42269 14.2501 -0.174268 18.9539 0.061989C23.6577 0.298246 28.0866 2.34931 31.3092 5.78385C31.3092 5.78385 30.8792 7.89903 23.1752 14.0038C23.2417 14.8032 23.4352 15.5869 23.7484 16.3254C25.3018 20.0513 29.9621 29.1254 29.9506 29.1368L29.7041 29.3546C29.6653 29.3821 29.6289 29.4128 29.5952 29.4464C22.7682 35.2359 11.4643 34.4219 5.30217 27.9044C-0.963129 21.2837 -0.768234 10.5301 6.08748 4.51704Z" fill="url(#paint35_radial_101_25617)"/>
<path d="M6.09306 4.51278C9.6437 1.41779 14.2565 -0.179066 18.9608 0.0582831C23.665 0.295632 28.0937 2.34868 31.3148 5.78533C31.3148 5.78533 31.1772 7.68268 23.2553 13.9537C23.3678 14.754 23.5836 15.5362 23.8973 16.281C25.5023 20.0929 29.939 29.0695 29.9276 29.081L29.6811 29.2988C29.6467 29.2988 29.6066 29.3676 29.5722 29.3905C22.7623 35.1629 11.4641 34.3432 5.31348 27.8371C-0.934622 21.2393 -0.74546 10.5029 6.09306 4.51278Z" fill="url(#paint36_radial_101_25617)"/>
<path d="M6.10515 4.49928C9.65846 1.40845 14.2716 -0.184636 18.9749 0.0548092C23.6783 0.294255 28.1058 2.34759 31.3268 5.78329C31.3268 5.78329 31.4759 7.48002 23.3419 13.9058C23.5085 14.7022 23.7542 15.4799 24.0756 16.2274C25.7093 20.1597 29.9282 29.0159 29.911 29.0274C29.8938 29.0388 29.7447 29.1821 29.6645 29.2452L29.5613 29.3369C22.7687 35.0978 11.4648 34.2494 5.33131 27.7663C-0.911057 21.1857 -0.721895 10.4722 6.10515 4.49928Z" fill="url(#paint37_radial_101_25617)"/>
<path d="M6.11085 4.49635C9.66498 1.40561 14.2792 -0.186383 18.9831 0.0552234C23.6869 0.29683 28.1138 2.3532 31.3325 5.79183C31.3325 5.79183 31.7682 7.24208 23.4221 13.857C23.6364 14.6501 23.9045 15.4277 24.2246 16.1843C25.9041 20.1969 29.8995 28.9671 29.888 28.9786L29.6415 29.1964L29.5326 29.2881C22.7629 34.9974 11.4647 34.1605 5.34273 27.7061C-0.882432 21.1369 -0.704734 10.4464 6.11085 4.49635Z" fill="url(#paint38_radial_101_25617)"/>
<path d="M6.12268 4.48987C9.67754 1.39985 14.2922 -0.191147 18.9961 0.0515293C23.6999 0.294206 28.1264 2.35164 31.3444 5.79108C31.3444 5.79108 32.0552 7.01777 23.5027 13.7875C23.5027 13.7875 23.818 14.7505 24.3912 16.1148C26.1109 20.2534 29.8827 28.8976 29.8712 28.909L29.6247 29.1269L29.5215 29.2129C22.7575 34.9393 11.4651 34.0738 5.3603 27.6365C-0.853408 21.0846 -0.681442 10.417 6.12268 4.48987Z" fill="url(#paint39_radial_101_25617)"/>
<path d="M29.8428 28.8743C23.1476 34.8932 11.5742 34.0964 5.372 27.5445C-0.830239 20.9926 -0.664005 10.3479 6.12865 4.45517C9.68555 1.36794 14.3008 -0.220174 19.0042 0.0246204C23.7077 0.269415 28.1331 2.32806 31.3503 5.76784C31.3503 5.76784 32.3649 6.77671 23.5889 13.7299C23.5717 13.7528 29.8657 28.8571 29.8428 28.8743Z" fill="url(#paint40_radial_101_25617)"/>
<path d="M23.32 13.9453C20.5743 16.1981 17.198 18.8521 13.2715 21.8271C16.1884 24.9815 19.5809 27.6603 23.3258 29.7662C26.5415 31.4859 29.058 31.8069 30.2904 30.7177C31.5228 29.6286 31.3738 27.1179 29.9407 23.8391C28.244 20.2269 26.012 16.8915 23.32 13.9453Z" fill="url(#paint41_linear_101_25617)"/>
<path d="M23.5659 13.7227L22.1902 14.8691C24.7091 17.6381 26.8032 20.7657 28.4039 24.1495C29.8083 27.3825 29.7739 29.0047 29.321 29.4117C28.8682 29.8187 26.9135 29.9219 23.7894 28.2653C20.3288 26.3027 17.1989 23.8073 14.5147 20.8707L12.9785 22.0172L13.3396 22.3668C19.8457 29.0907 26.8848 32.9198 29.9802 31.5269C30.0719 31.481 30.1637 31.4352 30.2496 31.3836H30.284C30.4037 31.3093 30.5169 31.2249 30.6222 31.1314C30.7338 31.0304 30.8355 30.9191 30.926 30.7989C32.9495 28.1449 29.877 20.9968 23.7551 13.9921L23.5659 13.7227Z" fill="#84EEB1"/>
</g>
<defs>
<radialGradient id="paint0_radial_101_25617" cx="0" cy="0" r="1" gradientUnits="userSpaceOnUse" gradientTransform="translate(22.6249 2.0376) rotate(-2.29061) scale(82.5236 61.0688)">
<stop stop-color="#03BA50"/>
<stop offset="0.8" stop-color="#01B64E"/>
</radialGradient>
<radialGradient id="paint1_radial_101_25617" cx="0" cy="0" r="1" gradientUnits="userSpaceOnUse" gradientTransform="translate(22.6165 2.0325) rotate(-2.29061) scale(82.3515 60.9415)">
<stop stop-color="#04BC50"/>
<stop offset="0.8" stop-color="#01B34D"/>
</radialGradient>
<radialGradient id="paint2_radial_101_25617" cx="0" cy="0" r="1" gradientUnits="userSpaceOnUse" gradientTransform="translate(22.5971 2.04934) rotate(-2.29061) scale(82.1794 60.8141)">
<stop stop-color="#06BD51"/>
<stop offset="0.72" stop-color="#02B24C"/>
<stop offset="0.8" stop-color="#01B04B"/>
</radialGradient>
<radialGradient id="paint3_radial_101_25617" cx="0" cy="0" r="1" gradientUnits="userSpaceOnUse" gradientTransform="translate(22.5655 2.07552) rotate(-2.29061) scale(82.0074 60.6868)">
<stop stop-color="#08BF52"/>
<stop offset="0.56" stop-color="#04B44D"/>
<stop offset="0.8" stop-color="#01AD4A"/>
</radialGradient>
<radialGradient id="paint4_radial_101_25617" cx="0" cy="0" r="1" gradientUnits="userSpaceOnUse" gradientTransform="translate(22.5359 2.10095) rotate(-2.29061) scale(81.8352 60.5594)">
<stop stop-color="#0AC053"/>
<stop offset="0.48" stop-color="#05B54E"/>
<stop offset="0.8" stop-color="#01AA49"/>
</radialGradient>
<radialGradient id="paint5_radial_101_25617" cx="0" cy="0" r="1" gradientUnits="userSpaceOnUse" gradientTransform="translate(22.4984 2.1593) rotate(-1.71836) scale(81.6288 60.4244)">
<stop stop-color="#0BC253"/>
<stop offset="0.42" stop-color="#07B74E"/>
<stop offset="0.8" stop-color="#01A848"/>
</radialGradient>
<radialGradient id="paint6_radial_101_25617" cx="0" cy="0" r="1" gradientUnits="userSpaceOnUse" gradientTransform="translate(22.452 2.17523) rotate(-1.71836) scale(81.4568 60.2971)">
<stop stop-color="#0DC354"/>
<stop offset="0.37" stop-color="#08B84F"/>
<stop offset="0.8" stop-color="#01A546"/>
</radialGradient>
<radialGradient id="paint7_radial_101_25617" cx="0" cy="0" r="1" gradientUnits="userSpaceOnUse" gradientTransform="translate(23.0566 2.19461) rotate(-1.71836) scale(81.2847 60.1453)">
<stop stop-color="#0FC555"/>
<stop offset="0.33" stop-color="#0ABA50"/>
<stop offset="0.8" stop-color="#01A245"/>
</radialGradient>
<radialGradient id="paint8_radial_101_25617" cx="0" cy="0" r="1" gradientUnits="userSpaceOnUse" gradientTransform="translate(22.9967 2.22116) rotate(-1.70136) scale(81.9231 60.0181)">
<stop stop-color="#11C656"/>
<stop offset="0.3" stop-color="#0CBB51"/>
<stop offset="0.8" stop-color="#019F44"/>
</radialGradient>
<radialGradient id="paint9_radial_101_25617" cx="0" cy="0" r="1" gradientUnits="userSpaceOnUse" gradientTransform="translate(22.9772 2.25086) rotate(-1.70135) scale(81.7494 59.8908)">
<stop stop-color="#12C856"/>
<stop offset="0.28" stop-color="#0EBD51"/>
<stop offset="0.77" stop-color="#029E44"/>
<stop offset="0.8" stop-color="#019C43"/>
</radialGradient>
<radialGradient id="paint10_radial_101_25617" cx="0" cy="0" r="1" gradientUnits="userSpaceOnUse" gradientTransform="translate(22.9573 2.29119) rotate(-1.70135) scale(81.5698 59.7593)">
<stop stop-color="#14C957"/>
<stop offset="0.26" stop-color="#0FBE52"/>
<stop offset="0.72" stop-color="#049F44"/>
<stop offset="0.8" stop-color="#019941"/>
</radialGradient>
<radialGradient id="paint11_radial_101_25617" cx="0" cy="0" r="1" gradientUnits="userSpaceOnUse" gradientTransform="translate(22.9194 2.34073) rotate(-1.70136) scale(81.396 59.632)">
<stop stop-color="#16CB58"/>
<stop offset="0.24" stop-color="#11C053"/>
<stop offset="0.66" stop-color="#06A145"/>
<stop offset="0.8" stop-color="#019640"/>
</radialGradient>
<radialGradient id="paint12_radial_101_25617" cx="0" cy="0" r="1" gradientUnits="userSpaceOnUse" gradientTransform="translate(22.8755 2.39138) rotate(-1.70135) scale(81.2223 59.5047)">
<stop stop-color="#18CC59"/>
<stop offset="0.23" stop-color="#13C154"/>
<stop offset="0.62" stop-color="#07A246"/>
<stop offset="0.8" stop-color="#01933F"/>
</radialGradient>
<radialGradient id="paint13_radial_101_25617" cx="0" cy="0" r="1" gradientUnits="userSpaceOnUse" gradientTransform="translate(22.8329 2.45435) rotate(-1.70136) scale(81.0427 59.3731)">
<stop stop-color="#19CD59"/>
<stop offset="0.21" stop-color="#15C254"/>
<stop offset="0.59" stop-color="#09A347"/>
<stop offset="0.8" stop-color="#01903E"/>
</radialGradient>
<radialGradient id="paint14_radial_101_25617" cx="0" cy="0" r="1" gradientUnits="userSpaceOnUse" gradientTransform="translate(22.778 2.52382) rotate(-1.70135) scale(80.869 59.2458)">
<stop stop-color="#1BCF5A"/>
<stop offset="0.2" stop-color="#17C455"/>
<stop offset="0.56" stop-color="#0BA547"/>
<stop offset="0.8" stop-color="#018D3C"/>
</radialGradient>
<radialGradient id="paint15_radial_101_25617" cx="0" cy="0" r="1" gradientUnits="userSpaceOnUse" gradientTransform="translate(22.7187 2.27507) rotate(-1.13442) scale(80.6755 59.1172)">
<stop stop-color="#1DD05B"/>
<stop offset="0.19" stop-color="#18C556"/>
<stop offset="0.54" stop-color="#0CA648"/>
<stop offset="0.8" stop-color="#018B3B"/>
</radialGradient>
<radialGradient id="paint16_radial_101_25617" cx="0" cy="0" r="1" gradientUnits="userSpaceOnUse" gradientTransform="translate(22.6528 2.32567) rotate(-1.13442) scale(80.4959 58.9857)">
<stop stop-color="#1ED25B"/>
<stop offset="0.18" stop-color="#1AC756"/>
<stop offset="0.51" stop-color="#0EA848"/>
<stop offset="0.8" stop-color="#01883A"/>
</radialGradient>
<radialGradient id="paint17_radial_101_25617" cx="0" cy="0" r="1" gradientUnits="userSpaceOnUse" gradientTransform="translate(22.5876 2.37821) rotate(-1.13442) scale(80.3222 58.8584)">
<stop stop-color="#20D35C"/>
<stop offset="0.18" stop-color="#1BC857"/>
<stop offset="0.49" stop-color="#0FA949"/>
<stop offset="0.8" stop-color="#018539"/>
</radialGradient>
<radialGradient id="paint18_radial_101_25617" cx="0" cy="0" r="1" gradientUnits="userSpaceOnUse" gradientTransform="translate(22.5105 2.44735) rotate(-1.13442) scale(80.1485 58.731)">
<stop stop-color="#22D55D"/>
<stop offset="0.17" stop-color="#1DCA58"/>
<stop offset="0.47" stop-color="#11AB4A"/>
<stop offset="0.8" stop-color="#018237"/>
</radialGradient>
<radialGradient id="paint19_radial_101_25617" cx="0" cy="0" r="1" gradientUnits="userSpaceOnUse" gradientTransform="translate(22.4219 2.51447) rotate(-1.13442) scale(79.9689 58.5995)">
<stop stop-color="#24D65E"/>
<stop offset="0.16" stop-color="#1FCB59"/>
<stop offset="0.45" stop-color="#13AC4B"/>
<stop offset="0.8" stop-color="#017F36"/>
</radialGradient>
<radialGradient id="paint20_radial_101_25617" cx="0" cy="0" r="1" gradientUnits="userSpaceOnUse" gradientTransform="translate(22.3278 2.59073) rotate(-1.13442) scale(79.7952 58.4722)">
<stop stop-color="#25D85E"/>
<stop offset="0.15" stop-color="#20CD59"/>
<stop offset="0.43" stop-color="#14AE4B"/>
<stop offset="0.79" stop-color="#017D36"/>
<stop offset="0.8" stop-color="#007C35"/>
</radialGradient>
<radialGradient id="paint21_radial_101_25617" cx="0" cy="0" r="1" gradientUnits="userSpaceOnUse" gradientTransform="translate(24.0629 2.68213) rotate(-1.13442) scale(79.6216 58.3293)">
<stop stop-color="#27D95F"/>
<stop offset="0.15" stop-color="#22CE5A"/>
<stop offset="0.42" stop-color="#16AF4C"/>
<stop offset="0.77" stop-color="#027E36"/>
<stop offset="0.8" stop-color="#007934"/>
</radialGradient>
<radialGradient id="paint22_radial_101_25617" cx="0" cy="0" r="1" gradientUnits="userSpaceOnUse" gradientTransform="translate(23.4701 2.77476) rotate(-1.1233) scale(80.2283 58.1979)">
<stop stop-color="#29DB60"/>
<stop offset="0.14" stop-color="#24D05B"/>
<stop offset="0.4" stop-color="#18B14D"/>
<stop offset="0.74" stop-color="#048037"/>
<stop offset="0.8" stop-color="#007632"/>
</radialGradient>
<radialGradient id="paint23_radial_101_25617" cx="0" cy="0" r="1" gradientUnits="userSpaceOnUse" gradientTransform="translate(23.3988 2.87884) rotate(-1.1233) scale(80.0528 58.0706)">
<stop stop-color="#2BDC61"/>
<stop offset="0.14" stop-color="#26D15C"/>
<stop offset="0.39" stop-color="#1AB24E"/>
<stop offset="0.71" stop-color="#068138"/>
<stop offset="0.8" stop-color="#007331"/>
</radialGradient>
<radialGradient id="paint24_radial_101_25617" cx="0" cy="0" r="1" gradientUnits="userSpaceOnUse" gradientTransform="translate(23.3294 2.9891) rotate(-1.1233) scale(79.8716 57.9391)">
<stop stop-color="#2CDE61"/>
<stop offset="0.13" stop-color="#27D35C"/>
<stop offset="0.37" stop-color="#1BB44E"/>
<stop offset="0.69" stop-color="#088339"/>
<stop offset="0.8" stop-color="#007030"/>
</radialGradient>
<radialGradient id="paint25_radial_101_25617" cx="0" cy="0" r="1" gradientUnits="userSpaceOnUse" gradientTransform="translate(23.2538 2.41746) rotate(-0.561705) scale(79.6847 57.8125)">
<stop stop-color="#2EDF62"/>
<stop offset="0.13" stop-color="#29D45D"/>
<stop offset="0.37" stop-color="#1DB54F"/>
<stop offset="0.67" stop-color="#098439"/>
<stop offset="0.8" stop-color="#006E2F"/>
</radialGradient>
<radialGradient id="paint26_radial_101_25617" cx="0" cy="0" r="1" gradientUnits="userSpaceOnUse" gradientTransform="translate(23.165 2.50606) rotate(-0.561705) scale(79.5093 57.6853)">
<stop stop-color="#30E163"/>
<stop offset="0.13" stop-color="#2BD65E"/>
<stop offset="0.35" stop-color="#1FB750"/>
<stop offset="0.65" stop-color="#0B8639"/>
<stop offset="0.8" stop-color="#006B2D"/>
</radialGradient>
<radialGradient id="paint27_radial_101_25617" cx="0" cy="0" r="1" gradientUnits="userSpaceOnUse" gradientTransform="translate(23.0777 2.60618) rotate(-0.561706) scale(79.3279 57.5537)">
<stop stop-color="#31E263"/>
<stop offset="0.12" stop-color="#2CD75E"/>
<stop offset="0.34" stop-color="#20B850"/>
<stop offset="0.63" stop-color="#0D873A"/>
<stop offset="0.8" stop-color="#00682C"/>
</radialGradient>
<radialGradient id="paint28_radial_101_25617" cx="0" cy="0" r="1" gradientUnits="userSpaceOnUse" gradientTransform="translate(22.9775 2.71153) rotate(-0.561706) scale(79.1525 57.4265)">
<stop stop-color="#33E364"/>
<stop offset="0.12" stop-color="#2ED85F"/>
<stop offset="0.34" stop-color="#22B951"/>
<stop offset="0.62" stop-color="#0E883B"/>
<stop offset="0.8" stop-color="#00652B"/>
</radialGradient>
<radialGradient id="paint29_radial_101_25617" cx="0" cy="0" r="1" gradientUnits="userSpaceOnUse" gradientTransform="translate(22.8738 2.82241) rotate(-0.561705) scale(78.9713 57.295)">
<stop stop-color="#35E565"/>
<stop offset="0.12" stop-color="#30DA60"/>
<stop offset="0.33" stop-color="#24BB52"/>
<stop offset="0.6" stop-color="#108A3C"/>
<stop offset="0.8" stop-color="#00622A"/>
</radialGradient>
<radialGradient id="paint30_radial_101_25617" cx="0" cy="0" r="1" gradientUnits="userSpaceOnUse" gradientTransform="translate(22.7682 2.93978) rotate(-0.561705) scale(78.7958 57.1677)">
<stop stop-color="#37E666"/>
<stop offset="0.11" stop-color="#32DB61"/>
<stop offset="0.32" stop-color="#26BC53"/>
<stop offset="0.59" stop-color="#128B3C"/>
<stop offset="0.8" stop-color="#005F28"/>
</radialGradient>
<radialGradient id="paint31_radial_101_25617" cx="0" cy="0" r="1" gradientUnits="userSpaceOnUse" gradientTransform="translate(22.6505 3.06934) rotate(-0.561705) scale(78.6146 57.0362)">
<stop stop-color="#38E866"/>
<stop offset="0.11" stop-color="#33DD61"/>
<stop offset="0.31" stop-color="#27BE53"/>
<stop offset="0.57" stop-color="#148D3D"/>
<stop offset="0.8" stop-color="#005C27"/>
</radialGradient>
<radialGradient id="paint32_radial_101_25617" cx="0" cy="0" r="1" gradientUnits="userSpaceOnUse" gradientTransform="translate(22.5287 3.20202) rotate(-0.561706) scale(78.4392 56.9089)">
<stop stop-color="#3AE967"/>
<stop offset="0.11" stop-color="#35DE62"/>
<stop offset="0.3" stop-color="#29BF54"/>
<stop offset="0.56" stop-color="#158E3E"/>
<stop offset="0.8" stop-color="#005926"/>
</radialGradient>
<radialGradient id="paint33_radial_101_25617" cx="0" cy="0" r="1" gradientUnits="userSpaceOnUse" gradientTransform="translate(22.4051 3.34192) rotate(-0.561705) scale(78.2638 56.7817)">
<stop stop-color="#3CEB68"/>
<stop offset="0.11" stop-color="#37E063"/>
<stop offset="0.29" stop-color="#2BC155"/>
<stop offset="0.54" stop-color="#17903F"/>
<stop offset="0.8" stop-color="#005625"/>
</radialGradient>
<radialGradient id="paint34_radial_101_25617" cx="0" cy="0" r="1" gradientUnits="userSpaceOnUse" gradientTransform="translate(22.2657 3.49341) rotate(-0.561705) scale(78.0825 56.6501)">
<stop stop-color="#3EEC69"/>
<stop offset="0.1" stop-color="#39E164"/>
<stop offset="0.29" stop-color="#2DC256"/>
<stop offset="0.53" stop-color="#19913F"/>
<stop offset="0.8" stop-color="#005323"/>
</radialGradient>
<radialGradient id="paint35_radial_101_25617" cx="0" cy="0" r="1" gradientUnits="userSpaceOnUse" gradientTransform="translate(22.1239 2.60007) scale(77.9034 56.5181)">
<stop stop-color="#3FEE69"/>
<stop offset="0.1" stop-color="#3AE364"/>
<stop offset="0.28" stop-color="#2EC456"/>
<stop offset="0.52" stop-color="#1A9340"/>
<stop offset="0.8" stop-color="#005122"/>
</radialGradient>
<radialGradient id="paint36_radial_101_25617" cx="0" cy="0" r="1" gradientUnits="userSpaceOnUse" gradientTransform="translate(23.9629 2.72697) scale(78.4841 56.3866)">
<stop stop-color="#41EF6A"/>
<stop offset="0.1" stop-color="#3CE465"/>
<stop offset="0.28" stop-color="#30C557"/>
<stop offset="0.51" stop-color="#1C9441"/>
<stop offset="0.79" stop-color="#015022"/>
<stop offset="0.8" stop-color="#004E21"/>
</radialGradient>
<radialGradient id="paint37_radial_101_25617" cx="0" cy="0" r="1" gradientUnits="userSpaceOnUse" gradientTransform="translate(23.8502 2.86033) scale(78.3128 56.2636)">
<stop stop-color="#43F16B"/>
<stop offset="0.1" stop-color="#3EE666"/>
<stop offset="0.27" stop-color="#32C758"/>
<stop offset="0.5" stop-color="#1E9642"/>
<stop offset="0.77" stop-color="#035223"/>
<stop offset="0.8" stop-color="#004B20"/>
</radialGradient>
<radialGradient id="paint38_radial_101_25617" cx="0" cy="0" r="1" gradientUnits="userSpaceOnUse" gradientTransform="translate(23.7426 3.00701) scale(78.1357 56.1364)">
<stop stop-color="#45F26C"/>
<stop offset="0.1" stop-color="#40E767"/>
<stop offset="0.27" stop-color="#34C859"/>
<stop offset="0.49" stop-color="#209742"/>
<stop offset="0.76" stop-color="#055323"/>
<stop offset="0.8" stop-color="#00481E"/>
</radialGradient>
<radialGradient id="paint39_radial_101_25617" cx="0" cy="0" r="1" gradientUnits="userSpaceOnUse" gradientTransform="translate(23.6293 3.16011) scale(77.9528 56.0049)">
<stop stop-color="#46F46C"/>
<stop offset="0.09" stop-color="#41E967"/>
<stop offset="0.26" stop-color="#35CA59"/>
<stop offset="0.48" stop-color="#229943"/>
<stop offset="0.74" stop-color="#065524"/>
<stop offset="0.8" stop-color="#00451D"/>
</radialGradient>
<radialGradient id="paint40_radial_101_25617" cx="0" cy="0" r="1" gradientUnits="userSpaceOnUse" gradientTransform="translate(23.5216 3.32214) scale(77.7697 55.8734)">
<stop stop-color="#48F56D"/>
<stop offset="0.09" stop-color="#43EA68"/>
<stop offset="0.25" stop-color="#37CB5A"/>
<stop offset="0.47" stop-color="#239A44"/>
<stop offset="0.73" stop-color="#085625"/>
<stop offset="0.8" stop-color="#00421C"/>
</radialGradient>
<linearGradient id="paint41_linear_101_25617" x1="24.7875" y1="43.4948" x2="18.0808" y2="-4.59837" gradientUnits="userSpaceOnUse">
<stop offset="0.1" stop-color="#FF8475"/>
<stop offset="0.37" stop-color="#E84E43"/>
<stop offset="0.6" stop-color="#D6261F"/>
<stop offset="0.79" stop-color="#CC0E08"/>
<stop offset="0.9" stop-color="#C80500"/>
</linearGradient>
<clipPath id="clip0_101_25617">
<rect width="36" height="36" fill="white"/>
</clipPath>
</defs>
</svg>
