<svg id="svg-sate" viewBox="0 0 100 36" fill="none" xmlns="http://www.w3.org/2000/svg">
<path d="M31.4968 0C31.8024 0.036769 32.1119 0.0499008 32.4109 0.112933C34.1488 0.481936 35.1985 1.56793 35.6648 3.22779C35.9226 4.14701 35.9425 5.08331 35.7074 6.01435C35.4775 6.92044 34.9367 7.25793 34.0279 7.02024C33.5084 6.88367 33.0008 6.68407 32.5132 6.45952C31.3227 5.91192 30.1176 5.41423 28.8288 5.1319C27.2702 4.79178 25.6891 4.68279 24.0973 4.68673C21.9767 4.69198 19.892 4.93492 17.8658 5.57575C16.48 6.01435 15.1832 6.62629 14.0618 7.56127C12.7291 8.67222 11.892 10.0629 11.6794 11.7858C11.4297 13.8172 11.9757 15.6281 13.2951 17.2079C14.2146 18.3096 15.344 19.1684 16.5477 19.9406C18.0545 20.9071 19.6515 21.7147 21.2513 22.517C22.8178 23.3036 24.3803 24.0955 25.8578 25.041C26.8597 25.6818 27.811 26.3857 28.5949 27.2852C29.2991 28.0915 29.7921 29.0002 29.9475 30.0678C30.2305 32.0113 29.5091 33.7933 27.6808 34.8964C26.764 35.4492 25.7595 35.7617 24.7019 35.8891C22.6783 36.1334 20.6813 35.9824 18.7387 35.3534C16.2634 34.5523 14.5242 32.9305 13.428 30.6141C12.8713 29.4401 12.5245 28.1992 12.2122 26.9464C12.1099 26.5354 11.985 26.1283 11.8641 25.7212C11.8389 25.6372 11.7804 25.5623 11.7379 25.4835C11.718 25.4861 11.698 25.4875 11.6781 25.4901C11.6542 25.582 11.6157 25.6726 11.6104 25.7658C11.5904 26.1007 11.5732 26.4369 11.5692 26.7717C11.5479 28.886 11.5373 31.0015 11.508 33.1157C11.4961 34.0073 11.4443 34.899 11.4111 35.7893C11.4084 35.8524 11.3991 35.9141 11.3911 35.9968C11.3287 35.9968 11.2729 35.9968 11.2157 35.9968C9.16558 35.9968 7.11409 35.9981 5.06393 35.9968C2.59258 35.9942 0.57431 34.3632 0.088012 31.968C0.0295499 31.6765 0.00430479 31.3744 0.00430479 31.0776C0.00031874 22.366 -0.0023384 13.6544 0.00297633 4.9428C0.00430501 2.50817 1.8246 0.433349 4.25078 0.0722251C4.47001 0.0393957 4.69323 0.0249506 4.91379 0.00131346C13.7721 2.80554e-07 22.6344 0 31.4968 0Z" fill="black"/>
<path d="M35.875 35.9728C35.9056 35.8874 35.9321 35.81 35.9614 35.7325C38.8606 28.0727 41.7597 20.4248 44.6603 12.765C44.8383 12.2936 45.031 11.8327 45.2143 11.3639C45.2462 11.2811 45.2834 11.2404 45.3844 11.2417C47.3176 11.2457 49.1552 11.2417 51.0898 11.2417C51.1894 11.2417 51.224 11.2706 51.2598 11.3612C51.495 11.9482 57.6096 27.7077 60.8197 35.9728C60.4703 35.9728 60.1527 35.9728 59.8338 35.9728C58.6061 35.9728 57.6455 35.9728 56.4178 35.9728C56.2822 35.9741 56.2251 35.9373 56.1786 35.8205C55.3827 33.8441 53.7764 29.8888 53.7764 29.8888L53.7631 29.8573C53.7272 29.7746 53.6448 29.7194 53.5545 29.7194H53.5305C53.5305 29.7194 46.4752 29.7247 42.9476 29.7194C42.8081 29.7194 42.7483 29.7615 42.6978 29.8888C41.9112 31.8744 41.1193 33.8507 40.3287 35.8349C40.2955 35.919 40.2743 35.9728 40.1507 35.9728M43.9587 26.4273C46.8194 26.4273 49.6574 26.4273 52.5154 26.4273C51.0898 22.8305 49.6721 19.2495 48.2371 15.6277C46.8021 19.2495 45.3844 22.8292 43.9587 26.4273Z" fill="black"/>
<path d="M86.7442 21.2181C90.6506 21.2181 94.5476 21.2181 98.4566 21.2181C98.4566 22.3579 98.4566 23.4833 98.4566 24.6232C94.5556 24.6232 90.6572 24.6232 86.7456 24.6232C86.7456 27.2535 86.7456 29.868 86.7456 32.4983C91.1621 32.4983 95.5747 32.4983 99.9979 32.4983C99.9979 33.6618 99.9979 34.8082 99.9979 35.969C94.0121 35.969 88.0238 35.969 82.0234 35.969C82.0234 27.7314 82.0234 19.4939 82.0234 11.2445C88.0131 11.2445 94.0015 11.2445 99.9992 11.2445C99.9992 12.3988 99.9992 13.5504 99.9992 14.7165C95.5813 14.7165 91.1688 14.7165 86.7442 14.7165C86.7442 16.8846 86.7442 19.0382 86.7442 21.2181Z" fill="black"/>
<path d="M66.6305 14.7178C63.9333 14.7178 61.2626 14.7178 58.584 14.7178C58.584 13.553 58.584 12.4026 58.584 11.2405C65.5171 11.2405 72.4408 11.2405 79.3779 11.2405C79.3779 12.3961 79.3779 13.5477 79.3779 14.7138C76.7086 14.7138 74.0392 14.7138 71.3526 14.7138C71.3526 21.805 71.3526 28.8804 71.3526 35.9689C69.7728 35.9689 68.2103 35.9689 66.6305 35.9689C66.6305 28.8948 66.6305 21.8181 66.6305 14.7178Z" fill="black"/>
<path d="M35.864 23.6244C35.5585 23.3552 35.2821 23.0978 34.9911 22.8562C34.0876 22.1064 33.0778 21.5167 32.0401 20.9731C29.7295 19.7623 27.411 18.5673 25.103 17.35C23.9086 16.7197 22.7367 16.05 21.6764 15.2082C20.9443 14.6278 20.2985 13.9712 19.9092 13.1111C19.2356 11.6233 19.3552 9.6548 20.7569 8.36395C21.5156 7.66534 22.4257 7.25563 23.4223 7.0232C25.5601 6.52682 27.6315 6.76581 29.6365 7.6115C31.6774 8.47295 33.4153 9.73359 34.7599 11.4906C35.2462 12.1262 35.6408 12.8143 35.8082 13.6062C35.8508 13.8097 35.8734 14.0224 35.8734 14.2299C35.8734 17.3211 35.868 20.411 35.8627 23.5023C35.864 23.5351 35.864 23.5666 35.864 23.6244Z" fill="black"/>
</svg>
