<svg id="svg-star-active" viewBox="0 0 16 16" fill="#FDC14E" xmlns="http://www.w3.org/2000/svg">
<path fill-rule="evenodd" clip-rule="evenodd" d="M15.8111 6.68348L12.1982 9.89394C12.1214 9.96263 12.0647 10.0526 12.0346 10.1536C12.0045 10.2546 12.0022 10.3624 12.0279 10.4647L13.1483 15.2893C13.1737 15.3995 13.1673 15.5151 13.13 15.6215C13.0926 15.7279 13.026 15.8203 12.9384 15.887C12.8509 15.9536 12.7465 15.9916 12.6383 15.996C12.5302 16.0004 12.4232 15.9711 12.331 15.9118L8.28906 13.3095C8.20379 13.2519 8.10449 13.2213 8.00303 13.2213C7.90157 13.2213 7.80226 13.2519 7.71699 13.3095L3.68186 15.9153C3.58964 15.9747 3.48268 16.004 3.37455 15.9996C3.26641 15.9952 3.16195 15.9572 3.07442 15.8905C2.98689 15.8239 2.92023 15.7315 2.88288 15.6251C2.84552 15.5187 2.83917 15.403 2.86461 15.2929L3.98492 10.4772C4.01071 10.3749 4.00841 10.2671 3.97829 10.1661C3.94817 10.0651 3.89145 9.97512 3.81466 9.90642L0.201763 6.69597C0.11649 6.62356 0.0540824 6.52586 0.0227168 6.41567C-0.0086489 6.30547 -0.00750996 6.18792 0.0259844 6.07842C0.0594787 5.96891 0.123766 5.87256 0.210425 5.80198C0.297083 5.73141 0.402071 5.6899 0.511634 5.68289L5.23802 5.30655C5.33969 5.29969 5.43734 5.26243 5.51942 5.19921C5.6015 5.13599 5.66456 5.04945 5.70113 4.94983L7.49225 0.355314C7.53339 0.250224 7.60343 0.160326 7.69348 0.0970549C7.78352 0.0337841 7.88949 0 7.99792 0C8.10634 0 8.21232 0.0337841 8.30236 0.0970549C8.39241 0.160326 8.46245 0.250224 8.50359 0.355314L10.31 4.94805C10.3466 5.04766 10.4097 5.13421 10.4917 5.19743C10.5738 5.26065 10.6715 5.2979 10.7731 5.30477L15.4944 5.68289C15.6025 5.69107 15.7059 5.73284 15.7912 5.80287C15.8765 5.8729 15.9399 5.968 15.9734 6.076C16.0069 6.18401 16.0088 6.30001 15.979 6.40918C15.9492 6.51835 15.8889 6.61572 15.806 6.68883L15.8111 6.68348Z"/>
</svg>
