<svg id="svg-truck" viewBox="0 0 30 30" fill="currentColor" xmlns="http://www.w3.org/2000/svg">
<path d="M17.5 3.65V14.0375C17.5 15.3125 16.4625 16.35 15.1875 16.35H3.75C3.0625 16.35 2.5 15.7875 2.5 15.1V7.1125C2.5 4.5625 4.5625 2.5 7.1125 2.5H16.3375C16.9875 2.5 17.5 3.0125 17.5 3.65Z" />
<path d="M26.875 19.375C27.225 19.375 27.5 19.65 27.5 20V21.25C27.5 23.325 25.825 25 23.75 25C23.75 22.9375 22.0625 21.25 20 21.25C17.9375 21.25 16.25 22.9375 16.25 25H13.75C13.75 22.9375 12.0625 21.25 10 21.25C7.9375 21.25 6.25 22.9375 6.25 25C4.175 25 2.5 23.325 2.5 21.25V18.75C2.5 18.0625 3.0625 17.5 3.75 17.5H15.625C17.35 17.5 18.75 16.1 18.75 14.375V7.5C18.75 6.8125 19.3125 6.25 20 6.25H21.05C21.95 6.25 22.775 6.7375 23.225 7.5125L24.025 8.9125C24.1375 9.1125 23.9875 9.375 23.75 9.375C22.025 9.375 20.625 10.775 20.625 12.5V16.25C20.625 17.975 22.025 19.375 23.75 19.375H26.875Z" />
<path d="M10 27.5C11.3807 27.5 12.5 26.3807 12.5 25C12.5 23.6193 11.3807 22.5 10 22.5C8.61929 22.5 7.5 23.6193 7.5 25C7.5 26.3807 8.61929 27.5 10 27.5Z" />
<path d="M20 27.5C21.3807 27.5 22.5 26.3807 22.5 25C22.5 23.6193 21.3807 22.5 20 22.5C18.6193 22.5 17.5 23.6193 17.5 25C17.5 26.3807 18.6193 27.5 20 27.5Z" />
<path d="M27.5 15.6625V17.5H23.75C23.0625 17.5 22.5 16.9375 22.5 16.25V12.5C22.5 11.8125 23.0625 11.25 23.75 11.25H25.3625L27.175 14.425C27.3875 14.8 27.5 15.225 27.5 15.6625Z" />
</svg>
