<svg width="52" height="16" viewBox="0 0 52 16" fill="none" xmlns="http://www.w3.org/2000/svg">
<path d="M48.5033 0.230469H45.2343C44.2461 0.230469 43.4858 0.535231 43.0297 1.52571L36.7959 15.7733H41.2052C41.2052 15.7733 41.9654 13.8686 42.1174 13.4114C42.5736 13.4114 46.9068 13.4114 47.515 13.4114C47.667 13.9448 48.0472 15.6971 48.0472 15.6971H52.0003L48.5033 0.230469ZM43.3338 10.2114C43.7139 9.29714 45.0063 5.86856 45.0063 5.86856C45.0063 5.94476 45.3864 4.95428 45.5384 4.42095L45.8425 5.79237C45.8425 5.79237 46.6788 9.52571 46.8308 10.2876H43.3338V10.2114Z" fill="#3362AB"/>
<path d="M37.0997 10.6667C37.0997 13.8667 34.2109 16 29.7256 16C27.825 16 26.0005 15.619 25.0122 15.1619L25.6204 11.6571L26.1525 11.8857C27.5209 12.4952 28.4332 12.7238 30.1057 12.7238C31.322 12.7238 32.6144 12.2667 32.6144 11.2C32.6144 10.5143 32.0823 10.0571 30.4098 9.29524C28.8133 8.53333 26.6847 7.31429 26.6847 5.10476C26.6847 2.05714 29.6495 0 33.8308 0C35.4272 0 36.7956 0.304762 37.6319 0.685714L37.0237 4.0381L36.7196 3.73333C35.9594 3.42857 34.9711 3.12381 33.5267 3.12381C31.9302 3.2 31.17 3.88571 31.17 4.49524C31.17 5.18095 32.0823 5.71429 33.5267 6.4C35.9594 7.54286 37.0997 8.8381 37.0997 10.6667Z" fill="#3362AB"/>
<path d="M0 0.378981L0.076022 0.0742188H6.61391C7.52618 0.0742188 8.21038 0.378981 8.43844 1.36946L9.88286 8.2266C8.43844 4.56946 5.09347 1.59803 0 0.378981Z" fill="#3362AB"/>
<path d="M19.0815 0.228534L12.4676 15.6952H7.98225L4.18115 2.74282C6.91794 4.4952 9.1986 7.23806 10.0348 9.14282L10.491 10.7428L14.5962 0.152344H19.0815V0.228534Z" fill="#3362AB"/>
<path d="M20.8297 0.152344H25.0109L22.3502 15.6952H18.1689L20.8297 0.152344Z" fill="#3362AB"/>
</svg>
