<svg id="svg-yandex-pay" viewBox="0 0 45 16" fill="none" xmlns="http://www.w3.org/2000/svg">
<path d="M28.2315 1.82031V13.867H26.1371V3.44965H22.3985V13.867H20.3042V1.82031H28.2315Z" fill="black"/>
<path d="M31.7384 14.0403C30.8153 14.0403 30.1057 13.8612 29.6095 13.503V11.8216C29.8749 12.0065 30.1634 12.151 30.4749 12.255C30.798 12.359 31.1788 12.411 31.6173 12.411C32.275 12.411 32.7712 12.2203 33.1058 11.839C33.4404 11.4461 33.6481 10.9088 33.7289 10.227H30.6999V8.59765H33.7116C33.5154 7.26876 32.8346 6.60431 31.6692 6.60431C31.3115 6.60431 30.9538 6.66209 30.5961 6.77765C30.2499 6.8932 29.973 7.01454 29.7653 7.14165V5.39098C29.9845 5.27542 30.2788 5.1772 30.648 5.09631C31.0173 5.01542 31.4615 4.97498 31.9808 4.97498C32.6269 4.97498 33.1923 5.09054 33.677 5.32165C34.1732 5.5412 34.5828 5.8532 34.9059 6.25765C35.2405 6.65054 35.4886 7.13009 35.6501 7.69631C35.8232 8.25098 35.9098 8.85765 35.9098 9.51631C35.9098 10.9839 35.5636 12.1048 34.8713 12.879C34.1905 13.6532 33.1462 14.0403 31.7384 14.0403Z" fill="black"/>
<path d="M40.8051 4.00431C39.9743 4.00431 39.3454 3.79631 38.9185 3.38031C38.5031 2.96431 38.2954 2.44431 38.2954 1.82031H40.0262C40.0262 2.12076 40.0954 2.34031 40.2339 2.47898C40.3839 2.61765 40.5743 2.68698 40.8051 2.68698C41.0243 2.68698 41.1974 2.61765 41.3243 2.47898C41.4513 2.32876 41.5147 2.1092 41.5147 1.82031H43.2456C43.2456 2.12076 43.1936 2.40387 43.0898 2.66965C42.9859 2.93542 42.8302 3.16654 42.6225 3.36298C42.4263 3.55942 42.1724 3.71542 41.8609 3.83098C41.5609 3.94654 41.2089 4.00431 40.8051 4.00431ZM39.2819 5.14831V10.5563L42.4321 5.14831H44.2668V13.867H42.2763V8.47631L39.1262 13.867H37.2915V5.14831H39.2819Z" fill="black"/>
<rect width="16" height="16" rx="8" fill="#FC3F1D"/>
<path d="M9.12721 12.808H10.7986V3.20801H8.3675C5.9226 3.20801 4.638 4.46499 4.638 6.31592C4.638 7.79391 5.34246 8.66412 6.59944 9.56196L4.41699 12.808H6.22649L8.65757 9.1752L7.81498 8.60887C6.79282 7.91822 6.29555 7.37952 6.29555 6.21923C6.29555 5.19707 7.01383 4.50643 8.38131 4.50643H9.12721V12.808Z" fill="white"/>
</svg>
