<svg viewBox="0 0 9 9" fill="none" xmlns="http://www.w3.org/2000/svg">
<path fill-rule="evenodd" clip-rule="evenodd" d="M4.82 6.9L5.6 4.5H8.5C8.5 5.56087 8.07858 6.57828 7.32843 7.32843C6.57829 8.07857 5.56087 8.5 4.5 8.5C3.43913 8.5 2.42171 8.07857 1.67157 7.32843C0.92142 6.57828 0.5 5.56087 0.5 4.5C0.5 3.43913 0.92142 2.42172 1.67157 1.67157C2.42171 0.921427 3.43913 0.5 4.5 0.5C4.91969 0.499997 5.33677 0.565912 5.736 0.695333L4.82467 3.5H2.16266L1.83734 4.5H4.5L3.72 6.9H4.82ZM5.92467 3.49979L6.688 1.15179C7.52276 1.69721 8.12398 2.53448 8.374 3.49979H5.92467Z" fill="#D2D2D4"/>
</svg>
