<svg width="43" height="17" viewBox="0 0 43 17" fill="none" xmlns="http://www.w3.org/2000/svg">
<path d="M26.9688 2.66406V14.0415H24.9908V4.20288H21.4599V14.0415H19.4819V2.66406H26.9688Z" fill="white"/>
<path d="M30.2809 14.2052C29.4091 14.2052 28.7389 14.036 28.2703 13.6977V12.1098C28.5209 12.2844 28.7934 12.4208 29.0876 12.519C29.3928 12.6172 29.7524 12.6664 30.1665 12.6664C30.7877 12.6664 31.2563 12.4863 31.5723 12.1261C31.8884 11.7551 32.0845 11.2476 32.1608 10.6037H29.3001V9.06488H32.1445C31.9592 7.80982 31.3162 7.18228 30.2156 7.18228C29.8777 7.18228 29.5399 7.23685 29.202 7.34599C28.8751 7.45512 28.6136 7.56972 28.4174 7.68977V6.03636C28.6245 5.92722 28.9024 5.83446 29.2511 5.75806C29.5998 5.68167 30.0194 5.64347 30.5098 5.64347C31.1201 5.64347 31.6541 5.75261 32.1118 5.97088C32.5804 6.17824 32.9673 6.4729 33.2724 6.85488C33.5884 7.22594 33.8228 7.67885 33.9753 8.21362C34.1388 8.73747 34.2205 9.31043 34.2205 9.93251C34.2205 11.3185 33.8936 12.3771 33.2397 13.1084C32.5967 13.8396 31.6105 14.2052 30.2809 14.2052Z" fill="white"/>
<path d="M38.8439 4.72673C38.0592 4.72673 37.4653 4.53029 37.0621 4.1374C36.6697 3.74451 36.4736 3.2534 36.4736 2.66406H38.1083C38.1083 2.94782 38.1737 3.15517 38.3044 3.28614C38.4461 3.4171 38.6259 3.48258 38.8439 3.48258C39.0509 3.48258 39.2144 3.4171 39.3343 3.28614C39.4542 3.14426 39.5141 2.9369 39.5141 2.66406H41.1488C41.1488 2.94782 41.0997 3.2152 41.0017 3.46621C40.9036 3.71722 40.7565 3.9355 40.5603 4.12103C40.375 4.30656 40.1353 4.45389 39.841 4.56303C39.5577 4.67216 39.2253 4.72673 38.8439 4.72673ZM37.4053 5.80717V10.9147L40.3805 5.80717H42.1132V14.0415H40.2334V8.95028L37.2582 14.0415H35.5255V5.80717H37.4053Z" fill="white"/>
<rect x="0.305664" y="0.945312" width="15.1111" height="15.1111" rx="7.55556" fill="#FC3F1D"/>
<path d="M8.92608 13.0413H10.5046V3.97461H8.20857C5.89951 3.97461 4.68627 5.16176 4.68627 6.90986C4.68627 8.30574 5.35159 9.12761 6.53874 9.97557L4.47754 13.0413H6.18651L8.48253 9.61029L7.68675 9.07542C6.72138 8.42315 6.25174 7.91437 6.25174 6.81854C6.25174 5.85317 6.9301 5.20089 8.22162 5.20089H8.92608V13.0413Z" fill="white"/>
</svg>
