<svg id="svg-yandex-plus-2" viewBox="0 0 14 14" fill="none" xmlns="http://www.w3.org/2000/svg">
  <defs>
    <linearGradient id="gradient" x1="-5.53992e-08" y1="6.06667" x2="14" y2="6.06667" gradientUnits="userSpaceOnUse">
      <stop stop-color="#FF5C4D"/>
      <stop offset="0.4" stop-color="#EB469F"/>
      <stop offset="1" stop-color="#8341EF"/>
    </linearGradient>
  </defs>
	<path d="M7 14C10.866 14 14 10.866 14 7C14 3.13401 10.866 0 7 0C3.13401 0 0 3.13401 0 7C0 10.866 3.13401 14 7 14Z" fill="white"/>
	<path fill-rule="evenodd" clip-rule="evenodd" d="M14 7C14 10.866 10.866 14 7 14C3.13401 14 0 10.866 0 7C0 3.13401 3.13401 0 7 0C7.75534 0 8.48273 0.119635 9.16427 0.340991L7.56884 5.25H2.90967L2.34034 7H7.00009L5.63509 11.2H7.56009L8.92509 7H14ZM13.7795 5.25H9.49384L10.8297 1.13959C12.2684 2.0817 13.3392 3.53931 13.7795 5.25Z" fill="url(#gradient)"/>
</svg>